<?xml version="1.0" encoding="utf-8"?>
<!-- Generator: Adobe Illustrator 22.1.0, SVG Export Plug-In . SVG Version: 6.00 Build 0)  -->
<svg version="1.1"
	 id="svg930" xmlns:cc="http://creativecommons.org/ns#" xmlns:dc="http://purl.org/dc/elements/1.1/" xmlns:rdf="http://www.w3.org/1999/02/22-rdf-syntax-ns#" xmlns:svg="http://www.w3.org/2000/svg"
	 xmlns="http://www.w3.org/2000/svg" xmlns:xlink="http://www.w3.org/1999/xlink" x="0px" y="0px" viewBox="0 0 279.7 186.7"
	 style="enable-background:new 0 0 279.7 186.7;" xml:space="preserve">
<style type="text/css">
	.st0{fill:#FFFFFF;}
</style>
<g id="layer1" transform="translate(-223.3535,-133.8186)">
	<path id="path1945" class="st0" d="M224.8,133.8c-0.8,0-1.4,0.6-1.4,1.4v21.4v162.5c0,0.8,0.6,1.4,1.4,1.4c0.8,0,1.4-0.6,1.4-1.4
		c0,0,0,0,0-0.1V158h274v161.1c0,0.8,0.6,1.4,1.4,1.4c0.8,0,1.4-0.6,1.4-1.4c0,0,0,0,0-0.1V156.6v-21.4c0-0.8-0.6-1.4-1.4-1.4H224.8
		z M226.2,136.7h274v18.5h-274V136.7z M461.9,140.6c-2.9,0-5.3,2.4-5.3,5.3s2.4,5.3,5.3,5.3c2.9,0,5.3-2.4,5.3-5.3
		S464.8,140.6,461.9,140.6z M476.1,140.6c-2.9,0-5.3,2.4-5.3,5.3s2.4,5.3,5.3,5.3s5.3-2.4,5.3-5.3S479,140.6,476.1,140.6z
		 M490.3,140.6c-2.9,0-5.3,2.4-5.3,5.3s2.4,5.3,5.3,5.3c2.9,0,5.3-2.4,5.3-5.3S493.2,140.6,490.3,140.6z M461.9,143.4
		c1.4,0,2.5,1.1,2.5,2.5s-1.1,2.5-2.5,2.5c-1.4,0-2.5-1.1-2.5-2.5S460.5,143.4,461.9,143.4z M476.1,143.4c1.4,0,2.5,1.1,2.5,2.5
		s-1.1,2.5-2.5,2.5s-2.5-1.1-2.5-2.5S474.7,143.4,476.1,143.4z M490.3,143.4c1.4,0,2.5,1.1,2.5,2.5s-1.1,2.5-2.5,2.5
		c-1.4,0-2.5-1.1-2.5-2.5S488.9,143.4,490.3,143.4z M294.1,173.3c-7.1,0-12.8,5.7-12.8,12.8v17c0,0.8,0.6,1.4,1.4,1.4
		c0.3,0,0.7-0.1,0.9-0.3l6.2-5.3h89c7.1,0,12.8-5.7,12.8-12.8s-5.7-12.8-12.8-12.8H294.1z M259.9,175.7c-7.9,0-14.4,6.5-14.4,14.4
		s6.5,14.4,14.4,14.4c7.9,0,14.4-6.5,14.4-14.4C274.3,182.2,267.8,175.7,259.9,175.7z M294.1,176.1h84.8c5.5,0,10,4.4,10,10
		c0,5.5-4.4,10-10,10h-89.5c-0.3,0-0.7,0.1-0.9,0.3l-4.3,3.7v-14C284.1,180.5,288.5,176.1,294.1,176.1L294.1,176.1z M257,178.9
		c-3,1.8-5.1,5.1-5.1,8.9c0,5.7,4.6,10.3,10.3,10.3c3.8,0,7.1-2.1,8.9-5.1c-1.3,5-5.8,8.7-11.2,8.7c-6.4,0-11.6-5.2-11.6-11.6
		C248.3,184.7,252,180.2,257,178.9z M262.2,180.3c4.1,0,7.5,3.3,7.5,7.5c0,4.1-3.3,7.5-7.5,7.5s-7.5-3.3-7.5-7.5
		C254.8,183.6,258.1,180.3,262.2,180.3z M291.5,184.6c-0.8,0-1.4,0.6-1.4,1.4c0,0.8,0.6,1.4,1.4,1.4c0,0,0,0,0.1,0h61
		c0.8,0,1.4-0.6,1.4-1.4c0-0.8-0.6-1.4-1.4-1.4c0,0,0,0-0.1,0H291.5z M364.6,184.6c-0.8,0-1.4,0.6-1.4,1.4c0,0.8,0.6,1.4,1.4,1.4
		c0,0,0,0,0.1,0h17.5c0.8,0,1.4-0.6,1.4-1.4c0-0.8-0.6-1.4-1.4-1.4c0,0,0,0-0.1,0H364.6z M258.3,223.1c-7.1,0-12.8,5.7-12.8,12.8
		c0,7.1,5.7,12.8,12.8,12.8h178.2l6.2,5.3c0.6,0.5,1.5,0.4,2-0.2c0.2-0.3,0.3-0.6,0.3-0.9v-17c0-7.1-5.7-12.8-12.8-12.8H258.3z
		 M466.5,225.6c-7.9,0-14.4,6.5-14.4,14.4s6.5,14.4,14.4,14.4s14.4-6.5,14.4-14.4c0-4.5-2-8.5-5.3-11.1c-0.7-0.6-1.5-1.1-2.3-1.6
		C471.3,226.2,468.9,225.6,466.5,225.6L466.5,225.6z M258.3,226h174c5.5,0,10,4.4,10,10v14l-4.3-3.7c-0.3-0.2-0.6-0.3-0.9-0.3H258.3
		c-5.5,0-10-4.4-10-10C248.3,230.4,252.7,226,258.3,226z M465.1,228.5V240c0,0.8,0.6,1.4,1.4,1.4H478c-0.7,5.7-5.6,10.2-11.5,10.2
		c-6.4,0-11.6-5.2-11.6-11.6C454.9,234.1,459.3,229.2,465.1,228.5z M467.9,228.7c5.2,0.7,9.2,4.7,9.9,9.9h-9.9V228.7z M255.2,234.5
		c-0.8,0-1.4,0.6-1.4,1.4c0,0.8,0.6,1.4,1.4,1.4c0,0,0,0,0.1,0h61c0.8,0,1.4-0.6,1.4-1.4c0-0.8-0.6-1.4-1.4-1.4c0,0,0,0-0.1,0H255.2
		z M328.3,234.5c-0.8,0-1.4,0.6-1.4,1.4c0,0.8,0.6,1.4,1.4,1.4c0,0,0,0,0.1,0h54c0.8,0,1.4-0.6,1.4-1.4c0-0.8-0.6-1.4-1.4-1.4
		c0,0,0,0-0.1,0H328.3z M393.2,234.5c-0.8,0-1.4,0.6-1.4,1.4c0,0.8,0.6,1.4,1.4,1.4c0,0,0,0,0.1,0H429c0.8,0,1.4-0.6,1.4-1.4
		c0-0.8-0.6-1.4-1.4-1.4c0,0,0,0-0.1,0H393.2z M294.1,273c-7.1,0-12.8,5.7-12.8,12.8v33.3c0,0.8,0.6,1.4,1.4,1.4
		c0.8,0,1.4-0.6,1.4-1.4c0,0,0,0,0-0.1v-33.3c0-5.5,4.4-10,10-10h171.7c5.5,0,10,4.4,10,10v33.3c0,0.8,0.6,1.4,1.4,1.4
		c0.8,0,1.4-0.6,1.4-1.4c0,0,0,0,0-0.1v-33.3c0-7.1-5.7-12.8-12.8-12.8H294.1z M292.5,283.3c-0.8,0-1.4,0.7-1.3,1.5
		c0,0.8,0.7,1.4,1.5,1.3h7.6c0.8,0,1.4-0.6,1.4-1.4c0-0.8-0.6-1.4-1.4-1.4c0,0,0,0-0.1,0h-7.6C292.6,283.3,292.6,283.3,292.5,283.3z
		 M312.2,283.3c-0.8,0-1.4,0.7-1.3,1.5c0,0.8,0.7,1.4,1.5,1.3h112.9h41.3c0.8,0,1.4-0.6,1.4-1.4c0-0.8-0.6-1.4-1.4-1.4
		c0,0,0,0-0.1,0h-41.3H312.3C312.3,283.3,312.2,283.3,312.2,283.3L312.2,283.3z M292.7,291.7c-0.8,0-1.4,0.6-1.4,1.4
		c0,0.8,0.6,1.4,1.4,1.4c0,0,0,0,0.1,0h67.1h65.5h41.3c0.8,0,1.4-0.6,1.4-1.4c0-0.8-0.6-1.4-1.4-1.4c0,0,0,0-0.1,0h-41.3h-65.5
		H292.7z M292.7,300.1c-0.8,0-1.4,0.6-1.4,1.4c0,0.8,0.6,1.4,1.4,1.4c0,0,0,0,0.1,0h67.1h65.5h41.3c0.8,0,1.4-0.6,1.4-1.4
		c0-0.8-0.6-1.4-1.4-1.4c0,0,0,0-0.1,0h-41.3h-65.5H292.7z M259.9,304.7c-0.3,0-0.6,0-0.9,0c-0.1,0-0.1,0-0.2,0
		c-0.2,0-0.4,0-0.5,0.1c-0.3,0-0.6,0.1-1,0.1c-0.1,0-0.3,0-0.4,0.1c-0.3,0.1-0.7,0.2-1,0.3c-0.2,0.1-0.4,0.1-0.6,0.2
		c-0.2,0.1-0.3,0.1-0.4,0.2c-0.8,0.3-1.5,0.7-2.2,1.1c0,0-0.1,0-0.1,0.1c0,0-0.1,0-0.1,0.1c-4.1,2.5-6.9,7.1-6.9,12.3
		c0,0.8,0.6,1.4,1.4,1.4c0.8,0,1.4-0.6,1.4-1.4c0,0,0,0,0-0.1c0-3.4,1.5-6.4,3.8-8.5c0.7,4.5,2.4,8.1,5.3,9.8
		c0.2,0.1,0.5,0.2,0.7,0.2h3.7c0.2,0,0.5-0.1,0.7-0.2c2.8-1.6,4.5-5.3,5.2-9.8c2.3,2.1,3.8,5.1,3.8,8.5c0,0.8,0.6,1.4,1.4,1.4
		c0.8,0,1.4-0.6,1.4-1.4c0,0,0,0,0-0.1c0-5.2-2.8-9.7-6.9-12.3c0,0-0.1-0.1-0.1-0.1c0,0-0.1,0-0.1-0.1c-0.7-0.4-1.5-0.8-2.2-1.1
		c-0.1-0.1-0.3-0.1-0.4-0.2c-0.2-0.1-0.4-0.1-0.6-0.2c-0.3-0.1-0.7-0.2-1.1-0.3c-0.1,0-0.2,0-0.3-0.1c-0.3-0.1-0.6-0.1-0.9-0.1
		c-0.2,0-0.4,0-0.5-0.1c-0.1,0-0.1,0-0.2,0C260.5,304.7,260.2,304.7,259.9,304.7z M259.9,307.5c0.3,0,0.5,0,0.8,0
		c1.5,0.1,2.9,0.7,4.3,1.4c-0.5,4.3-2.1,7.7-3.7,8.8h-2.6c-1.6-1-3.2-4.4-3.7-8.8c1.3-0.7,2.7-1.2,4.3-1.4
		C259.4,307.6,259.6,307.5,259.9,307.5z M292.7,308.4c-0.8,0-1.4,0.6-1.4,1.4c0,0.8,0.6,1.4,1.4,1.4c0,0,0,0,0.1,0h67.1h65.5h41.3
		c0.8,0,1.4-0.6,1.4-1.4c0-0.8-0.6-1.4-1.4-1.4c0,0,0,0-0.1,0h-41.3h-65.5H292.7z M292.7,316.8c-0.8,0-1.4,0.6-1.4,1.4
		c0,0.8,0.6,1.4,1.4,1.4c0,0,0,0,0.1,0h106c0.8,0,1.4-0.6,1.4-1.4c0-0.8-0.6-1.4-1.4-1.4c0,0,0,0-0.1,0H292.7z M410.8,316.8
		c-0.8,0-1.4,0.6-1.4,1.4c0,0.8,0.6,1.4,1.4,1.4c0,0,0,0,0.1,0h14.5h41.3c0.8,0,1.4-0.6,1.4-1.4c0-0.8-0.6-1.4-1.4-1.4
		c0,0,0,0-0.1,0h-41.3H410.8z"/>
</g>
</svg>
