<?xml version="1.0" encoding="UTF-8" standalone="no"?>
<svg
   xmlns:dc="http://purl.org/dc/elements/1.1/"
   xmlns:cc="http://creativecommons.org/ns#"
   xmlns:rdf="http://www.w3.org/1999/02/22-rdf-syntax-ns#"
   xmlns:svg="http://www.w3.org/2000/svg"
   xmlns="http://www.w3.org/2000/svg"
   id="svg930"
   version="1.1"
   viewBox="0 0 98.660195 66.091095"
   height="66.091095mm"
   width="98.660194mm">
  <defs
     id="defs924">
    <clipPath
       id="clipPath960"
       clipPathUnits="userSpaceOnUse">
      <rect
         style="stroke-width:0.26458332"
         y="-69.258926"
         x="-0.37797621"
         height="170.08928"
         width="506.86606"
         id="rect962" />
    </clipPath>
  </defs>
  <metadata
     id="metadata927">
    <rdf:RDF>
      <cc:Work
         rdf:about="">
        <dc:format>image/svg+xml</dc:format>
        <dc:type
           rdf:resource="http://purl.org/dc/dcmitype/StillImage" />
        <dc:title></dc:title>
      </cc:Work>
    </rdf:RDF>
  </metadata>
  <g
     transform="translate(-169.47832,37.646434)"
     id="layer1">
    <path
       id="rect978"
       transform="matrix(0.26458333,0,0,0.26458333,-0.37797621,-69.258926)"
       d="m 927.64258,119.48047 a 1.8899528,1.8899528 0 0 0 -0.24805,0.0215 H 694.42578 a 1.8899528,1.8899528 0 0 0 -1.89062,1.89063 v 183.45508 h -48.66797 a 1.8899528,1.8899528 0 0 0 -1.89063,1.88867 v 60.61328 a 1.890625,1.890625 0 1 0 3.78125,0 v -58.72266 h 46.77735 v 12.53321 h -32.85547 a 1.8899528,1.8899528 0 0 0 -1.89063,1.89062 v 21.31836 a 1.8899528,1.8899528 0 0 0 1.89063,1.89063 h 337.48437 a 1.8899528,1.8899528 0 0 0 1.89063,-1.89063 V 323.0508 a 1.8899528,1.8899528 0 0 0 -1.89063,-1.89062 h -32.84961 v -12.53321 h 46.77145 v 58.72266 a 1.8899528,1.8899528 0 1 0 3.7793,0 v -60.61328 a 1.8899528,1.8899528 0 0 0 -1.8886,-1.88867 H 964.31445 V 156.45312 a 1.8899528,1.8899528 0 0 0 -0.72461,-1.81445 l -34.42968,-34.42969 a 1.8899528,1.8899528 0 0 0 -1.51758,-0.72851 z m -231.32813,3.80078 h 229.4668 v 32.86523 a 1.8899528,1.8899528 0 0 0 1.89063,1.88868 h 32.86328 V 342.48047 H 741.12305 v -11.50195 a 1.8899528,1.8899528 0 0 0 -1.88867,-1.89063 h -26.7754 a 1.8899528,1.8899528 0 0 0 -1.88867,1.89063 v 11.50195 h -14.25586 z m 233.2461,2.67187 28.30273,28.30274 h -28.30273 z m -217.10157,25.27735 a 1.8899528,1.8899528 0 1 0 0,3.7793 h 14.99414 a 1.8899528,1.8899528 0 1 0 0,-3.7793 z m 24.00586,0 a 1.8899528,1.8899528 0 1 0 0,3.7793 h 160.71094 a 1.8899528,1.8899528 0 1 0 0,-3.7793 z m -24.00586,10.07617 a 1.8899528,1.8899528 0 1 0 0,3.7793 h 156.5918 a 1.8899528,1.8899528 0 1 0 0,-3.7793 z m 166.13672,0 a 1.8899528,1.8899528 0 1 0 0,3.7793 h 19.03907 a 1.8899528,1.8899528 0 1 0 0,-3.7793 z m -166.13672,18.39453 a 1.8899528,1.8899528 0 0 0 -1.88867,1.89063 V 222.25 a 1.8899528,1.8899528 0 0 0 1.88867,1.89062 h 231.93164 a 1.8899528,1.8899528 0 0 0 1.89063,-1.89062 v -40.6582 a 1.8899528,1.8899528 0 0 0 -1.89063,-1.89063 z m 21.72071,3.7793 H 922.66797 L 828.42383,200 Z m 208.32226,0.35937 v 36.1543 l -103.13281,-18.07617 87.81445,-15.39649 1.46875,-0.25781 z m -228.15234,0.002 103.11914,18.07812 -103.11914,18.07422 z m 114.06641,19.99609 94.25195,16.52344 H 734.17383 Z M 712.45898,238.75 a 1.8899528,1.8899528 0 0 0 -1.88867,1.88867 v 26.78125 a 1.8899528,1.8899528 0 0 0 1.88867,1.89063 h 26.7754 a 1.8899528,1.8899528 0 0 0 1.88867,-1.89063 V 240.63867 A 1.8899528,1.8899528 0 0 0 739.23438,238.75 Z m 51.57813,0 a 1.8899528,1.8899528 0 1 0 0,3.7793 h 44.55664 a 1.8899528,1.8899528 0 1 0 0,-3.7793 z m 60.81836,0 a 1.8899528,1.8899528 0 1 0 0,3.7793 h 119.53515 a 1.8899528,1.8899528 0 1 0 0,-3.7793 z m -110.50586,3.7793 h 22.99414 v 23.00195 h -22.99414 z m 49.6875,9.61132 a 1.8899528,1.8899528 0 1 0 0,3.7793 h 105.19141 19.44336 55.71874 a 1.8899528,1.8899528 0 1 0 0,-3.7793 h -55.71874 -19.44336 z m 0,13.39063 a 1.8899528,1.8899528 0 1 0 0,3.7793 h 53.42187 a 1.8899528,1.8899528 0 1 0 0,-3.7793 z m -17.39844,10.44336 a 1.8899528,1.8899528 0 0 0 -0.19336,0.002 1.8899528,1.8899528 0 0 0 -1.27734,0.61133 l -6.90625,7.33203 h -25.80274 a 1.8899528,1.8899528 0 0 0 -1.88867,1.88867 v 9.16016 a 1.8899528,1.8899528 0 0 0 0,0.80664 v 16.81445 a 1.8899528,1.8899528 0 0 0 1.88867,1.89063 h 26.7754 a 1.8899528,1.8899528 0 0 0 1.88867,-1.89063 v -26.19922 l 6.79101,-7.21093 a 1.8899528,1.8899528 0 0 0 -1.27539,-3.20508 z m 17.39844,7.94531 a 1.8899528,1.8899528 0 1 0 0,3.7793 h 180.35351 a 1.8899528,1.8899528 0 1 0 0,-3.7793 z m -49.6875,3.7793 h 20.35156 l -12.68945,13.4707 -7.66211,-6.62109 z m 22.99414,2.70508 v 20.29687 h -22.99414 v -11.16015 l 6.5625,5.66796 a 1.8899528,1.8899528 0 0 0 2.61328,-0.13281 z m 26.69336,6.90625 a 1.8899528,1.8899528 0 1 0 0,3.77929 h 180.35351 a 1.8899528,1.8899528 0 1 0 0,-3.77929 z m 0,13.39062 a 1.8899528,1.8899528 0 1 0 0,3.7793 h 87.00977 a 1.8899528,1.8899528 0 1 0 0,-3.7793 z m -102.46875,14.23828 h 30.9668 v 17.54102 h -30.9668 z m 302.74609,0 h 30.96094 v 17.54102 h -30.96094 z m -200.27734,4.14844 a 1.890625,1.890625 0 1 0 0,3.78125 h 180.35351 a 1.890625,1.890625 0 1 0 0,-3.78125 z m -49.6875,3.78125 h 22.99414 v 9.61133 h -22.99414 z"
       style="color:#000000;font-style:normal;font-variant:normal;font-weight:normal;font-stretch:normal;font-size:medium;line-height:normal;font-family:sans-serif;font-variant-ligatures:normal;font-variant-position:normal;font-variant-caps:normal;font-variant-numeric:normal;font-variant-alternates:normal;font-feature-settings:normal;text-indent:0;text-align:start;text-decoration:none;text-decoration-line:none;text-decoration-style:solid;text-decoration-color:#000000;letter-spacing:normal;word-spacing:normal;text-transform:none;writing-mode:lr-tb;direction:ltr;text-orientation:mixed;dominant-baseline:auto;baseline-shift:baseline;text-anchor:start;white-space:normal;shape-padding:0;clip-rule:nonzero;display:inline;overflow:visible;visibility:visible;opacity:1;isolation:auto;mix-blend-mode:normal;color-interpolation:sRGB;color-interpolation-filters:linearRGB;solid-color:#000000;solid-opacity:1;vector-effect:none;fill:#7e0104;fill-opacity:1;fill-rule:nonzero;stroke:none;stroke-width:3.77952766;stroke-linecap:round;stroke-linejoin:round;stroke-miterlimit:4;stroke-dasharray:none;stroke-dashoffset:0;stroke-opacity:1;color-rendering:auto;image-rendering:auto;shape-rendering:auto;text-rendering:auto;enable-background:accumulate" />
  </g>
</svg>
