<?xml version="1.0" encoding="UTF-8" standalone="no"?>
<svg
   xmlns:dc="http://purl.org/dc/elements/1.1/"
   xmlns:cc="http://creativecommons.org/ns#"
   xmlns:rdf="http://www.w3.org/1999/02/22-rdf-syntax-ns#"
   xmlns:svg="http://www.w3.org/2000/svg"
   xmlns="http://www.w3.org/2000/svg"
   id="svg929"
   version="1.1"
   viewBox="0 0 442.61484 187.67743"
   height="187.67743mm"
   width="442.61484mm">
  <defs
     id="defs923" />
  <metadata
     id="metadata926">
    <rdf:RDF>
      <cc:Work
         rdf:about="">
        <dc:format>image/svg+xml</dc:format>
        <dc:type
           rdf:resource="http://purl.org/dc/dcmitype/StillImage" />
        <dc:title></dc:title>
      </cc:Work>
    </rdf:RDF>
  </metadata>
  <g
     transform="translate(109.42743,-20.83232)"
     id="layer1">
    <path
       id="rect9643"
       transform="scale(0.26458333)"
       d="m 450.90039,78.736328 c -22.71837,23.741062 -36.67969,55.929492 -36.67969,91.371092 0,72.98935 59.204,132.20313 132.19336,132.20313 72.98933,0 132.20313,-59.21378 132.20313,-132.20313 0,-35.4416 -13.96285,-67.63003 -36.6836,-91.371092 h -5.27539 c 23.57088,23.278252 38.17969,55.609902 38.17969,91.371092 0,70.94675 -57.47711,128.42383 -128.42383,128.42383 C 475.4673,298.53125 418,241.05417 418,170.10742 c 0,-35.76106 14.60557,-68.09286 38.17383,-91.371092 z m 20.36719,0 c -26.2748,21.636842 -43.06376,54.379892 -43.16602,91.035152 a 1.8899528,1.8899528 0 0 0 0,0.66016 c 0.17518,65.06142 52.91662,117.80873 117.97656,117.99024 a 1.8899528,1.8899528 0 0 0 0.66016,0 c 65.0614,-0.17518 117.80873,-52.91858 117.99024,-117.97852 a 1.8899528,1.8899528 0 0 0 0,-0.6582 C 664.6304,133.12511 647.84071,100.37587 621.5625,78.736328 h -6.06836 c 27.14801,20.55225 44.84259,52.927832 45.43359,89.482422 h -27.19335 a 1.8899528,1.8899528 0 1 0 0,3.7793 h 27.19335 c -0.99918,61.77778 -50.84527,111.62386 -112.62304,112.62304 v -27.19336 a 1.8899528,1.8899528 0 0 0 -1.91992,-1.91015 1.8899528,1.8899528 0 0 0 -1.85938,1.91015 v 27.19336 c -61.77813,-0.99881 -111.62582,-50.84502 -112.625,-112.62304 h 27.19336 a 1.8899528,1.8899528 0 1 0 0,-3.7793 h -27.19336 c 0.59101,-36.5548 18.28692,-68.930194 45.43555,-89.482422 z m 48.70703,0 2.01367,7.513672 a 1.8910163,1.8910163 0 0 0 3.6543,-0.974609 l -1.75196,-6.539063 z m 24.55078,0 v 4.050781 a 1.8899528,1.8899528 0 1 0 3.7793,0 v -4.050781 z m 24.42188,0 -1.75196,6.539063 A 1.8899528,1.8899528 0 1 0 570.8418,86.25 l 2.01172,-7.513672 z m 28.43945,1.232422 a 1.8899528,1.8899528 0 0 0 -1.66797,0.974609 l -7.2793,12.59961 a 1.8899528,1.8899528 0 1 0 3.27149,1.890625 l 7.27734,-12.601563 a 1.8899528,1.8899528 0 0 0 -1.60156,-2.863281 z m -101.9961,0.0059 a 1.8899528,1.8899528 0 0 0 -1.54882,2.857422 l 7.27734,12.601563 a 1.8899528,1.8899528 0 1 0 3.27148,-1.890625 L 497.11914,80.9434 a 1.8899528,1.8899528 0 0 0 -1.72852,-0.96875 z m -21.03124,16.189453 a 1.8899528,1.8899528 0 0 0 -1.3125,3.248047 l 10.28906,10.29101 a 1.8906798,1.8906798 0 1 0 2.67383,-2.67382 L 475.71875,96.740234 a 1.8899528,1.8899528 0 0 0 -1.35937,-0.576172 z m 144.05859,0 a 1.8899528,1.8899528 0 0 0 -1.29883,0.576172 L 606.82812,107.0293 a 1.8899905,1.8899905 0 1 0 2.67188,2.67382 l 10.29102,-10.291011 a 1.8899528,1.8899528 0 0 0 -1.37305,-3.248047 z M 458.04883,117.26953 a 1.8899528,1.8899528 0 0 0 -0.80664,3.54297 l 12.60742,7.27148 a 1.8899528,1.8899528 0 1 0 1.89062,-3.27148 l -12.60937,-7.27734 a 1.8899528,1.8899528 0 0 0 -0.89258,-0.26563 1.8899528,1.8899528 0 0 0 -0.18945,0 z m 176.67578,0 a 1.8899528,1.8899528 0 0 0 -1.02539,0.26563 l -12.60156,7.27734 a 1.8899528,1.8899528 0 1 0 1.88867,3.27148 l 12.60156,-7.27148 a 1.8899528,1.8899528 0 0 0 -0.86328,-3.54297 z m -146.59375,17.26172 a 1.8899528,1.8899528 0 0 0 -0.1875,0.004 1.8899528,1.8899528 0 0 0 -0.80469,3.53515 l 49.86328,28.78711 c -0.35592,1.02134 -0.56054,2.11095 -0.56054,3.25 0,5.48444 4.48818,9.97461 9.97265,9.97461 5.48444,0 9.97461,-4.49017 9.97461,-9.97461 0,-1.13905 -0.20462,-2.22866 -0.56055,-3.25 l 33.94141,-19.5957 a 1.8899528,1.8899528 0 1 0 -1.89062,-3.27149 l -33.94727,19.59961 c -1.83219,-2.10524 -4.52345,-3.44726 -7.51758,-3.44726 -2.99449,0 -5.68537,1.3416 -7.51758,3.44726 l -49.86914,-28.79687 a 1.8899528,1.8899528 0 0 0 -0.89648,-0.26172 z m 156.75391,7.31055 a 1.8899528,1.8899528 0 0 0 -0.0469,0.002 1.8899528,1.8899528 0 0 0 -0.50977,0.0723 l -14.05468,3.76562 a 1.8920265,1.8920265 0 1 0 0.98242,3.6543 l 14.05469,-3.76563 a 1.8899528,1.8899528 0 0 0 -0.42578,-3.72851 z m -196.38282,0.0742 -0.97461,3.65429 14.05469,3.76563 0.97461,-3.6543 z m -713.49023,2.99804 v 1.88867 33.73438 l -25.96094,0.20117 -0.28125,1.53516 -36.31641,198.35937 h -8.43164 v -58.27343 -68.18555 -23.48242 a 1.8899528,1.8899528 0 0 0 -1.89062,-1.89063 h -54.04297 a 1.8899528,1.8899528 0 0 0 -1.88867,1.89063 v 23.48242 68.18555 58.27343 h -19.7832 v 3.7793 h 85.3457 l -0.041,0.2207 28.36719,-0.2207 h 204.865235 l 44.953125,0.22851 -0.0293,-0.22851 h 190.85155 v 17.65039 h -554.3125 v 3.7793 h 26.5371 v 17.65039 h -26.5371 v 3.77929 h 10.6289 v 17.64258 h -10.6289 v 3.7793 h 14.4082 v -21.42188 h 15.9082 V 405.8418 h 364.621096 v 21.42968 h 15.9160152 v 21.42188 H 44.394531 V 427.27148 H 60.302734 V 405.8418 H 144.50781 V 380.63281 H 61.044922 C 74.062191,369.5611 81.691393,353.27623 81.716797,336.00195 v -0.008 c -0.01323,-7.55848 -1.480941,-15.04282 -4.332031,-22.04297 l -0.480469,-1.17383 H 38.208984 v -6.62109 h 16.033204 c 8.326831,-7.2e-4 15.116458,-6.79036 15.117187,-15.11719 v -23.3789 c 0.123213,-8.49996 -6.845814,-15.46802 -15.345703,-15.33985 -8.323714,0.12522 -15.011279,7.01607 -14.890625,15.33985 v 8.25976 h -0.869141 c -0.03137,-0.54453 0.02152,-1.0919 -0.06836,-1.63086 l 0.02344,0.31055 v -25.76367 c 0.124278,-8.49907 -6.840795,-15.4655 -15.339843,-15.33985 h -0.0078 l -0.419922,0.008 -0.310547,0.15429 c -7.960656,0.52447 -14.2750898,7.11314 -14.1582028,15.17774 v 12.76367 h -1.078125 v -3.79492 c 0.1193954,-8.49738 -6.8504179,-15.4601 -15.3476712,-15.33202 -8.321962,0.124 -15.005598,7.00996 -14.888672,15.33203 v 18.91211 c 7.54e-4,8.32771 6.791423,15.1197 15.1191408,15.11914 H 7.9277344 c 0.025231,0.44553 0.0093,0.89243 0.044922,1.33594 v 19.60546 H -30.886719 l -0.478515,1.17383 c -2.850398,7.00029 -4.32144,14.48462 -4.333985,22.04297 v 0.008 c 0.01005,17.26417 7.611703,33.54753 20.605469,44.63086 h -35.521484 l -29.507813,-226.64648 -1.654297,-0.008 -44.843746,-0.22852 5.10351,39.19141 h -54.08984 v 1.88867 17.00781 1.89063 24.25586 11.57421 1.89063 26.89258 102.29101 h -8.46094 V 144.91406 Z m 3.7793,3.7793 h 73.36132 v 46.22461 h -73.36132 V 183.9375 l 0.6289,-3.43555 -0.6289,0.006 z m 138.89062,8.85742 38.873048,0.19922 13.972656,107.30469 h -38.845704 z m 668.73242,6.3711 c 1.61262,0 3.07043,0.60722 4.16797,1.60156 l -4.16797,2.40625 -4.16601,-2.40625 c 1.09754,-0.99434 2.55338,-1.60156 4.16601,-1.60156 z m -6.05273,4.875 5.10937,2.94921 a 1.8899528,1.8899528 0 0 0 1.88868,0 l 5.10937,-2.94921 c 0.0897,0.42216 0.13867,0.85985 0.13867,1.31054 0,3.44183 -2.75153,6.19336 -6.19336,6.19336 -3.44186,0 -6.19336,-2.75153 -6.19336,-6.19336 0,-0.45084 0.0508,-0.88825 0.14063,-1.31054 z m -805.49024,15.51367 -15.60547,85.26953 h -22.63671 l 15.57421,-85.0918 z m 1221.29102,0.16211 a 1.8899528,1.8899528 0 0 0 -1.89063,1.89062 v 224.63086 a 1.8899528,1.8899528 0 0 0 1.89063,1.89063 h 301.24019 a 1.8899528,1.8899528 0 0 0 1.8887,-1.89063 V 186.36328 a 1.8899528,1.8899528 0 0 0 -1.8887,-1.89062 z m 1.88867,3.78125 H 1255.5117 V 409.10352 H 958.05078 Z m -495.9668,2.56054 a 1.8899528,1.8899528 0 0 0 -0.50195,0.0742 l -14.05469,3.76367 a 1.8899528,1.8899528 0 1 0 0.97461,3.64649 l 14.05469,-3.76367 a 1.8899528,1.8899528 0 0 0 -0.47266,-3.72071 z m 169.17188,0.0742 -0.98242,3.64649 14.05468,3.76367 0.98243,-3.64649 z m 335.875,4.88672 a 1.8899528,1.8899528 0 0 0 -1.89063,1.88867 v 202.0293 a 1.8899528,1.8899528 0 0 0 1.89063,1.88867 h 279.30864 a 1.8899528,1.8899528 0 0 0 1.8906,-1.88867 v -202.0293 a 1.8899528,1.8899528 0 0 0 -1.8906,-1.88867 z m -1138.95898,0.94531 h 50.26367 v 15.11719 h -50.26367 z m -89.38086,1.97852 h 73.36132 v 64.07422 h -73.36132 z m 1230.23046,0.85547 H 1244.5488 V 397.80273 H 969.02148 Z m -450.50976,1.55664 a 1.8899528,1.8899528 0 0 0 -1.89063,1.89062 v 15.90821 a 1.8899528,1.8899528 0 0 0 1.89063,1.88867 h 55.80664 a 1.8899528,1.8899528 0 0 0 1.89062,-1.88867 v -15.90821 a 1.8899528,1.8899528 0 0 0 -1.89062,-1.89062 z m -774.57813,1.45703 a 2.0759001,2.0759001 0 0 0 -2.07617,2.07617 2.0759001,2.0759001 0 0 0 2.07617,2.07617 2.0759001,2.0759001 0 0 0 2.07618,-2.07617 2.0759001,2.0759001 0 0 0 -2.07618,-2.07617 z m 7.88477,0 a 2.0759001,2.0759001 0 0 0 -2.07617,2.07617 2.0759001,2.0759001 0 0 0 2.07617,2.07617 2.0759001,2.0759001 0 0 0 2.07617,-2.07617 2.0759001,2.0759001 0 0 0 -2.07617,-2.07617 z m 7.88476,0 a 2.0759001,2.0759001 0 0 0 -2.07617,2.07617 2.0759001,2.0759001 0 0 0 2.07617,2.07617 2.0759001,2.0759001 0 0 0 2.07618,-2.07617 2.0759001,2.0759001 0 0 0 -2.07618,-2.07617 z m 7.88477,0 a 2.0759001,2.0759001 0 0 0 -2.07617,2.07617 2.0759001,2.0759001 0 0 0 2.07617,2.07617 2.0759001,2.0759001 0 0 0 2.07617,-2.07617 2.0759001,2.0759001 0 0 0 -2.07617,-2.07617 z m 7.88477,0 a 2.0759001,2.0759001 0 0 0 -2.07618,2.07617 2.0759001,2.0759001 0 0 0 2.07618,2.07617 2.0759001,2.0759001 0 0 0 2.07617,-2.07617 2.0759001,2.0759001 0 0 0 -2.07617,-2.07617 z m 7.88476,0 a 2.0759001,2.0759001 0 0 0 -2.07422,2.07617 2.0759001,2.0759001 0 0 0 2.07422,2.07617 2.0759001,2.0759001 0 0 0 2.07617,-2.07617 2.0759001,2.0759001 0 0 0 -2.07617,-2.07617 z m 7.88672,0 a 2.0759001,2.0759001 0 0 0 -2.07617,2.07617 2.0759001,2.0759001 0 0 0 2.07617,2.07617 2.0759001,2.0759001 0 0 0 2.07422,-2.07617 2.0759001,2.0759001 0 0 0 -2.07422,-2.07617 z m 7.88477,0 a 2.0759001,2.0759001 0 0 0 -2.07618,2.07617 2.0759001,2.0759001 0 0 0 2.07618,2.07617 2.0759001,2.0759001 0 0 0 2.07617,-2.07617 2.0759001,2.0759001 0 0 0 -2.07617,-2.07617 z m 7.88476,0 a 2.0759001,2.0759001 0 0 0 -2.07617,2.07617 2.0759001,2.0759001 0 0 0 2.07617,2.07617 2.0759001,2.0759001 0 0 0 2.07617,-2.07617 2.0759001,2.0759001 0 0 0 -2.07617,-2.07617 z m -72.00195,2.01562 v 61.96875 52.64844 1.88867 15.10352 44.43945 h -32.22656 z m 785.38867,0.3086 h 52.02734 v 12.12695 h -52.02734 z m 456.82813,0.98047 a 1.8899528,1.8899528 0 0 0 -1.88868,1.89062 v 67.45117 a 1.8916701,1.8916701 0 0 0 0,0.0899 v 114.28125 a 1.8899528,1.8899528 0 0 0 1.88868,1.89062 H 1236.334 a 1.8899528,1.8899528 0 0 0 1.8887,-1.89062 V 313.5 a 1.8899528,1.8899528 0 0 0 0,-0.55859 v -19.13672 a 1.8899528,1.8899528 0 0 0 0,-0.5586 v -85.48242 a 1.8899528,1.8899528 0 0 0 -1.8887,-1.89062 z m -450.36914,3.18945 a 1.8899528,1.8899528 0 1 0 0,3.7793 h 39.10937 a 1.8899528,1.8899528 0 1 0 0,-3.7793 z m 452.25976,0.58984 h 255.32426 v 80.91407 c -1.4148,-0.49362 -2.9265,-0.78334 -4.6055,-0.78321 -6.9816,0 -12.756,4.81407 -14.7559,11.39844 -3.1434,1.16515 -5.7303,3.32602 -7.5742,6.11133 -0.6735,-0.12068 -1.3474,-0.23331 -2.0312,-0.26563 -2.9293,-4.21039 -7.5608,-6.9542 -12.7403,-6.96093 a 1.8899528,1.8899528 0 0 0 -0.01,0 c -0.8063,0 -1.5913,0.13259 -2.3769,0.25781 -2.9232,-2.82143 -6.7219,-4.58476 -10.8145,-4.5918 -7.7759,-6.1e-4 -13.9749,5.77294 -15.2578,13.19141 -0.9098,-0.42714 -1.7766,-0.94035 -2.7539,-1.1875 -2.8236,-4.77964 -7.806,-7.9195 -13.4063,-7.91992 -5.729,0 -10.6605,3.37477 -13.4336,8.28906 -1.5501,-0.49579 -3.1206,-0.96645 -4.7539,-0.9668 -2.8687,0.008 -5.5432,1.02223 -7.9726,2.48047 -1.4294,-7.23768 -7.5309,-12.82958 -15.1778,-12.83008 -7.0165,0.01 -12.8351,4.76139 -14.83,11.27149 -2.5345,-1.6463 -5.3688,-2.78359 -8.4297,-2.78907 a 1.8899528,1.8899528 0 0 0 -0.024,0 c -0.8993,0.008 -1.7948,0.16526 -2.6875,0.32422 -2.8999,-2.68099 -6.6069,-4.34279 -10.5839,-4.34765 -4.1714,-3.3e-4 -8.0309,1.1018 -10.918,3.41797 -1.5461,1.24035 -2.7649,2.85078 -3.5762,4.73632 l -32.5801,-61.07617 -7.8183,13.50195 -16.25392,-28.1621 -19.96094,34.5625 z m -1235.18555,1.61328 a 2.0759001,2.0759001 0 0 0 -2.07617,2.07618 2.0759001,2.0759001 0 0 0 2.07617,2.07617 2.0759001,2.0759001 0 0 0 2.07618,-2.07617 2.0759001,2.0759001 0 0 0 -2.07618,-2.07618 z m 7.88477,0 a 2.0759001,2.0759001 0 0 0 -2.07617,2.07618 2.0759001,2.0759001 0 0 0 2.07617,2.07617 2.0759001,2.0759001 0 0 0 2.07617,-2.07617 2.0759001,2.0759001 0 0 0 -2.07617,-2.07618 z m 7.88476,0 a 2.0759001,2.0759001 0 0 0 -2.07617,2.07618 2.0759001,2.0759001 0 0 0 2.07617,2.07617 2.0759001,2.0759001 0 0 0 2.07618,-2.07617 2.0759001,2.0759001 0 0 0 -2.07618,-2.07618 z m 7.88477,0 a 2.0759001,2.0759001 0 0 0 -2.07617,2.07618 2.0759001,2.0759001 0 0 0 2.07617,2.07617 2.0759001,2.0759001 0 0 0 2.07617,-2.07617 2.0759001,2.0759001 0 0 0 -2.07617,-2.07618 z m 7.88477,0 a 2.0759001,2.0759001 0 0 0 -2.07618,2.07618 2.0759001,2.0759001 0 0 0 2.07618,2.07617 2.0759001,2.0759001 0 0 0 2.07617,-2.07617 2.0759001,2.0759001 0 0 0 -2.07617,-2.07618 z m 7.88476,0 a 2.0759001,2.0759001 0 0 0 -2.07422,2.07618 2.0759001,2.0759001 0 0 0 2.07422,2.07617 2.0759001,2.0759001 0 0 0 2.07617,-2.07617 2.0759001,2.0759001 0 0 0 -2.07617,-2.07618 z m 7.88672,0 a 2.0759001,2.0759001 0 0 0 -2.07617,2.07618 2.0759001,2.0759001 0 0 0 2.07617,2.07617 2.0759001,2.0759001 0 0 0 2.07422,-2.07617 2.0759001,2.0759001 0 0 0 -2.07422,-2.07618 z m 7.88477,0 a 2.0759001,2.0759001 0 0 0 -2.07618,2.07618 2.0759001,2.0759001 0 0 0 2.07618,2.07617 2.0759001,2.0759001 0 0 0 2.07617,-2.07617 2.0759001,2.0759001 0 0 0 -2.07617,-2.07618 z m 7.88476,0 a 2.0759001,2.0759001 0 0 0 -2.07617,2.07618 2.0759001,2.0759001 0 0 0 2.07617,2.07617 2.0759001,2.0759001 0 0 0 2.07617,-2.07617 2.0759001,2.0759001 0 0 0 -2.07617,-2.07618 z m 663.86328,0.60157 a 1.8899528,1.8899528 0 0 0 -1.02734,0.26562 l -12.60742,7.2793 a 1.8899528,1.8899528 0 1 0 1.88867,3.26953 l 12.60937,-7.27148 a 1.8899528,1.8899528 0 0 0 -0.86328,-3.54297 z m 151.20899,0 a 1.8899528,1.8899528 0 0 0 -0.98828,3.54297 l 12.60156,7.27148 a 1.8899528,1.8899528 0 1 0 1.88867,-3.26953 l -12.60156,-7.2793 a 1.8899528,1.8899528 0 0 0 -0.90039,-0.26562 z m -793.91406,3.75 h 50.26367 v 18.58789 h -50.26367 z m -84.23829,4.3457 a 2.0759001,2.0759001 0 0 0 -2.07617,2.07617 2.0759001,2.0759001 0 0 0 2.07617,2.07617 2.0759001,2.0759001 0 0 0 2.07618,-2.07617 2.0759001,2.0759001 0 0 0 -2.07618,-2.07617 z m 7.88477,0 a 2.0759001,2.0759001 0 0 0 -2.07617,2.07617 2.0759001,2.0759001 0 0 0 2.07617,2.07617 2.0759001,2.0759001 0 0 0 2.07617,-2.07617 2.0759001,2.0759001 0 0 0 -2.07617,-2.07617 z m 7.88476,0 a 2.0759001,2.0759001 0 0 0 -2.07617,2.07617 2.0759001,2.0759001 0 0 0 2.07617,2.07617 2.0759001,2.0759001 0 0 0 2.07618,-2.07617 2.0759001,2.0759001 0 0 0 -2.07618,-2.07617 z m 7.88477,0 a 2.0759001,2.0759001 0 0 0 -2.07617,2.07617 2.0759001,2.0759001 0 0 0 2.07617,2.07617 2.0759001,2.0759001 0 0 0 2.07617,-2.07617 2.0759001,2.0759001 0 0 0 -2.07617,-2.07617 z m 7.88477,0 a 2.0759001,2.0759001 0 0 0 -2.07618,2.07617 2.0759001,2.0759001 0 0 0 2.07618,2.07617 2.0759001,2.0759001 0 0 0 2.07617,-2.07617 2.0759001,2.0759001 0 0 0 -2.07617,-2.07617 z m 7.88476,0 a 2.0759001,2.0759001 0 0 0 -2.07422,2.07617 2.0759001,2.0759001 0 0 0 2.07422,2.07617 2.0759001,2.0759001 0 0 0 2.07617,-2.07617 2.0759001,2.0759001 0 0 0 -2.07617,-2.07617 z m 7.88672,0 a 2.0759001,2.0759001 0 0 0 -2.07617,2.07617 2.0759001,2.0759001 0 0 0 2.07617,2.07617 2.0759001,2.0759001 0 0 0 2.07422,-2.07617 2.0759001,2.0759001 0 0 0 -2.07422,-2.07617 z m 7.88477,0 a 2.0759001,2.0759001 0 0 0 -2.07618,2.07617 2.0759001,2.0759001 0 0 0 2.07618,2.07617 2.0759001,2.0759001 0 0 0 2.07617,-2.07617 2.0759001,2.0759001 0 0 0 -2.07617,-2.07617 z m 7.88476,0 a 2.0759001,2.0759001 0 0 0 -2.07617,2.07617 2.0759001,2.0759001 0 0 0 2.07617,2.07617 2.0759001,2.0759001 0 0 0 2.07617,-2.07617 2.0759001,2.0759001 0 0 0 -2.07617,-2.07617 z m 75.20117,1.63867 20.710941,159.03125 h -20.710941 z m 1244.26176,0.91797 c -15.2476,0 -27.6524,12.4048 -27.6524,27.65235 0,15.24753 12.4048,27.64648 27.6524,27.64648 15.2475,0 27.6445,-12.39895 27.6445,-27.64648 0,-15.24755 -12.397,-27.65235 -27.6445,-27.65235 z m 0,3.7793 c 13.2049,0 23.8652,10.66811 23.8652,23.87305 0,13.20492 -10.6603,23.86523 -23.8652,23.86523 -13.205,0 -23.8731,-10.66031 -23.8731,-23.86523 0,-13.20494 10.6681,-23.87305 23.8731,-23.87305 z m -1382.54301,2.36133 a 2.0759001,2.0759001 0 0 0 -2.07617,2.07617 2.0759001,2.0759001 0 0 0 2.07617,2.07422 2.0759001,2.0759001 0 0 0 2.07618,-2.07422 2.0759001,2.0759001 0 0 0 -2.07618,-2.07617 z m 7.88477,0 a 2.0759001,2.0759001 0 0 0 -2.07617,2.07617 2.0759001,2.0759001 0 0 0 2.07617,2.07422 2.0759001,2.0759001 0 0 0 2.07617,-2.07422 2.0759001,2.0759001 0 0 0 -2.07617,-2.07617 z m 7.88476,0 a 2.0759001,2.0759001 0 0 0 -2.07617,2.07617 2.0759001,2.0759001 0 0 0 2.07617,2.07422 2.0759001,2.0759001 0 0 0 2.07618,-2.07422 2.0759001,2.0759001 0 0 0 -2.07618,-2.07617 z m 7.88477,0 a 2.0759001,2.0759001 0 0 0 -2.07617,2.07617 2.0759001,2.0759001 0 0 0 2.07617,2.07422 2.0759001,2.0759001 0 0 0 2.07617,-2.07422 2.0759001,2.0759001 0 0 0 -2.07617,-2.07617 z m 7.88477,0 a 2.0759001,2.0759001 0 0 0 -2.07618,2.07617 2.0759001,2.0759001 0 0 0 2.07618,2.07422 2.0759001,2.0759001 0 0 0 2.07617,-2.07422 2.0759001,2.0759001 0 0 0 -2.07617,-2.07617 z m 7.88476,0 a 2.0759001,2.0759001 0 0 0 -2.07422,2.07617 2.0759001,2.0759001 0 0 0 2.07422,2.07422 2.0759001,2.0759001 0 0 0 2.07617,-2.07422 2.0759001,2.0759001 0 0 0 -2.07617,-2.07617 z m 7.88672,0 a 2.0759001,2.0759001 0 0 0 -2.07617,2.07617 2.0759001,2.0759001 0 0 0 2.07617,2.07422 2.0759001,2.0759001 0 0 0 2.07422,-2.07422 2.0759001,2.0759001 0 0 0 -2.07422,-2.07617 z m 7.88477,0 a 2.0759001,2.0759001 0 0 0 -2.07618,2.07617 2.0759001,2.0759001 0 0 0 2.07618,2.07422 2.0759001,2.0759001 0 0 0 2.07617,-2.07422 2.0759001,2.0759001 0 0 0 -2.07617,-2.07617 z m 7.88476,0 a 2.0759001,2.0759001 0 0 0 -2.07617,2.07617 2.0759001,2.0759001 0 0 0 2.07617,2.07422 2.0759001,2.0759001 0 0 0 2.07617,-2.07422 2.0759001,2.0759001 0 0 0 -2.07617,-2.07617 z m 677.62305,1.28515 a 1.8899528,1.8899528 0 0 0 -1.30078,0.57617 l -10.28906,10.29102 a 1.8899528,1.8899528 0 1 0 2.67187,2.67188 l 10.29102,-10.29102 a 1.8899528,1.8899528 0 0 0 -1.37305,-3.24805 z m 123.50586,0 a 1.8899528,1.8899528 0 0 0 -1.31446,3.24805 l 10.29102,10.29102 a 1.8899528,1.8899528 0 1 0 2.67188,-2.67188 L 609.5,230.52148 a 1.8899528,1.8899528 0 0 0 -1.35742,-0.57617 z m -998.16406,2.63672 h 50.26171 v 19.70117 h -50.26171 z m 412.941402,4.69336 c 6.417369,-0.0949 11.603713,5.08457 11.509766,11.50195 v 0.0137 25.96289 l 0.0293,0.15429 c 0.151884,0.90912 0.18901,1.83499 0.117188,2.75391 l -0.16211,2.03711 h 8.490235 v -12.08399 -0.0137 c -0.09105,-6.28211 4.885902,-11.40745 11.167969,-11.50195 6.418019,-0.0968 11.600849,5.08388 11.507812,11.50195 v 0.0137 23.42383 c -5.48e-4,6.28446 -5.053433,11.33735 -11.33789,11.33789 h -19.8125 v 10.40039 H 11.751953 v -19.75976 l -0.0293,-0.15625 c -0.152704,-0.91241 -0.191787,-1.84533 -0.11914,-2.76758 l 0.164062,-2.03711 H -8.2226562 c -6.2851398,4.3e-4 -11.3392748,-5.0547 -11.3398438,-11.33984 v -18.95508 -0.008 c -0.08824,-6.2808 4.889205,-11.40837 11.1699219,-11.50196 6.4159832,-0.0967 11.5979759,5.08588 11.5078125,11.50196 v 0.008 7.61719 H 11.751953 V 248.791 248.7773 c -0.09106,-6.28278 4.885228,-11.40837 11.167969,-11.50195 z m -278.986332,0.0801 a 2.0759001,2.0759001 0 0 0 -2.07617,2.07617 2.0759001,2.0759001 0 0 0 2.07617,2.07617 2.0759001,2.0759001 0 0 0 2.07618,-2.07617 2.0759001,2.0759001 0 0 0 -2.07618,-2.07617 z m 7.88477,0 a 2.0759001,2.0759001 0 0 0 -2.07617,2.07617 2.0759001,2.0759001 0 0 0 2.07617,2.07617 2.0759001,2.0759001 0 0 0 2.07617,-2.07617 2.0759001,2.0759001 0 0 0 -2.07617,-2.07617 z m 7.88476,0 a 2.0759001,2.0759001 0 0 0 -2.07617,2.07617 2.0759001,2.0759001 0 0 0 2.07617,2.07617 2.0759001,2.0759001 0 0 0 2.07618,-2.07617 2.0759001,2.0759001 0 0 0 -2.07618,-2.07617 z m 7.88477,0 a 2.0759001,2.0759001 0 0 0 -2.07617,2.07617 2.0759001,2.0759001 0 0 0 2.07617,2.07617 2.0759001,2.0759001 0 0 0 2.07617,-2.07617 2.0759001,2.0759001 0 0 0 -2.07617,-2.07617 z m 7.88477,0 a 2.0759001,2.0759001 0 0 0 -2.07618,2.07617 2.0759001,2.0759001 0 0 0 2.07618,2.07617 2.0759001,2.0759001 0 0 0 2.07617,-2.07617 2.0759001,2.0759001 0 0 0 -2.07617,-2.07617 z m 7.88476,0 a 2.0759001,2.0759001 0 0 0 -2.07422,2.07617 2.0759001,2.0759001 0 0 0 2.07422,2.07617 2.0759001,2.0759001 0 0 0 2.07617,-2.07617 2.0759001,2.0759001 0 0 0 -2.07617,-2.07617 z m 7.88672,0 a 2.0759001,2.0759001 0 0 0 -2.07617,2.07617 2.0759001,2.0759001 0 0 0 2.07617,2.07617 2.0759001,2.0759001 0 0 0 2.07422,-2.07617 2.0759001,2.0759001 0 0 0 -2.07422,-2.07617 z m 7.88477,0 a 2.0759001,2.0759001 0 0 0 -2.07618,2.07617 2.0759001,2.0759001 0 0 0 2.07618,2.07617 2.0759001,2.0759001 0 0 0 2.07617,-2.07617 2.0759001,2.0759001 0 0 0 -2.07617,-2.07617 z m 7.88476,0 a 2.0759001,2.0759001 0 0 0 -2.07617,2.07617 2.0759001,2.0759001 0 0 0 2.07617,2.07617 2.0759001,2.0759001 0 0 0 2.07617,-2.07617 2.0759001,2.0759001 0 0 0 -2.07617,-2.07617 z m 21.15821,0.62891 h 50.26367 v 11.57421 h -50.26367 z m 1170.90039,3.24023 16.25583,28.15625 7.6914,-13.27344 31.7422,59.50781 a 1.8899528,1.8899528 0 0 0 0.1914,0.35938 l 5.9766,11.20508 a 1.8899528,1.8899528 0 0 0 0.3086,0.57812 l 9.0664,16.9961 c -2.5493,-0.18565 -5.2324,-0.28516 -8.0723,-0.28516 -16.4004,0 -32.0711,2.79039 -45.4433,6.36328 -22.18503,-6.31246 -35.6634,-21.4997 -37.66996,-23.87891 v -51.1582 z m -496.28516,2.5918 a 1.8899528,1.8899528 0 0 0 -1.66797,0.97461 l -7.27734,12.60156 a 1.8916701,1.8916701 0 1 0 3.27734,1.88867 l 7.27148,-12.60156 a 1.8899528,1.8899528 0 0 0 -1.60351,-2.86328 z m 87.20312,0.008 a 1.8899528,1.8899528 0 0 0 -1.55078,2.85547 l 7.2793,12.60156 a 1.8899528,1.8899528 0 1 0 3.26953,-1.88867 l -7.27734,-12.60156 a 1.8899528,1.8899528 0 0 0 -1.72071,-0.9668 z m -563.275386,1.79492 a 2.0759001,2.0759001 0 0 0 -2.076172,2.07617 2.0759001,2.0759001 0 0 0 2.076172,2.07617 2.0759001,2.0759001 0 0 0 2.074218,-2.07617 2.0759001,2.0759001 0 0 0 -2.074218,-2.07617 z m -282.781254,0.43359 a 2.0759001,2.0759001 0 0 0 -2.07617,2.07618 2.0759001,2.0759001 0 0 0 2.07617,2.07617 2.0759001,2.0759001 0 0 0 2.07618,-2.07617 2.0759001,2.0759001 0 0 0 -2.07618,-2.07618 z m 7.88477,0 a 2.0759001,2.0759001 0 0 0 -2.07617,2.07618 2.0759001,2.0759001 0 0 0 2.07617,2.07617 2.0759001,2.0759001 0 0 0 2.07617,-2.07617 2.0759001,2.0759001 0 0 0 -2.07617,-2.07618 z m 7.88476,0 a 2.0759001,2.0759001 0 0 0 -2.07617,2.07618 2.0759001,2.0759001 0 0 0 2.07617,2.07617 2.0759001,2.0759001 0 0 0 2.07618,-2.07617 2.0759001,2.0759001 0 0 0 -2.07618,-2.07618 z m 7.88477,0 a 2.0759001,2.0759001 0 0 0 -2.07617,2.07618 2.0759001,2.0759001 0 0 0 2.07617,2.07617 2.0759001,2.0759001 0 0 0 2.07617,-2.07617 2.0759001,2.0759001 0 0 0 -2.07617,-2.07618 z m 7.88477,0 a 2.0759001,2.0759001 0 0 0 -2.07618,2.07618 2.0759001,2.0759001 0 0 0 2.07618,2.07617 2.0759001,2.0759001 0 0 0 2.07617,-2.07617 2.0759001,2.0759001 0 0 0 -2.07617,-2.07618 z m 7.88476,0 a 2.0759001,2.0759001 0 0 0 -2.07422,2.07618 2.0759001,2.0759001 0 0 0 2.07422,2.07617 2.0759001,2.0759001 0 0 0 2.07617,-2.07617 2.0759001,2.0759001 0 0 0 -2.07617,-2.07618 z m 7.88672,0 a 2.0759001,2.0759001 0 0 0 -2.07617,2.07618 2.0759001,2.0759001 0 0 0 2.07617,2.07617 2.0759001,2.0759001 0 0 0 2.07422,-2.07617 2.0759001,2.0759001 0 0 0 -2.07422,-2.07618 z m 7.88477,0 a 2.0759001,2.0759001 0 0 0 -2.07618,2.07618 2.0759001,2.0759001 0 0 0 2.07618,2.07617 2.0759001,2.0759001 0 0 0 2.07617,-2.07617 2.0759001,2.0759001 0 0 0 -2.07617,-2.07618 z m 7.88476,0 a 2.0759001,2.0759001 0 0 0 -2.07617,2.07618 2.0759001,2.0759001 0 0 0 2.07617,2.07617 2.0759001,2.0759001 0 0 0 2.07617,-2.07617 2.0759001,2.0759001 0 0 0 -2.07617,-2.07618 z m 716.70899,6.48829 a 1.8899528,1.8899528 0 0 0 -1.73438,1.42578 l -3.76562,14.05468 a 1.892023,1.892023 0 1 0 3.65429,0.98243 l 3.76563,-14.05469 a 1.8899528,1.8899528 0 0 0 -1.91992,-2.4082 z m 45.33203,0 a 1.8899528,1.8899528 0 0 0 -1.85938,2.4082 l 3.76367,14.05469 a 1.8899528,1.8899528 0 1 0 3.64649,-0.98243 L 570.8418,253.9668 a 1.8899528,1.8899528 0 0 0 -1.78711,-1.42578 z m -740.88281,0.79882 h 50.26367 v 21.22266 h -50.26367 z m -84.23829,1.41016 a 2.0759001,2.0759001 0 0 0 -2.07617,2.07617 2.0759001,2.0759001 0 0 0 2.07617,2.07617 2.0759001,2.0759001 0 0 0 2.07618,-2.07617 2.0759001,2.0759001 0 0 0 -2.07618,-2.07617 z m 7.88477,0 a 2.0759001,2.0759001 0 0 0 -2.07617,2.07617 2.0759001,2.0759001 0 0 0 2.07617,2.07617 2.0759001,2.0759001 0 0 0 2.07617,-2.07617 2.0759001,2.0759001 0 0 0 -2.07617,-2.07617 z m 7.88476,0 a 2.0759001,2.0759001 0 0 0 -2.07617,2.07617 2.0759001,2.0759001 0 0 0 2.07617,2.07617 2.0759001,2.0759001 0 0 0 2.07618,-2.07617 2.0759001,2.0759001 0 0 0 -2.07618,-2.07617 z m 7.88477,0 a 2.0759001,2.0759001 0 0 0 -2.07617,2.07617 2.0759001,2.0759001 0 0 0 2.07617,2.07617 2.0759001,2.0759001 0 0 0 2.07617,-2.07617 2.0759001,2.0759001 0 0 0 -2.07617,-2.07617 z m 7.88477,0 a 2.0759001,2.0759001 0 0 0 -2.07618,2.07617 2.0759001,2.0759001 0 0 0 2.07618,2.07617 2.0759001,2.0759001 0 0 0 2.07617,-2.07617 2.0759001,2.0759001 0 0 0 -2.07617,-2.07617 z m 7.88476,0 a 2.0759001,2.0759001 0 0 0 -2.07422,2.07617 2.0759001,2.0759001 0 0 0 2.07422,2.07617 2.0759001,2.0759001 0 0 0 2.07617,-2.07617 2.0759001,2.0759001 0 0 0 -2.07617,-2.07617 z m 7.88672,0 a 2.0759001,2.0759001 0 0 0 -2.07617,2.07617 2.0759001,2.0759001 0 0 0 2.07617,2.07617 2.0759001,2.0759001 0 0 0 2.07422,-2.07617 2.0759001,2.0759001 0 0 0 -2.07422,-2.07617 z m 7.88477,0 a 2.0759001,2.0759001 0 0 0 -2.07618,2.07617 2.0759001,2.0759001 0 0 0 2.07618,2.07617 2.0759001,2.0759001 0 0 0 2.07617,-2.07617 2.0759001,2.0759001 0 0 0 -2.07617,-2.07617 z m 7.88476,0 a 2.0759001,2.0759001 0 0 0 -2.07617,2.07617 2.0759001,2.0759001 0 0 0 2.07617,2.07617 2.0759001,2.0759001 0 0 0 2.07617,-2.07617 2.0759001,2.0759001 0 0 0 -2.07617,-2.07617 z m 210.86133,0.576 a 2.0759001,2.0759001 0 0 0 -2.076172,2.07617 2.0759001,2.0759001 0 0 0 2.076172,2.07618 2.0759001,2.0759001 0 0 0 2.076172,-2.07618 2.0759001,2.0759001 0 0 0 -2.076172,-2.07617 z m -30.556641,0.11133 a 2.0759001,2.0759001 0 0 0 -2.076171,2.07617 2.0759001,2.0759001 0 0 0 2.076171,2.07422 2.0759001,2.0759001 0 0 0 2.076172,-2.07422 2.0759001,2.0759001 0 0 0 -2.076172,-2.07617 z m -377.339839,0.625 h 50.26171 v 64.4082 h -50.26171 z M -1.5,258.24609 A 2.0759001,2.0759001 0 0 0 -3.5761719,260.32227 2.0759001,2.0759001 0 0 0 -1.5,262.39844 2.0759001,2.0759001 0 0 0 0.57617188,260.32227 2.0759001,2.0759001 0 0 0 -1.5,258.24609 Z m 52.791016,4.94532 a 2.0759001,2.0759001 0 0 0 -2.076172,2.07421 2.0759001,2.0759001 0 0 0 2.076172,2.07618 2.0759001,2.0759001 0 0 0 2.076172,-2.07618 2.0759001,2.0759001 0 0 0 -2.076172,-2.07421 z m -312.499996,3.36132 h 73.36132 v 52.64844 h -73.36132 z m 286.982418,0.35938 a 2.0759001,2.0759001 0 0 0 -2.076172,2.07617 2.0759001,2.0759001 0 0 0 2.076172,2.07422 2.0759001,2.0759001 0 0 0 2.076171,-2.07422 2.0759001,2.0759001 0 0 0 -2.076171,-2.07617 z m -39.970704,0.10937 a 2.0759001,2.0759001 0 0 0 -2.076172,2.07618 2.0759001,2.0759001 0 0 0 2.076172,2.07617 2.0759001,2.0759001 0 0 0 2.076172,-2.07617 2.0759001,2.0759001 0 0 0 -2.076172,-2.07618 z m -93.628904,1.8125 h 38.845701 l 5.896485,45.2793 h -38.845706 z m 115.5429669,1.59766 a 2.0759001,2.0759001 0 0 0 -2.0761719,2.07617 2.0759001,2.0759001 0 0 0 2.0761719,2.07617 2.0759001,2.0759001 0 0 0 2.0761719,-2.07617 2.0759001,2.0759001 0 0 0 -2.0761719,-2.07617 z m -104.9160159,1.45117 a 2.0759001,2.0759001 0 0 0 -2.074219,2.07617 2.0759001,2.0759001 0 0 0 2.074219,2.07618 2.0759001,2.0759001 0 0 0 2.076172,-2.07618 2.0759001,2.0759001 0 0 0 -2.076172,-2.07617 z m 7.884766,0 a 2.0759001,2.0759001 0 0 0 -2.074219,2.07617 2.0759001,2.0759001 0 0 0 2.074219,2.07618 2.0759001,2.0759001 0 0 0 2.076172,-2.07618 2.0759001,2.0759001 0 0 0 -2.076172,-2.07617 z m 7.886719,0 a 2.0759001,2.0759001 0 0 0 -2.076172,2.07617 2.0759001,2.0759001 0 0 0 2.076172,2.07618 2.0759001,2.0759001 0 0 0 2.074218,-2.07618 2.0759001,2.0759001 0 0 0 -2.074218,-2.07617 z m 7.884765,0 a 2.0759001,2.0759001 0 0 0 -2.076172,2.07617 2.0759001,2.0759001 0 0 0 2.076172,2.07618 2.0759001,2.0759001 0 0 0 2.076172,-2.07618 2.0759001,2.0759001 0 0 0 -2.076172,-2.07617 z m -230.519531,1.47657 h 22.63477 l -9.00196,49.1914 h -22.63672 z m -60.82422,0.39062 c -7.99495,0 -14.51953,6.52458 -14.51953,14.51953 0,7.99495 6.52458,14.51367 14.51953,14.51367 7.99495,0 14.51367,-6.51872 14.51367,-14.51367 0,-7.99495 -6.51872,-14.51953 -14.51367,-14.51953 z m 424.955079,0.1543 a 2.0759001,2.0759001 0 0 0 -2.076171,2.07617 2.0759001,2.0759001 0 0 0 2.076171,2.07617 2.0759001,2.0759001 0 0 0 2.076172,-2.07617 2.0759001,2.0759001 0 0 0 -2.076172,-2.07617 z m -63.7851559,2.73047 a 2.0759001,2.0759001 0 0 0 -2.0761719,2.07617 2.0759001,2.0759001 0 0 0 2.0761719,2.07422 2.0759001,2.0759001 0 0 0 2.0761719,-2.07422 2.0759001,2.0759001 0 0 0 -2.0761719,-2.07617 z M -364.88672,277.5293 c 5.95235,0 10.73242,4.78789 10.73242,10.74023 0,5.95235 -4.78007,10.73438 -10.73242,10.73438 -5.95234,0 -10.74023,-4.78203 -10.74023,-10.73438 0,-5.95234 4.78789,-10.74023 10.74023,-10.74023 z m 193.0586,0.8125 h 50.26367 v 102.29101 h -50.26367 z m 222.941401,1.9375 a 2.0759001,2.0759001 0 0 0 -2.076172,2.07617 2.0759001,2.0759001 0 0 0 2.076172,2.07617 2.0759001,2.0759001 0 0 0 2.076172,-2.07617 2.0759001,2.0759001 0 0 0 -2.076172,-2.07617 z m -148.3125,0.30078 a 2.0759001,2.0759001 0 0 0 -2.074219,2.07617 2.0759001,2.0759001 0 0 0 2.074219,2.07617 2.0759001,2.0759001 0 0 0 2.076172,-2.07617 2.0759001,2.0759001 0 0 0 -2.076172,-2.07617 z m 7.884766,0 a 2.0759001,2.0759001 0 0 0 -2.074219,2.07617 2.0759001,2.0759001 0 0 0 2.074219,2.07617 2.0759001,2.0759001 0 0 0 2.076172,-2.07617 2.0759001,2.0759001 0 0 0 -2.076172,-2.07617 z m 7.886719,0 a 2.0759001,2.0759001 0 0 0 -2.076172,2.07617 2.0759001,2.0759001 0 0 0 2.076172,2.07617 2.0759001,2.0759001 0 0 0 2.074218,-2.07617 2.0759001,2.0759001 0 0 0 -2.074218,-2.07617 z m 7.884765,0 a 2.0759001,2.0759001 0 0 0 -2.076172,2.07617 2.0759001,2.0759001 0 0 0 2.076172,2.07617 2.0759001,2.0759001 0 0 0 2.076172,-2.07617 2.0759001,2.0759001 0 0 0 -2.076172,-2.07617 z m 88.402344,1.7207 a 2.0759001,2.0759001 0 0 0 -2.076172,2.07617 2.0759001,2.0759001 0 0 0 2.076172,2.07617 2.0759001,2.0759001 0 0 0 2.074219,-2.07617 2.0759001,2.0759001 0 0 0 -2.074219,-2.07617 z m 28.605469,6.45508 a 2.0759001,2.0759001 0 0 0 -2.076172,2.07617 2.0759001,2.0759001 0 0 0 2.076172,2.07617 2.0759001,2.0759001 0 0 0 2.076172,-2.07617 2.0759001,2.0759001 0 0 0 -2.076172,-2.07617 z m -14.210938,0.37891 a 2.0759001,2.0759001 0 0 0 -2.076172,2.07617 2.0759001,2.0759001 0 0 0 2.076172,2.07617 2.0759001,2.0759001 0 0 0 2.074219,-2.07617 2.0759001,2.0759001 0 0 0 -2.074219,-2.07617 z m -126.453125,0.14257 a 2.0759001,2.0759001 0 0 0 -2.074219,2.07618 2.0759001,2.0759001 0 0 0 2.074219,2.07617 2.0759001,2.0759001 0 0 0 2.076172,-2.07617 2.0759001,2.0759001 0 0 0 -2.076172,-2.07618 z m 7.884766,0 a 2.0759001,2.0759001 0 0 0 -2.074219,2.07618 2.0759001,2.0759001 0 0 0 2.074219,2.07617 2.0759001,2.0759001 0 0 0 2.076172,-2.07617 2.0759001,2.0759001 0 0 0 -2.076172,-2.07618 z m 7.886719,0 a 2.0759001,2.0759001 0 0 0 -2.076172,2.07618 2.0759001,2.0759001 0 0 0 2.076172,2.07617 2.0759001,2.0759001 0 0 0 2.074218,-2.07617 2.0759001,2.0759001 0 0 0 -2.074218,-2.07618 z m 7.884765,0 a 2.0759001,2.0759001 0 0 0 -2.076172,2.07618 2.0759001,2.0759001 0 0 0 2.076172,2.07617 2.0759001,2.0759001 0 0 0 2.076172,-2.07617 2.0759001,2.0759001 0 0 0 -2.076172,-2.07618 z m 130.398438,4.03907 a 2.0759001,2.0759001 0 0 0 -2.076172,2.07617 2.0759001,2.0759001 0 0 0 2.076172,2.07422 2.0759001,2.0759001 0 0 0 2.074219,-2.07422 2.0759001,2.0759001 0 0 0 -2.074219,-2.07617 z M 1229.8379,293.5625 c 1.7927,-1.4e-4 3.1511,0.37589 4.6055,1.09375 v 15.60547 c -1.4149,-0.49365 -2.9265,-0.78333 -4.6055,-0.7832 -6.9849,0 -12.7668,4.81489 -14.7637,11.40429 -3.1411,1.16583 -5.7238,3.32935 -7.5664,6.11328 -0.6761,-0.12117 -1.3506,-0.24131 -2.0371,-0.27343 -2.9298,-4.20517 -7.5585,-6.94642 -12.7344,-6.95313 a 1.8899528,1.8899528 0 0 0 -0.01,0 c -0.8037,0 -1.5857,0.13328 -2.3691,0.25781 -2.924,-2.82596 -6.7262,-4.59255 -10.8223,-4.59961 -7.7744,-6.1e-4 -13.9732,5.77498 -15.2578,13.19141 -0.9098,-0.42714 -1.7766,-0.94034 -2.7539,-1.1875 -2.8237,-4.7793 -7.8062,-7.91362 -13.4063,-7.91406 -5.7274,0 -10.6599,3.3713 -13.4336,8.2832 -1.5497,-0.49556 -3.121,-0.96643 -4.7539,-0.9668 a 1.8899528,1.8899528 0 0 0 -0.01,0 c -2.8685,0.009 -5.535,1.02781 -7.9648,2.48633 -1.4281,-7.23939 -7.5297,-12.83545 -15.1778,-12.83593 -7.016,0.0113 -12.8351,4.76167 -14.83,11.27148 -2.5337,-1.64492 -5.3702,-2.77775 -8.4297,-2.7832 a 1.8899528,1.8899528 0 0 0 -0.024,0 c -0.8967,0.009 -1.7947,0.16563 -2.6875,0.32422 -2.8999,-2.68099 -6.6088,-4.34863 -10.5859,-4.35352 -2.0526,-1.6e-4 -3.7406,0.49395 -5.1152,1.30469 -0.6673,0.39354 -1.2545,0.84024 -1.8223,1.3164 l -4.8594,-9.10937 c 0.1041,-3.10039 1.2926,-5.27339 3.25,-6.84375 2.0499,-1.64444 5.0485,-2.58426 8.5489,-2.58399 3.3209,0.004 6.4874,1.38131 8.7539,3.8086 a 1.8899528,1.8899528 0 0 0 1.8164,0.54687 c 0.8819,-0.21097 1.7952,-0.32194 2.7168,-0.33203 0,1e-5 0,0 0.01,0 3.0416,0.007 5.9676,1.17236 8.1855,3.25391 a 1.8899528,1.8899528 0 0 0 3.166,-1.15821 c 0.7197,-6.04755 5.8166,-10.56961 11.9082,-10.57812 6.6491,4.3e-4 11.9957,5.34702 11.9961,11.99609 v 0.0293 a 1.8899528,1.8899528 0 0 0 3.1582,1.40234 c 2.1955,-1.97538 5.0379,-3.06789 7.9942,-3.07812 1.6082,3.4e-4 3.2009,0.32349 4.6816,0.95117 a 1.8899528,1.8899528 0 0 0 2.4805,-0.99609 c 1.8914,-4.41867 6.2215,-7.27735 11.0273,-7.27735 4.5242,3.5e-4 8.651,2.53339 10.6973,6.56836 a 1.8899528,1.8899528 0 0 0 1.3066,0.99805 c 1.5946,0.32829 3.1078,0.98131 4.4434,1.91211 a 1.8899528,1.8899528 0 0 0 2.9668,-1.55078 v -0.0156 c 5e-4,-6.64719 5.3499,-11.9906 11.9961,-11.99414 3.4153,0.006 6.6667,1.4664 8.9395,4.01563 a 1.8899528,1.8899528 0 0 0 1.8085,0.58984 c 0.8157,-0.17556 1.6356,-0.27344 2.4512,-0.27344 4.2575,0.006 8.1821,2.26199 10.334,5.93555 a 1.8899528,1.8899528 0 0 0 1.6328,0.9375 h 0.1094 c 1.0096,0.005 2.0137,0.13371 2.9902,0.39063 a 1.8899528,1.8899528 0 0 0 2.1406,-0.92969 c 1.473,-2.73522 3.9514,-4.78908 6.9102,-5.73633 a 1.8899528,1.8899528 0 0 0 1.2695,-1.40234 c 1.1909,-5.53658 6.0611,-9.47852 11.7227,-9.47852 z m -1327.037119,4.41211 a 2.0759001,2.0759001 0 0 0 -2.074219,2.07422 2.0759001,2.0759001 0 0 0 2.074219,2.07617 2.0759001,2.0759001 0 0 0 2.076172,-2.07617 2.0759001,2.0759001 0 0 0 -2.076172,-2.07422 z m 7.884766,0 a 2.0759001,2.0759001 0 0 0 -2.074219,2.07422 2.0759001,2.0759001 0 0 0 2.074219,2.07617 2.0759001,2.0759001 0 0 0 2.076172,-2.07617 2.0759001,2.0759001 0 0 0 -2.076172,-2.07422 z m 7.886719,0 a 2.0759001,2.0759001 0 0 0 -2.076172,2.07422 2.0759001,2.0759001 0 0 0 2.076172,2.07617 2.0759001,2.0759001 0 0 0 2.074218,-2.07617 2.0759001,2.0759001 0 0 0 -2.074218,-2.07422 z m 7.884765,0 a 2.0759001,2.0759001 0 0 0 -2.076172,2.07422 2.0759001,2.0759001 0 0 0 2.076172,2.07617 2.0759001,2.0759001 0 0 0 2.076172,-2.07617 2.0759001,2.0759001 0 0 0 -2.076172,-2.07422 z m 92.132813,5.66601 a 2.0759001,2.0759001 0 0 0 -2.076172,2.07618 2.0759001,2.0759001 0 0 0 2.076172,2.07422 2.0759001,2.0759001 0 0 0 2.076172,-2.07422 2.0759001,2.0759001 0 0 0 -2.076172,-2.07618 z m -115.789063,3.0293 a 2.0759001,2.0759001 0 0 0 -2.074219,2.07617 2.0759001,2.0759001 0 0 0 2.074219,2.07618 2.0759001,2.0759001 0 0 0 2.076172,-2.07618 2.0759001,2.0759001 0 0 0 -2.076172,-2.07617 z m 7.884766,0 a 2.0759001,2.0759001 0 0 0 -2.074219,2.07617 2.0759001,2.0759001 0 0 0 2.074219,2.07618 2.0759001,2.0759001 0 0 0 2.076172,-2.07618 2.0759001,2.0759001 0 0 0 -2.076172,-2.07617 z m 7.886719,0 a 2.0759001,2.0759001 0 0 0 -2.076172,2.07617 2.0759001,2.0759001 0 0 0 2.076172,2.07618 2.0759001,2.0759001 0 0 0 2.074218,-2.07618 2.0759001,2.0759001 0 0 0 -2.074218,-2.07617 z m 7.884765,0 a 2.0759001,2.0759001 0 0 0 -2.076172,2.07617 2.0759001,2.0759001 0 0 0 2.076172,2.07618 2.0759001,2.0759001 0 0 0 2.076172,-2.07618 2.0759001,2.0759001 0 0 0 -2.076172,-2.07617 z m 1303.380869,6.58789 c 1.793,-1.3e-4 3.151,0.37574 4.6055,1.09375 v 20.44922 c -1.5049,1.37369 -10.5857,9.46932 -24.5938,17.71094 -12.0911,-4.74042 -27.6814,-8.75977 -45.8281,-8.75977 -24.6761,0 -37.8979,7.51552 -52.8242,13.94727 -0.3382,-0.17398 -0.6746,-0.34509 -1.0137,-0.51953 -9.7278,-5.00454 -19.932,-10.13029 -35.3574,-11.98242 l -9.709,-18.20118 c 0.7025,-0.61906 1.3395,-1.15444 1.9121,-1.49218 0.8599,-0.50716 1.6848,-0.78137 3.1953,-0.78125 3.321,0.004 6.4894,1.38131 8.7559,3.80859 a 1.8899528,1.8899528 0 0 0 1.8164,0.54687 c 0.8805,-0.2105 1.7918,-0.31475 2.7168,-0.32617 0,10e-6 0,0 0.01,0 3.0416,0.007 5.9696,1.16649 8.1875,3.24805 a 1.8899528,1.8899528 0 0 0 3.166,-1.15039 c 0.7197,-6.04752 5.8161,-10.57612 11.9082,-10.58594 6.6491,4.3e-4 11.9957,5.35287 11.9961,12.00195 v 0.0234 a 1.8899528,1.8899528 0 0 0 3.1582,1.41016 c 2.1952,-1.9751 5.0368,-3.0744 7.9942,-3.08594 1.6082,3.6e-4 3.2009,0.3235 4.6816,0.95117 a 1.8899528,1.8899528 0 0 0 2.4805,-0.99609 c 1.8914,-4.41867 6.2215,-7.27148 11.0273,-7.27148 4.5242,3.5e-4 8.651,2.53532 10.6973,6.57031 a 1.8899528,1.8899528 0 0 0 1.3066,0.99609 c 1.5946,0.32829 3.1078,0.97349 4.4434,1.9043 a 1.8899528,1.8899528 0 0 0 2.9668,-1.54883 v -0.008 c 5e-4,-6.64719 5.3499,-12.00038 11.9961,-12.00391 3.4153,0.006 6.6667,1.4664 8.9395,4.01563 a 1.8899528,1.8899528 0 0 0 1.8085,0.59179 c 0.8155,-0.17559 1.6356,-0.26562 2.4512,-0.26562 4.2575,0.006 8.1821,2.26002 10.334,5.93359 a 1.8899528,1.8899528 0 0 0 1.6309,0.93164 h 0.1113 c 1.0097,0.005 2.0139,0.14147 2.9902,0.39844 a 1.8899528,1.8899528 0 0 0 2.1406,-0.92969 c 1.473,-2.73523 3.9515,-4.79691 6.9102,-5.74414 a 1.8899528,1.8899528 0 0 0 1.2695,-1.40234 c 1.1909,-5.53658 6.0611,-9.47852 11.7227,-9.47852 z M -28.220703,316.55664 H 7.9726562 v 0.002 H 38.208984 v -0.002 h 36.03125 c 1.195338,3.13529 2.120849,6.36133 2.748047,9.64258 H -30.96875 c 0.627339,-3.28123 1.552989,-6.5072 2.748047,-9.64258 z m -73.216797,1.33789 h 38.845703 l 8.167969,62.73828 h -38.841797 z m -159.77148,5.08594 h 73.36132 v 9.43359 h -73.36132 z m -128.8125,1.26953 h 50.26171 v 56.38281 h -50.26171 z m 133.95507,1.35938 a 2.0759001,2.0759001 0 0 0 -2.07617,2.07617 2.0759001,2.0759001 0 0 0 2.07617,2.07617 2.0759001,2.0759001 0 0 0 2.07618,-2.07617 2.0759001,2.0759001 0 0 0 -2.07618,-2.07617 z m 7.88477,0 a 2.0759001,2.0759001 0 0 0 -2.07617,2.07617 2.0759001,2.0759001 0 0 0 2.07617,2.07617 2.0759001,2.0759001 0 0 0 2.07617,-2.07617 2.0759001,2.0759001 0 0 0 -2.07617,-2.07617 z m 7.88476,0 a 2.0759001,2.0759001 0 0 0 -2.07617,2.07617 2.0759001,2.0759001 0 0 0 2.07617,2.07617 2.0759001,2.0759001 0 0 0 2.07618,-2.07617 2.0759001,2.0759001 0 0 0 -2.07618,-2.07617 z m 7.88477,0 a 2.0759001,2.0759001 0 0 0 -2.07617,2.07617 2.0759001,2.0759001 0 0 0 2.07617,2.07617 2.0759001,2.0759001 0 0 0 2.07617,-2.07617 2.0759001,2.0759001 0 0 0 -2.07617,-2.07617 z m 7.88477,0 a 2.0759001,2.0759001 0 0 0 -2.07422,2.07617 2.0759001,2.0759001 0 0 0 2.07422,2.07617 2.0759001,2.0759001 0 0 0 2.07617,-2.07617 2.0759001,2.0759001 0 0 0 -2.07617,-2.07617 z m 7.88672,0 a 2.0759001,2.0759001 0 0 0 -2.07618,2.07617 2.0759001,2.0759001 0 0 0 2.07618,2.07617 2.0759001,2.0759001 0 0 0 2.07421,-2.07617 2.0759001,2.0759001 0 0 0 -2.07421,-2.07617 z m 7.88476,0 a 2.0759001,2.0759001 0 0 0 -2.07617,2.07617 2.0759001,2.0759001 0 0 0 2.07617,2.07617 2.0759001,2.0759001 0 0 0 2.07422,-2.07617 2.0759001,2.0759001 0 0 0 -2.07422,-2.07617 z m 7.88477,0 a 2.0759001,2.0759001 0 0 0 -2.07618,2.07617 2.0759001,2.0759001 0 0 0 2.07618,2.07617 2.0759001,2.0759001 0 0 0 2.07617,-2.07617 2.0759001,2.0759001 0 0 0 -2.07617,-2.07617 z m 7.88476,0 a 2.0759001,2.0759001 0 0 0 -2.07617,2.07617 2.0759001,2.0759001 0 0 0 2.07617,2.07617 2.0759001,2.0759001 0 0 0 2.07617,-2.07617 2.0759001,2.0759001 0 0 0 -2.07617,-2.07617 z m -120.77148,0.72265 h 22.63476 l -9.9375,54.30078 h -22.63672 z m 282.214841,3.64649 H 77.560547 c 0.236198,1.99273 0.373163,3.99903 0.376953,6.01562 -0.02608,17.76089 -8.671458,34.3559 -23.126953,44.63867 H -8.8574219 C -23.284524,370.33651 -31.907211,353.74723 -31.919922,336.00195 v -0.008 c 0.0036,-2.01658 0.140711,-4.02291 0.376953,-6.01562 z m 1010.662109,2.52343 c 5.08283,5.15811 15.8007,14.53968 31.15236,20.17969 -15.00657,4.51973 -26.24248,9.64144 -31.15236,12.04297 z m -1240.32812,3.69141 h 73.36132 v 44.43945 h -73.36132 z m 1495.65238,3.63867 v 47.86524 H 979.11914 v -18.74805 c 3.00468,-1.54523 17.32957,-8.64259 37.67386,-14.18945 0.026,0.007 0.05,0.0146 0.076,0.0215 l 0.012,-0.0449 c 13.3059,-3.62173 28.9892,-6.48828 45.3515,-6.48828 4.0278,0 7.7066,0.20392 11.1172,0.5664 a 1.890628,1.890628 0 0 0 0.1934,0.0176 c 15.295,1.6576 25.0149,6.61437 34.914,11.70703 12.1406,6.24579 24.5736,12.71094 46.6309,12.71094 36.922,0 69.4079,-24.96434 79.3555,-33.41797 z m -70.4219,7.69922 c 16.1743,0 30.2668,3.29909 41.5566,7.4082 -14.0192,7.66546 -31.7877,14.53125 -50.4902,14.53125 -18.1805,0 -29.1507,-4.39315 -39.5234,-9.56054 13.8872,-6.15001 26.0758,-12.37891 48.457,-12.37891 z M -14.867188,405.8418 h 71.390626 v 17.65039 H -14.867188 Z M 1.0488281,427.27148 H 40.615234 v 17.64258 H 1.0488281 Z M 517.18164,575.9043 v 0.002 a 1.8899528,1.8899528 0 0 0 -1.83008,1.53516 l -2.18554,11.58203 a 1.8899528,1.8899528 0 0 0 -0.004,0.0351 l -7.92188,42.01172 h -6.79296 l -6.99805,-40.09765 c -0.83732,-4.79698 -5.4373,-8.04443 -10.23828,-7.21289 -4.80095,0.83153 -8.04953,5.43593 -7.21289,10.23828 l 0.96289,5.51367 -4.15821,0.71875 a 1.8899528,1.8899528 0 0 0 -1.53515,2.18359 l 3.52734,20.39649 a 1.8924104,1.8924104 0 0 0 3.72852,-0.65039 l -3.21094,-18.52735 2.29883,-0.39843 0.3125,1.7871 c 0.0144,0.10547 0.0207,0.21072 0.0391,0.31641 a 1.8920203,1.8920203 0 0 0 0.0566,0.23242 l 4.45703,25.5 H 472.625 a 1.8899528,1.8899528 0 0 0 -1.88867,1.89063 v 15.75976 27.57032 41.88476 h -31.91211 c -0.48831,-0.47674 -1.34114,-1.42266 -2.31055,-3.1289 -0.90087,-1.58559 -1.81874,-3.73942 -2.39062,-6.55469 a 1.8899528,1.8899528 0 0 0 -0.0898,-0.49805 c -0.29855,-1.62586 -0.48828,-3.45142 -0.48828,-5.51953 0,-2.07888 0.19282,-3.91165 0.49414,-5.54492 a 1.8899528,1.8899528 0 0 0 0.082,-0.47071 c 0.57185,-2.81865 1.49145,-4.97644 2.39258,-6.5625 1.45882,-2.56766 2.73828,-3.52734 2.73828,-3.52734 a 1.8899528,1.8899528 0 0 0 -1.16601,-3.38086 h -20.69532 c -0.48899,-0.48016 -1.33937,-1.42841 -2.30664,-3.13086 -0.89656,-1.57804 -1.81036,-3.72206 -2.38281,-6.51758 a 1.8899528,1.8899528 0 0 0 -0.10156,-0.56445 c -0.29561,-1.6192 -0.48438,-3.43355 -0.48438,-5.49023 0,-2.06498 0.19054,-3.88574 0.48829,-5.50977 a 1.8899528,1.8899528 0 0 0 0.0976,-0.53711 c 0.57235,-2.79921 1.48544,-4.94397 2.38281,-6.52344 1.45883,-2.56762 2.73829,-3.53711 2.73829,-3.53711 a 1.8899528,1.8899528 0 0 0 -1.16602,-3.37304 H 240.83398 a 1.8899528,1.8899528 0 0 0 -0.2207,-0.0137 1.8899528,1.8899528 0 0 0 -0.23047,0.0137 h -11.58789 a 1.8899528,1.8899528 0 0 0 -0.82812,0.18554 c 0,0 -0.67079,0.35064 -1.41016,0.98829 -0.73937,0.63775 -1.67473,1.63096 -2.58203,3.09375 -1.81461,2.92561 -3.49219,7.70383 -3.49219,15.21289 0,7.50909 1.67758,12.28926 3.49219,15.21484 0.10923,0.17611 0.21843,0.32366 0.32812,0.48633 h -42.85351 a 1.8899528,1.8899528 0 0 0 -0.12695,-0.006 1.8899528,1.8899528 0 0 0 -0.14454,0.006 h -11.66796 a 1.8899528,1.8899528 0 0 0 -0.82618,0.19336 c 0,0 -0.67078,0.3426 -1.41015,0.98047 -0.73937,0.63775 -1.67668,1.63096 -2.58399,3.09375 -1.8146,2.92558 -3.49805,7.71161 -3.49804,15.2207 0,7.50909 1.68344,12.28926 3.49804,15.21484 0.10899,0.17571 0.21868,0.32399 0.32813,0.48633 h -64.43164 a 1.8899528,1.8899528 0 0 0 -1.890628,1.89063 v 27.27539 a 1.8899528,1.8899528 0 0 0 1.890628,1.89062 h 21.19336 v 38.83594 h 3.77929 V 749.23242 H 967.2793 v 38.83594 h 3.77929 v -38.83594 h 21.19336 a 1.8899528,1.8899528 0 0 0 1.88867,-1.89062 v -27.27539 a 1.8899528,1.8899528 0 0 0 -1.88867,-1.89063 H 890.79492 l 47.53125,-47.53125 a 1.8899528,1.8899528 0 0 0 -1.33594,-3.22656 H 622.08008 a 1.8899528,1.8899528 0 0 0 -1.33789,0.55469 L 570.5332,718.17578 H 525.63477 V 676.29102 648.7207 632.96094 a 1.8899528,1.8899528 0 0 0 -1.89063,-1.89063 h -4.29883 l 9.62305,-51.03906 a 1.8899528,1.8899528 0 0 0 -1.50781,-2.20703 l -10.00196,-1.88867 a 1.8899528,1.8899528 0 0 0 -0.37695,-0.0312 z m 1.53711,4.08984 6.28906,1.18945 -1.48437,7.86914 -6.28906,-1.1875 z m -35.82227,7.41016 c 2.37719,0.0619 4.4037,1.7628 4.83204,4.21679 l 0.73437,4.20703 c -1.59274,-0.75569 -3.42004,-1.05282 -5.28125,-0.73046 -1.85582,0.32143 -3.47453,1.21239 -4.7207,2.45507 l -0.73438,-4.20312 c -0.48771,-2.79957 1.33056,-5.38381 4.13282,-5.86914 0.35026,-0.0607 0.69751,-0.085 1.0371,-0.0762 z m 33.63672,4.17773 6.28907,1.1875 -7.22266,38.30078 h -6.51367 z M 484.86133,598.75 c 2.37791,0.061 4.40737,1.759 4.83203,4.21094 a 1.8899528,1.8899528 0 0 0 0.0664,0.30273 l 4.85351,27.80664 h -10.30273 l -4.66016,-26.70117 c -0.10489,-0.93648 0.0393,-1.841 0.39453,-2.63867 l 0.002,-0.002 a 1.8899528,1.8899528 0 0 0 0.004,-0.008 c 0.66188,-1.4756 2.02617,-2.59189 3.77344,-2.89453 0.35027,-0.0607 0.69741,-0.0849 1.03711,-0.0762 z m -10.34571,36.09961 h 7.69727 a 1.8899528,1.8899528 0 0 0 1.04883,0 h 38.59375 v 11.98047 h -47.33985 z m 0,15.75977 h 47.33985 v 23.79296 h -47.33985 z m -245.14648,0.9746 h 6.72266 c -0.10985,0.16289 -0.21874,0.31193 -0.32813,0.48829 -1.8146,2.92561 -3.5,7.70383 -3.5,15.21289 0,7.50909 1.6854,12.28926 3.5,15.21484 0.10923,0.17611 0.21844,0.32366 0.32813,0.48633 h -6.72266 c -0.0862,-0.0552 -0.0723,-0.0295 -0.33789,-0.25781 -0.46599,-0.40196 -1.13805,-1.09436 -1.83789,-2.22266 -1.39967,-2.25661 -2.93164,-6.27178 -2.93164,-13.2207 0,-6.94889 1.53197,-10.9641 2.93164,-13.22071 0.69984,-1.1283 1.3719,-1.82656 1.83789,-2.22851 0.26442,-0.22791 0.25149,-0.1964 0.33789,-0.25196 z m 11.76172,0 h 171.67187 c -0.46151,0.61248 -0.52659,0.42353 -1.0039,1.26368 -0.93994,1.65436 -1.85621,3.80043 -2.51367,6.43554 H 259.26758 a 1.890625,1.890625 0 1 0 0,3.78125 h 149.32617 c -0.15819,1.31622 -0.25781,2.71365 -0.25781,4.22071 0,1.50483 0.0981,2.90224 0.25586,4.21679 H 287.48047 a 1.8899528,1.8899528 0 1 0 0,3.7793 H 409.2832 c 0.65758,2.63866 1.57477,4.78736 2.51563,6.44336 0.47731,0.84015 0.54239,0.64925 1.0039,1.26172 H 241.13672 c -0.0894,-0.067 -0.16458,-0.12012 -0.32422,-0.25781 -0.46599,-0.40196 -1.13805,-1.09436 -1.83789,-2.22266 -1.39968,-2.25661 -2.93164,-6.27178 -2.93164,-13.2207 0,-6.94889 1.53196,-10.9641 2.93164,-13.22071 0.69984,-1.1283 1.3719,-1.82656 1.83789,-2.22851 0.1571,-0.1355 0.22945,-0.18625 0.31836,-0.25196 z m 381.73047,19.61524 h 309.5664 l -46.97656,46.97656 H 575.87695 Z m -148.34571,6.98242 h 47.33985 v 39.55274 h -47.33985 z m 158.92383,3.46289 a 1.8899528,1.8899528 0 0 0 -1.33593,0.55274 l -26.07227,26.07226 a 1.8899528,1.8899528 0 0 0 1.32031,3.22656 l 61.60938,0.53907 a 1.8899528,1.8899528 0 0 0 1.35156,-0.55469 l 26.60352,-26.61133 a 1.8899528,1.8899528 0 0 0 -1.33594,-3.22461 z m 90,0 a 1.8899528,1.8899528 0 0 0 -1.33593,0.55274 l -26.07227,26.07226 a 1.8899528,1.8899528 0 0 0 1.32031,3.22656 l 61.60938,0.53907 a 1.8899528,1.8899528 0 0 0 1.35156,-0.55469 l 26.60352,-26.61133 a 1.8899528,1.8899528 0 0 0 -1.33594,-3.22461 z m -89.21679,3.7793 h 56.79687 l -22.81836,22.82422 -56.30859,-0.49414 z m 90,0 h 56.79687 l -22.81836,22.82422 -56.30859,-0.49414 z m -554.14454,1.34179 v 0.002 h 6.72852 c -0.1095,0.16267 -0.2189,0.31023 -0.32812,0.48633 -1.81461,2.92558 -3.49805,7.71161 -3.49805,15.2207 0,7.50909 1.68344,12.28926 3.49805,15.21484 0.10922,0.1761 0.21862,0.32366 0.32812,0.48633 h -6.72852 c -0.0862,-0.0552 -0.0742,-0.0295 -0.33984,-0.25781 -0.46598,-0.40195 -1.13805,-1.09436 -1.83789,-2.22266 -1.39967,-2.2566 -2.92969,-6.27181 -2.92969,-13.2207 0,-6.94889 1.53002,-10.97191 2.92969,-13.22852 0.69984,-1.1283 1.37191,-1.81875 1.83789,-2.2207 0.26563,-0.22904 0.25372,-0.20421 0.33984,-0.25977 z m 11.77344,0.002 h 58.45117 a 1.8899528,1.8899528 0 0 0 0.6875,0 h 193.24219 c -0.46189,0.61285 -0.5261,0.42073 -1.0039,1.26172 -0.94032,1.65501 -1.85617,3.80485 -2.51368,6.44336 H 263.54883 a 1.890625,1.890625 0 0 0 0,3.78125 h 166.47461 c -0.15807,1.31636 -0.25781,2.71423 -0.25782,4.2207 0,1.50484 0.0981,2.90225 0.25586,4.2168 h -239.6875 a 1.8899528,1.8899528 0 1 0 0,3.77929 h 240.37891 c 0.65758,2.63866 1.57477,4.78739 2.51563,6.44336 0.4778,0.84099 0.54201,0.64887 1.0039,1.26172 H 181.85156 c -0.0893,-0.067 -0.16498,-0.12047 -0.32422,-0.25781 -0.46599,-0.40195 -1.13805,-1.0924 -1.83789,-2.2207 -1.39967,-2.25661 -2.92968,-6.27377 -2.92968,-13.22266 0,-6.94889 1.53001,-10.97191 2.92968,-13.22852 0.69984,-1.1283 1.3719,-1.81875 1.83789,-2.2207 0.15924,-0.13735 0.23493,-0.19086 0.32422,-0.25781 z m -79.37695,35.18945 h 78.54297 a 1.8899528,1.8899528 0 0 0 0.6875,0 H 570.9707 a 1.8899528,1.8899528 0 0 0 0.61914,0 h 314.29883 a 1.8899528,1.8899528 0 0 0 0.61914,0 h 103.85352 v 23.49609 H 102.47461 Z"
       style="fill:#012c0b;fill-opacity:1;stroke:none;stroke-width:3.77952766;stroke-linecap:round;stroke-linejoin:round;stroke-miterlimit:4;stroke-dasharray:none;stroke-opacity:1" />
  </g>
</svg>
