<?xml version="1.0" encoding="UTF-8" standalone="no"?>
<svg
   xmlns:dc="http://purl.org/dc/elements/1.1/"
   xmlns:cc="http://creativecommons.org/ns#"
   xmlns:rdf="http://www.w3.org/1999/02/22-rdf-syntax-ns#"
   xmlns:svg="http://www.w3.org/2000/svg"
   xmlns="http://www.w3.org/2000/svg"
   id="svg1037"
   version="1.1"
   viewBox="0 0 488.06268 210.83623"
   height="210.83623mm"
   width="488.06268mm">
  <defs
     id="defs1031" />
  <metadata
     id="metadata1034">
    <rdf:RDF>
      <cc:Work
         rdf:about="">
        <dc:format>image/svg+xml</dc:format>
        <dc:type
           rdf:resource="http://purl.org/dc/dcmitype/StillImage" />
        <dc:title></dc:title>
      </cc:Work>
    </rdf:RDF>
  </metadata>
  <g
     transform="translate(197.63804,-55.750084)"
     id="layer1">
    <path
       id="path396"
       transform="scale(0.26458333)"
       d="m 1022.0898,210.70898 -341.88472,193.0293 0.4043,1.43164 154.33984,549.85156 c -0.76627,1.49186 -6.40596,12.33123 -16.30664,28.44141 l -2.91406,-6.26953 -10.33399,-22.2793 a 1.8899528,1.8899528 0 0 0 -1.83984,-1.09179 1.8899528,1.8899528 0 0 0 -1.60157,1.10546 l -10.14257,22.46485 -17.69336,17.14648 a 1.8899528,1.8899528 0 0 0 1.14453,3.24219 l 24.46289,2.18359 7.91016,0.70896 c -1.49626,2.2547 -3.04763,4.5575 -4.64844,6.8965 h 4.57031 c 1.28448,-1.895 2.55914,-3.7827 3.77344,-5.6191 l 2.60742,5.6191 h 4.17188 l -4.27149,-9.19139 a 1.8899528,1.8899528 0 0 0 -0.0625,-0.11719 c 1.65165,-2.53855 3.21521,-4.99231 4.7168,-7.37695 a 1.8899528,1.8899528 0 0 0 0.52929,0.12695 l 12.23047,1.0918 20.45508,1.83007 -13.53906,13.63671 h 5.32422 l 13.73047,-13.83397 a 1.8899528,1.8899528 0 0 0 -1.16797,-3.21094 l -24.47071,-2.18555 -10.90429,-0.97461 c 11.1618,-18.01015 17.48448,-30.31818 17.83593,-31.00781 L 1097.668,684.25977 v -5.47852 L 837.88867,951.52539 684.64844,405.56836 1020.834,215.75781 l 76.834,120.02735 v -7.00977 z m -3.4472,13.86329 -324.56838,182.61328 0.39844,1.42383 147.42382,526.80859 255.77152,-268.34961 v -5.47461 l -230.30472,241.63086 4.71875,-18.96289 -7.08984,-1.76367 c 0.58148,-7.75969 7.60257,-88.59673 62.63086,-309.91407 10.07726,-40.52949 19.3722,-76.12111 27.87304,-107.35742 1.18337,0.29307 2.31268,0.56808 3.50782,0.86524 61.38839,15.2636 106.21719,27.94789 138.66409,37.96679 v -3.91601 C 1065.1268,490.10696 1020.5389,477.49662 959.91797,462.42383 810.30766,425.22477 752.69192,420.1304 741.38867,419.44727 l 1.52735,-6.14258 c 7.33706,0.33887 62.16102,4.02691 218.54492,42.91015 59.79686,14.86787 103.96486,27.30736 136.20706,37.20313 v -3.91211 c -32.3262,-9.91136 -76.2009,-22.26683 -135.29105,-36.95898 -1.08726,-0.27034 -2.11382,-0.52016 -3.1914,-0.78711 35.01162,-126.9031 55.18765,-175.30836 58.23435,-182.33399 l 7.0899,1.76367 5.4804,-22.02148 67.6778,105.07031 v -6.98242 z m -1.2481,5.04101 9.7852,15.19141 -5.4219,21.79883 -25.54882,-6.34766 5.40232,-21.76367 z m -20.31052,11.42774 -5.45898,21.96875 12.2754,3.05273 c -4.21505,9.91898 -24.44682,60.03364 -58.19728,182.38086 C 808.43739,414.96977 754.70739,410.22652 743.84375,409.57031 l 1.66797,-6.71093 -25.00195,-6.22071 z m 10.53322,25.94726 6.0898,1.51367 c -4.2062,9.89814 -24.43342,59.99098 -58.18942,182.35547 -2.05201,-0.50622 -4.12411,-1.01975 -6.14063,-1.51367 35.01899,-126.93284 55.19725,-175.33846 58.24025,-182.35547 z m -291.90822,132.35156 25.22657,6.27344 -6.4961,26.13086 -31.77734,-7.89648 -4.15039,-14.83204 z m 24.75196,23.8418 c 7.07326,0.32692 58.14892,3.76954 201.55273,38.73047 -8.50004,31.23661 -17.79235,66.81626 -27.86328,107.32031 -53.76798,216.24856 -61.77538,298.82626 -62.67383,309.90625 L 839.1875,876.08203 834.5,894.94727 703.83398,428.03516 l 33.35938,8.29296 z m 205.22461,39.62891 c 2.01356,0.49305 4.08943,1.00634 6.13867,1.51172 -8.50218,31.24376 -17.79503,66.82889 -27.86914,107.3457 -53.77165,216.26325 -61.77826,298.83732 -62.67578,309.9082 l -6.08985,-1.51562 c 0.58235,-7.76939 7.60639,-88.61006 62.63086,-309.91211 10.07412,-40.51677 19.36654,-76.10846 27.86524,-107.33789 z m -535.92383,80.06054 a 1.8899528,1.8899528 0 0 0 -0.6211,3.69922 c 0,0 52.84799,17.25033 100.22852,66.85157 l -5.57812,0.3457 -24.51368,1.51953 a 1.8899528,1.8899528 0 0 0 -1.23437,3.20508 l 17.23047,17.62695 9.52929,22.72266 a 1.8899528,1.8899528 0 0 0 3.4336,0.10937 l 10.93945,-21.99023 3.95508,-7.95117 c 17.47506,21.43695 33.31874,47.80049 44.27148,79.96093 2.82025,8.28107 4.8291,17.02674 6.17188,26.14844 l -7.73828,-3.09375 -22.80274,-9.125 a 1.8899528,1.8899528 0 0 0 -2.48632,2.37109 l 8.01562,23.29688 -1.12109,24.61914 a 1.8899528,1.8899528 0 0 0 3.05468,1.57227 l 19.3125,-15.18555 5.64258,-4.43945 c 1.69852,36.11996 -4.75801,76.78095 -12.41406,117.74023 l -7.83008,-5.99023 -19.50391,-14.9336 a 1.8899528,1.8899528 0 0 0 -1.23242,-0.38281 1.8899528,1.8899528 0 0 0 -1.80078,1.99219 l 1.44727,24.60351 -7.71485,23.40039 a 1.8899528,1.8899528 0 0 0 2.51758,2.33985 l 22.6836,-9.41797 7.96093,-3.31055 c -3.01775,15.72955 -6.05276,31.42418 -8.7207,46.81055 -3.78018,21.8008 -6.79161,43.01241 -7.89258,62.99997 l -7.46094,-4.30661 -21.26757,-12.27539 a 1.8899528,1.8899528 0 0 0 -1.0918,-0.25 1.8899528,1.8899528 0 0 0 -1.71289,2.24414 l 4.04297,21.17186 h 3.84765 l -3.40234,-17.83592 17.69336,10.2246 9.15039,5.28322 c -0.0323,0.78 -0.0507,1.5513 -0.0781,2.3281 h 3.79687 c 0.0197,-0.5673 0.032,-1.1299 0.0547,-1.6992 l 10.24023,-5.91212 17.78321,-10.26953 -3.05079,17.88085 h 3.83399 l 3.625,-21.20897 a 1.8899528,1.8899528 0 0 0 -2.80664,-1.95703 l -21.27344,12.27539 -8.14453,4.70121 c 1.07802,-19.80587 4.05499,-40.95026 7.83398,-62.74418 2.69124,-15.52081 5.7854,-31.38854 8.86133,-47.3086 l 7.39453,5.66797 19.50196,14.9336 a 1.8899528,1.8899528 0 0 0 3.0332,-1.58008 l -0.95899,-24.57422 7.24219,-23.49609 a 1.8899528,1.8899528 0 0 0 -2.5332,-2.30469 l -22.67578,9.41992 -7.40625,3.07422 c 7.77583,-41.39371 14.30729,-82.66771 12.18359,-119.56641 l 9.7793,3.91016 22.81055,9.125 a 1.8899528,1.8899528 0 0 0 2.49414,-2.33203 l -7.54493,-23.4082 0.63672,-24.58985 a 1.8899528,1.8899528 0 0 0 -1.89062,-1.93359 1.8899528,1.8899528 0 0 0 -1.16602,0.40625 l -19.30469,15.18359 -7.57421,5.96094 c -1.38874,-9.55433 -3.49156,-18.74028 -6.46485,-27.4707 -11.07911,-32.53145 -27.10502,-59.21989 -44.78906,-80.9375 l 9.13476,-0.56641 24.51368,-1.51367 a 1.8899528,1.8899528 0 0 0 1.26367,-3.18164 l -16.8457,-17.92188 -9.95118,-22.49414 a 1.8899528,1.8899528 0 0 0 -1.8164,-1.12109 1.8899528,1.8899528 0 0 0 -1.60157,1.04883 l -10.93945,21.99023 -4.99023,10.01758 -0.70899,0.0449 c -48.63994,-52.08789 -103.9375,-70.14453 -103.9375,-70.14453 a 1.8899528,1.8899528 0 0 0 -0.55273,-0.10352 z m 122.71484,43.48047 8.45313,19.10352 a 1.8899528,1.8899528 0 0 0 0.35351,0.53125 l 14.30664,15.22265 -20.49218,1.26954 -11.88868,0.73632 c -1.96097,-2.32354 -3.93736,-4.59124 -5.92968,-6.79687 a 1.8899528,1.8899528 0 0 0 0.58203,-0.6875 l 5.4707,-10.99219 z M 512.72461,617 c 2.61511,2.84022 5.20862,5.7835 7.77148,8.82812 l -4.70117,9.44922 -9.10937,18.29297 -8.06836,-19.24414 a 1.8899528,1.8899528 0 0 0 -0.39258,-0.59179 l -14.59375,-14.9336 20.39648,-1.26172 z m -652.86914,51.37891 -1.13086,6.72461 c -4.03242,23.96541 -15.83419,43.24825 -26.33008,62.19921 -9.07341,16.38264 -17.18818,32.59414 -17.96875,51.26563 -8.18136,-17.32324 -16.50191,-36.11043 -20.35156,-61.99024 l -0.92188,-6.19335 -2.6582,5.66796 c -8.92567,19.05015 -5.61626,42.58082 -2.84961,63.5586 1.38333,10.48887 2.65418,20.36068 2.34766,28.61914 -0.27175,7.32163 -1.75949,13.24467 -5.25196,17.47265 -6.2357,-8.19127 -13.32446,-15.13362 -20.53906,-21.08984 -17.38256,-14.35064 -35.52944,-23.37519 -43.65039,-30.8789 l -4.14062,-3.82227 0.99609,5.55078 c 3.33876,18.52248 15.26015,31.92471 23.59961,45.57617 8.18649,13.40106 13.18228,26.66696 4.54883,46.14258 h -27.26172 v 1.89063 24.82617 h 7.29297 v 12.96094 l -0.0293,0.008 24.46875,90.70312 h 3.91602 l -24.44336,-90.60742 h 252.271481 l -24.455078,90.60742 h 3.914063 l 24.451172,-90.59179 -0.05664,-0.0156 h 0.07813 v -13.06445 h 7.2929686 v -26.7168 H -36.933594 c -3.981772,-27.1366 3.11199,-46.17122 12.197266,-62.74609 9.262953,-16.89906 20.7694194,-31.14059 24.21874988,-48.41016 l 1.24023437,-6.17773 -4.43554685,4.48046 c -6.0400275,6.11041 -17.4758084,9.22768 -31.3652344,16.63086 -12.598511,6.71512 -27.092368,17.15721 -41.222656,37.09961 1.398513,-10.71074 3.529798,-20.84096 5.669922,-30.38867 2.91168,-12.98986 5.827902,-24.89097 6.814453,-35.7793 0.986555,-10.88831 0.02391,-20.84647 -5.027344,-29.5957 l -2.28125,-3.95508 -1.179688,4.40625 c -6.351547,23.70429 -21.249454,44.99822 -34.865232,69.24219 -0.90729,1.61549 -1.80685,3.24679 -2.69922,4.89063 -1.57659,-21.44678 -7.66893,-31.30507 -13.26172,-41.26172 l -3.32812,-5.92774 -0.20704,6.79102 c -0.27562,9.05852 -1.30222,16.6109 -2.87695,23.08789 -3.52999,-5.18465 -4.9983,-10.57783 -5.375,-16.52539 -0.44911,-7.09096 0.72795,-14.9512 2.00781,-23.7168 2.55973,-17.53115 5.41732,-38.7103 -4.74023,-64.59961 z m 0.86328,14.22461 c 6.9475,21.96102 4.95795,40.26461 2.63477,56.17578 -1.2776,8.75006 -2.53108,16.83204 -2.04493,24.50781 0.46726,7.37742 2.62802,14.40296 7.88868,20.91406 -2.92887,9.48063 -7.15824,16.42276 -11.96289,22.37305 -7.73296,9.57681 -17.17846,16.60323 -25.04688,27.09375 -2.52349,-10.96297 -6.5067,-20.88075 -11.01367,-30.74024 -0.91515,-2.00197 -1.86486,-4.00869 -2.8125,-6.01757 -1.72906,-21.2359 6.95126,-39.01817 17.33984,-57.77539 9.42653,-17.0202 19.9344,-34.96879 25.01758,-56.53125 z m 223.871094,36.21484 v 1.89062 286.86132 h 3.779297 V 722.59766 h 35.343749 v 92.42187 1.89063 124.02929 66.63085 h 3.7793 v -66.63085 h 242.45117 v 66.63085 h 3.7793 V 718.81836 H 127.49219 Z m -635.400394,0.008 c -16.30819,0.14339 -32.86344,2.32158 -49.34765,6.71875 -105.49894,28.14183 -168.23562,136.5245 -140.09375,242.02344 3.77281,14.14362 9.00008,27.51123 15.45703,40.00195 h 4.26172 c -6.75156,-12.74685 -12.18961,-26.44309 -16.06641,-40.97656 -8.4067,-31.5153 -8.5404,-63.28003 -1.75781,-93.00586 2.40646,5.57807 5.75391,9.7047 9.89844,12.51172 5.54509,3.75556 12.36748,5.09313 19.9375,4.87891 15.13999,-0.42845 33.56125,-6.95314 52.98046,-14.06836 19.41918,-7.11519 39.80306,-14.85375 58.36133,-17.93164 5.50054,-0.91226 10.80742,-1.39275 15.87696,-1.33008 11.15298,0.13787 21.1524,2.90342 29.5,9.47265 -47.88272,32.36927 -93.8638,78.05574 -122.57227,140.44922 h 4.13281 c 28.86577,-61.86985 74.94742,-107.03495 122.8086,-138.92773 l 2.03711,-1.35938 -1.83008,-1.62304 c -10.12626,-9.0293 -22.75512,-12.15311 -36.50391,-11.8125 -4.58294,0.11338 -9.28966,0.61142 -14.07031,1.40429 -19.12256,3.17148 -39.65126,11.00959 -59.03906,18.11328 -19.38781,7.10374 -37.66994,13.44212 -51.79297,13.8418 -7.06152,0.19994 -13.00922,-1.05325 -17.70899,-4.23633 -4.6231,-3.13113 -8.17525,-8.18708 -10.36328,-16.12304 0.81909,-3.07669 1.71062,-6.12879 2.67774,-9.1543 2.59241,6.39488 6.17968,11.0475 10.63086,14.14453 5.60942,3.90285 12.44614,5.27668 19.99023,5.02734 15.08825,-0.4987 33.30538,-7.31991 52.71484,-14.41015 19.40947,-7.09024 39.96766,-14.48497 59.22461,-16.42383 19.25696,-1.93886 37.05203,1.44678 51.71875,15.88477 l 1.0625,1.04882 1.26172,-0.78906 c 14.66423,-9.17892 29.39489,-17.13854 43.77539,-23.96875 l 2.06641,-0.98242 -1.35156,-1.8457 c -31.05878,-42.32996 -71.9812,-73.57571 -116.54493,-103.12696 3.1196,-1.017 6.28241,-1.95938 9.48438,-2.82812 44.1388,29.14384 84.28175,61.44993 114.65039,103.32031 l 0.90039,1.24024 1.40234,-0.62891 c 16.60207,-7.41562 32.53454,-13.30156 47.06641,-17.81836 l 1.98633,-0.61328 -0.80469,-1.91992 c -8.2069,-19.55154 -6.66082,-32.1748 -3.30664,-39.95118 2.44754,-5.67444 5.79919,-8.7353 7.44336,-9.98828 1.90775,1.47069 3.79465,2.96952 5.64844,4.51172 -0.21928,0.17519 -0.43097,0.33121 -0.66211,0.53906 -1.59647,1.43558 -3.52087,3.73581 -4.92969,7.15235 -2.81764,6.83304 -3.50705,17.98362 3.77149,35.50781 l 0.62695,1.51367 1.58008,-0.40625 c 13.03287,-3.29688 24.55951,-5.67447 34.0332,-7.02734 1.56844,2.22607 3.08551,4.49588 4.56445,6.79687 -9.65743,1.46672 -21.12909,3.90807 -34.04297,7.47071 l -2.35547,0.65039 1.21876,2.11133 c 18.04502,31.43562 49.35931,33.5922 56.11523,33.68554 0.91903,2.78101 1.77693,5.59631 2.57812,8.44336 -10.10543,-1.0484 -47.62939,-7.10974 -66.96875,-40.29883 l -0.75195,-1.2832 -1.42578,0.41992 c -14.27596,4.2748 -29.74063,10.04597 -45.8125,17.25977 l -2.0293,0.91406 1.23243,1.86133 c 28.45628,42.90176 47.07174,95.66268 50.25781,164.68359 h 3.73828 c -3.17912,-68.65085 -21.51483,-121.62393 -49.64063,-164.76562 14.75252,-6.52638 28.97648,-11.88259 42.13672,-15.87891 21.88851,35.76679 63.3761,40.43656 70.32032,40.97852 12.68508,48.87727 5.55083,98.2823 -16.4375,139.66601 h 4.26171 c 21.88626,-42.20865 28.71587,-92.38961 15.5,-141.93359 -23.74468,-89.01476 -104.61742,-147.58483 -192.68164,-146.81055 z m 1154.31641,0.70899 -0.54492,20.88281 a 1.8899528,1.8899528 0 0 0 0.0879,0.62695 l 6.41406,19.88672 -19.06641,-7.63281 -11.40625,-4.56055 a 1.8899528,1.8899528 0 0 0 -0.0625,-0.0215 c -0.23518,-3.08029 -0.53207,-6.12924 -0.89843,-9.14258 l 9.33203,-7.3418 z m -476.01367,3.0625 h 26.11719 v 69.82617 l 18.17382,-15.22071 18.18164,15.22071 v -69.82617 h 179.97852 v 92.42187 H 127.49219 Z m 29.89648,0 h 28.79688 v 61.72851 l -14.40235,-12.05469 -14.39453,12.05469 z m -708.15625,0.002 c 42.71936,-0.38195 83.69582,13.47641 117.03125,38.13672 -2.1566,1.85059 -5.47125,5.34056 -7.83398,10.81836 -3.65915,8.48345 -4.91025,21.87928 2.67969,41.05078 -13.79437,4.35462 -28.73467,9.88819 -44.32813,16.78711 -29.98737,-40.9205 -69.06777,-72.71893 -111.87305,-101.23242 14.82044,-3.61638 29.67396,-5.42956 44.32422,-5.56055 z m 1096.23047,5.34375 18.9707,7.58789 9.72461,3.89063 c 0.44793,3.64378 0.79186,7.34642 1.04492,11.0996 l -7.73437,6.07813 -16.06445,12.63867 0.95312,-20.85547 a 1.8899528,1.8899528 0 0 0 -0.10351,-0.70117 z m -615.966796,0.98047 c 2.65025,6.75783 3.693091,14.10742 2.921875,22.61914 -0.948091,10.46381 -3.817002,22.2681 -6.738281,35.30078 -5.712323,25.48432 -11.57535,55.73732 -3.083985,90.33789 H -129.875 c 1.02596,-33.77263 12.74868,-59.75963 25.99609,-83.34766 12.522051,-22.29645 26.167588,-42.49816 33.375004,-64.91015 z m -543.501954,4.86328 c 44.75047,29.53077 85.56853,60.52421 116.62109,102.16016 -13.45901,6.47966 -27.18038,13.87445 -40.88085,22.38867 -15.356,-14.41486 -34.11088,-18.02253 -53.57813,-16.0625 -19.93871,2.00753 -40.72765,9.53721 -60.14648,16.63086 -19.41884,7.09368 -37.50998,13.71785 -51.54102,14.18164 -7.01552,0.23206 -12.9376,-1.03565 -17.70898,-4.35547 -4.66983,-3.24913 -8.37081,-8.54766 -10.8086,-16.86719 19.03205,-53.61702 61.30178,-98.03282 118.04297,-118.07617 z m 405.89648,0.5625 c 5.65802,29.58096 16.79723,50.34733 25.84961,70.15039 9.647,21.10385 16.7018,41.51697 12.00782,72.68164 h -26.23047 c -3.03907,-15.19377 -9.00855,-27.79181 -16.4707,-38.36719 4.67213,-5.16765 6.4177,-12.33209 6.71874,-20.44336 0.32474,-8.74911 -0.98714,-18.75437 -2.37109,-29.24804 -2.43937,-18.49622 -4.57388,-38.23767 0.49609,-54.77344 z m 84.56641,29.01172 c 5.03225,9.15722 9.63548,18.89658 10.22852,40.06055 -10.73894,20.9602 -19.47104,44.54383 -20.33985,73.75976 h -32.77734 c 2.15377,-14.70499 1.72208,-27.20004 -0.33008,-38.48633 7.80191,-11.51404 18.10636,-18.81214 26.9336,-29.74414 8.12145,-10.05796 14.50056,-23.66847 16.28515,-45.58984 z m 117.8359388,6.57812 C -9.9311904,784.088 -19.528997,797.07423 -28.050781,812.62109 -37.26817,829.43699 -44.681,849.43154 -40.75,877.18164 h -32.757812 c -4.606875,-18.26124 -5.089976,-35.27897 -3.669922,-51.0918 15.046091,-23.39522 30.467261,-34.64447 43.878906,-41.79296 11.196126,-5.96765 20.441787,-9.3607 27.5917968,-14.35743 z M -422.07422,770.0686 c 10.71808,9.28181 20.46586,19.77062 29.00391,31.33789 -8.7857,1.36095 -19.23512,3.60534 -30.65821,6.44531 -6.23474,-15.83966 -5.64697,-25.64898 -3.38086,-31.14453 1.17536,-2.85037 2.72891,-4.66793 3.96485,-5.7793 0.42299,-0.38036 0.76723,-0.64312 1.07031,-0.85937 z m 144.72852,19.74219 c 9.68199,7.44665 24.25488,15.43101 39.13867,27.71875 16.53453,13.65055 32.165,32.12873 37.87695,59.65234 h -50.00781 c 8.16939,-19.81351 2.79133,-34.65571 -5.42969,-48.11328 -7.70769,-12.61727 -17.36169,-24.5011 -21.57812,-39.25781 z m -106.48242,25.33789 c 6.96848,11.37095 12.84563,23.60144 17.43945,36.5957 -8.06094,-0.37255 -33.68627,-3.63262 -49.97852,-29.55664 12.25918,-3.27024 23.46755,-5.7242 32.53907,-7.03906 z m 511.32031,3.65039 H 369.94336 V 937.16016 H 127.49219 Z m 6.66211,4.93359 a 2.0759001,2.0759001 0 0 0 -2.07618,2.07617 2.0759001,2.0759001 0 0 0 2.07618,2.07422 2.0759001,2.0759001 0 0 0 2.07422,-2.07422 2.0759001,2.0759001 0 0 0 -2.07422,-2.07617 z m 7.88476,0 a 2.0759001,2.0759001 0 0 0 -2.07617,2.07617 2.0759001,2.0759001 0 0 0 2.07617,2.07422 2.0759001,2.0759001 0 0 0 2.07422,-2.07422 2.0759001,2.0759001 0 0 0 -2.07422,-2.07617 z m 7.88477,0 a 2.0759001,2.0759001 0 0 0 -2.07617,2.07617 2.0759001,2.0759001 0 0 0 2.07617,2.07422 2.0759001,2.0759001 0 0 0 2.07617,-2.07422 2.0759001,2.0759001 0 0 0 -2.07617,-2.07617 z m 7.88476,0 a 2.0759001,2.0759001 0 0 0 -2.07617,2.07617 2.0759001,2.0759001 0 0 0 2.07617,2.07422 2.0759001,2.0759001 0 0 0 2.07618,-2.07422 2.0759001,2.0759001 0 0 0 -2.07618,-2.07617 z m 7.88477,0 a 2.0759001,2.0759001 0 0 0 -2.07617,2.07617 2.0759001,2.0759001 0 0 0 2.07617,2.07422 2.0759001,2.0759001 0 0 0 2.07617,-2.07422 2.0759001,2.0759001 0 0 0 -2.07617,-2.07617 z m 7.88476,0 a 2.0759001,2.0759001 0 0 0 -2.07617,2.07617 2.0759001,2.0759001 0 0 0 2.07617,2.07422 2.0759001,2.0759001 0 0 0 2.07618,-2.07422 2.0759001,2.0759001 0 0 0 -2.07618,-2.07617 z m 7.88477,0 a 2.0759001,2.0759001 0 0 0 -2.07617,2.07617 2.0759001,2.0759001 0 0 0 2.07617,2.07422 2.0759001,2.0759001 0 0 0 2.07617,-2.07422 2.0759001,2.0759001 0 0 0 -2.07617,-2.07617 z m 7.88477,0 a 2.0759001,2.0759001 0 0 0 -2.07618,2.07617 2.0759001,2.0759001 0 0 0 2.07618,2.07422 2.0759001,2.0759001 0 0 0 2.07617,-2.07422 2.0759001,2.0759001 0 0 0 -2.07617,-2.07617 z m 7.88476,0 a 2.0759001,2.0759001 0 0 0 -2.07617,2.07617 2.0759001,2.0759001 0 0 0 2.07617,2.07422 2.0759001,2.0759001 0 0 0 2.07617,-2.07422 2.0759001,2.0759001 0 0 0 -2.07617,-2.07617 z m 7.88477,0 a 2.0759001,2.0759001 0 0 0 -2.07422,2.07617 2.0759001,2.0759001 0 0 0 2.07422,2.07422 2.0759001,2.0759001 0 0 0 2.07617,-2.07422 2.0759001,2.0759001 0 0 0 -2.07617,-2.07617 z m 7.88672,0 a 2.0759001,2.0759001 0 0 0 -2.07618,2.07617 2.0759001,2.0759001 0 0 0 2.07618,2.07422 2.0759001,2.0759001 0 0 0 2.07421,-2.07422 2.0759001,2.0759001 0 0 0 -2.07421,-2.07617 z m 7.88476,0 a 2.0759001,2.0759001 0 0 0 -2.07617,2.07617 2.0759001,2.0759001 0 0 0 2.07617,2.07422 2.0759001,2.0759001 0 0 0 2.07422,-2.07422 2.0759001,2.0759001 0 0 0 -2.07422,-2.07617 z m 7.88477,0 a 2.0759001,2.0759001 0 0 0 -2.07617,2.07617 2.0759001,2.0759001 0 0 0 2.07617,2.07422 2.0759001,2.0759001 0 0 0 2.07617,-2.07422 2.0759001,2.0759001 0 0 0 -2.07617,-2.07617 z m 7.88476,0 a 2.0759001,2.0759001 0 0 0 -2.07617,2.07617 2.0759001,2.0759001 0 0 0 2.07617,2.07422 2.0759001,2.0759001 0 0 0 2.07618,-2.07422 2.0759001,2.0759001 0 0 0 -2.07618,-2.07617 z m 7.88477,0 a 2.0759001,2.0759001 0 0 0 -2.07617,2.07617 2.0759001,2.0759001 0 0 0 2.07617,2.07422 2.0759001,2.0759001 0 0 0 2.07617,-2.07422 2.0759001,2.0759001 0 0 0 -2.07617,-2.07617 z m 7.88476,0 a 2.0759001,2.0759001 0 0 0 -2.07617,2.07617 2.0759001,2.0759001 0 0 0 2.07617,2.07422 2.0759001,2.0759001 0 0 0 2.07618,-2.07422 2.0759001,2.0759001 0 0 0 -2.07618,-2.07617 z m 7.88477,0 a 2.0759001,2.0759001 0 0 0 -2.07617,2.07617 2.0759001,2.0759001 0 0 0 2.07617,2.07422 2.0759001,2.0759001 0 0 0 2.07617,-2.07422 2.0759001,2.0759001 0 0 0 -2.07617,-2.07617 z m 7.88477,0 a 2.0759001,2.0759001 0 0 0 -2.07422,2.07617 2.0759001,2.0759001 0 0 0 2.07422,2.07422 2.0759001,2.0759001 0 0 0 2.07617,-2.07422 2.0759001,2.0759001 0 0 0 -2.07617,-2.07617 z m 7.88671,0 a 2.0759001,2.0759001 0 0 0 -2.07617,2.07617 2.0759001,2.0759001 0 0 0 2.07617,2.07422 2.0759001,2.0759001 0 0 0 2.07422,-2.07422 2.0759001,2.0759001 0 0 0 -2.07422,-2.07617 z m 7.88477,0 a 2.0759001,2.0759001 0 0 0 -2.07617,2.07617 2.0759001,2.0759001 0 0 0 2.07617,2.07422 2.0759001,2.0759001 0 0 0 2.07422,-2.07422 2.0759001,2.0759001 0 0 0 -2.07422,-2.07617 z m 7.88477,0 a 2.0759001,2.0759001 0 0 0 -2.07618,2.07617 2.0759001,2.0759001 0 0 0 2.07618,2.07422 2.0759001,2.0759001 0 0 0 2.07617,-2.07422 2.0759001,2.0759001 0 0 0 -2.07617,-2.07617 z m 7.88476,0 a 2.0759001,2.0759001 0 0 0 -2.07617,2.07617 2.0759001,2.0759001 0 0 0 2.07617,2.07422 2.0759001,2.0759001 0 0 0 2.07617,-2.07422 2.0759001,2.0759001 0 0 0 -2.07617,-2.07617 z m 7.88477,0 a 2.0759001,2.0759001 0 0 0 -2.07617,2.07617 2.0759001,2.0759001 0 0 0 2.07617,2.07422 2.0759001,2.0759001 0 0 0 2.07617,-2.07422 2.0759001,2.0759001 0 0 0 -2.07617,-2.07617 z m 7.88476,0 a 2.0759001,2.0759001 0 0 0 -2.07617,2.07617 2.0759001,2.0759001 0 0 0 2.07617,2.07422 2.0759001,2.0759001 0 0 0 2.07617,-2.07422 2.0759001,2.0759001 0 0 0 -2.07617,-2.07617 z m 7.88477,0 a 2.0759001,2.0759001 0 0 0 -2.07617,2.07617 2.0759001,2.0759001 0 0 0 2.07617,2.07422 2.0759001,2.0759001 0 0 0 2.07617,-2.07422 2.0759001,2.0759001 0 0 0 -2.07617,-2.07617 z m 7.88476,0 a 2.0759001,2.0759001 0 0 0 -2.07422,2.07617 2.0759001,2.0759001 0 0 0 2.07422,2.07422 2.0759001,2.0759001 0 0 0 2.07618,-2.07422 2.0759001,2.0759001 0 0 0 -2.07618,-2.07617 z m 7.88672,0 a 2.0759001,2.0759001 0 0 0 -2.07617,2.07617 2.0759001,2.0759001 0 0 0 2.07617,2.07422 2.0759001,2.0759001 0 0 0 2.07422,-2.07422 2.0759001,2.0759001 0 0 0 -2.07422,-2.07617 z m 7.88477,0 a 2.0759001,2.0759001 0 0 0 -2.07617,2.07617 2.0759001,2.0759001 0 0 0 2.07617,2.07422 2.0759001,2.0759001 0 0 0 2.07617,-2.07422 2.0759001,2.0759001 0 0 0 -2.07617,-2.07617 z m 7.88476,0 a 2.0759001,2.0759001 0 0 0 -2.07617,2.07617 2.0759001,2.0759001 0 0 0 2.07617,2.07422 2.0759001,2.0759001 0 0 0 2.07618,-2.07422 2.0759001,2.0759001 0 0 0 -2.07618,-2.07617 z m 7.88477,0 a 2.0759001,2.0759001 0 0 0 -2.07617,2.07617 2.0759001,2.0759001 0 0 0 2.07617,2.07422 2.0759001,2.0759001 0 0 0 2.07617,-2.07422 2.0759001,2.0759001 0 0 0 -2.07617,-2.07617 z m -228.66406,8.69531 a 2.0759001,2.0759001 0 0 0 -2.07618,2.07618 2.0759001,2.0759001 0 0 0 2.07618,2.07617 2.0759001,2.0759001 0 0 0 2.07422,-2.07617 2.0759001,2.0759001 0 0 0 -2.07422,-2.07618 z m 7.88476,0 a 2.0759001,2.0759001 0 0 0 -2.07617,2.07618 2.0759001,2.0759001 0 0 0 2.07617,2.07617 2.0759001,2.0759001 0 0 0 2.07422,-2.07617 2.0759001,2.0759001 0 0 0 -2.07422,-2.07618 z m 7.88477,0 a 2.0759001,2.0759001 0 0 0 -2.07617,2.07618 2.0759001,2.0759001 0 0 0 2.07617,2.07617 2.0759001,2.0759001 0 0 0 2.07617,-2.07617 2.0759001,2.0759001 0 0 0 -2.07617,-2.07618 z m 7.88476,0 a 2.0759001,2.0759001 0 0 0 -2.07617,2.07618 2.0759001,2.0759001 0 0 0 2.07617,2.07617 2.0759001,2.0759001 0 0 0 2.07618,-2.07617 2.0759001,2.0759001 0 0 0 -2.07618,-2.07618 z m 7.88477,0 a 2.0759001,2.0759001 0 0 0 -2.07617,2.07618 2.0759001,2.0759001 0 0 0 2.07617,2.07617 2.0759001,2.0759001 0 0 0 2.07617,-2.07617 2.0759001,2.0759001 0 0 0 -2.07617,-2.07618 z m 7.88476,0 a 2.0759001,2.0759001 0 0 0 -2.07617,2.07618 2.0759001,2.0759001 0 0 0 2.07617,2.07617 2.0759001,2.0759001 0 0 0 2.07618,-2.07617 2.0759001,2.0759001 0 0 0 -2.07618,-2.07618 z m 7.88477,0 a 2.0759001,2.0759001 0 0 0 -2.07617,2.07618 2.0759001,2.0759001 0 0 0 2.07617,2.07617 2.0759001,2.0759001 0 0 0 2.07617,-2.07617 2.0759001,2.0759001 0 0 0 -2.07617,-2.07618 z m 7.88477,0 a 2.0759001,2.0759001 0 0 0 -2.07618,2.07618 2.0759001,2.0759001 0 0 0 2.07618,2.07617 2.0759001,2.0759001 0 0 0 2.07617,-2.07617 2.0759001,2.0759001 0 0 0 -2.07617,-2.07618 z m 7.88476,0 a 2.0759001,2.0759001 0 0 0 -2.07617,2.07618 2.0759001,2.0759001 0 0 0 2.07617,2.07617 2.0759001,2.0759001 0 0 0 2.07617,-2.07617 2.0759001,2.0759001 0 0 0 -2.07617,-2.07618 z m 7.88477,0 a 2.0759001,2.0759001 0 0 0 -2.07422,2.07618 2.0759001,2.0759001 0 0 0 2.07422,2.07617 2.0759001,2.0759001 0 0 0 2.07617,-2.07617 2.0759001,2.0759001 0 0 0 -2.07617,-2.07618 z m 7.88672,0 a 2.0759001,2.0759001 0 0 0 -2.07618,2.07618 2.0759001,2.0759001 0 0 0 2.07618,2.07617 2.0759001,2.0759001 0 0 0 2.07421,-2.07617 2.0759001,2.0759001 0 0 0 -2.07421,-2.07618 z m 7.88476,0 a 2.0759001,2.0759001 0 0 0 -2.07617,2.07618 2.0759001,2.0759001 0 0 0 2.07617,2.07617 2.0759001,2.0759001 0 0 0 2.07422,-2.07617 2.0759001,2.0759001 0 0 0 -2.07422,-2.07618 z m 7.88477,0 a 2.0759001,2.0759001 0 0 0 -2.07617,2.07618 2.0759001,2.0759001 0 0 0 2.07617,2.07617 2.0759001,2.0759001 0 0 0 2.07617,-2.07617 2.0759001,2.0759001 0 0 0 -2.07617,-2.07618 z m 7.88476,0 a 2.0759001,2.0759001 0 0 0 -2.07617,2.07618 2.0759001,2.0759001 0 0 0 2.07617,2.07617 2.0759001,2.0759001 0 0 0 2.07618,-2.07617 2.0759001,2.0759001 0 0 0 -2.07618,-2.07618 z m 7.88477,0 a 2.0759001,2.0759001 0 0 0 -2.07617,2.07618 2.0759001,2.0759001 0 0 0 2.07617,2.07617 2.0759001,2.0759001 0 0 0 2.07617,-2.07617 2.0759001,2.0759001 0 0 0 -2.07617,-2.07618 z m 7.88476,0 a 2.0759001,2.0759001 0 0 0 -2.07617,2.07618 2.0759001,2.0759001 0 0 0 2.07617,2.07617 2.0759001,2.0759001 0 0 0 2.07618,-2.07617 2.0759001,2.0759001 0 0 0 -2.07618,-2.07618 z m 7.88477,0 a 2.0759001,2.0759001 0 0 0 -2.07617,2.07618 2.0759001,2.0759001 0 0 0 2.07617,2.07617 2.0759001,2.0759001 0 0 0 2.07617,-2.07617 2.0759001,2.0759001 0 0 0 -2.07617,-2.07618 z m 7.88477,0 a 2.0759001,2.0759001 0 0 0 -2.07422,2.07618 2.0759001,2.0759001 0 0 0 2.07422,2.07617 2.0759001,2.0759001 0 0 0 2.07617,-2.07617 2.0759001,2.0759001 0 0 0 -2.07617,-2.07618 z m 7.88671,0 a 2.0759001,2.0759001 0 0 0 -2.07617,2.07618 2.0759001,2.0759001 0 0 0 2.07617,2.07617 2.0759001,2.0759001 0 0 0 2.07422,-2.07617 2.0759001,2.0759001 0 0 0 -2.07422,-2.07618 z m 7.88477,0 a 2.0759001,2.0759001 0 0 0 -2.07617,2.07618 2.0759001,2.0759001 0 0 0 2.07617,2.07617 2.0759001,2.0759001 0 0 0 2.07422,-2.07617 2.0759001,2.0759001 0 0 0 -2.07422,-2.07618 z m 7.88477,0 a 2.0759001,2.0759001 0 0 0 -2.07618,2.07618 2.0759001,2.0759001 0 0 0 2.07618,2.07617 2.0759001,2.0759001 0 0 0 2.07617,-2.07617 2.0759001,2.0759001 0 0 0 -2.07617,-2.07618 z m 7.88476,0 a 2.0759001,2.0759001 0 0 0 -2.07617,2.07618 2.0759001,2.0759001 0 0 0 2.07617,2.07617 2.0759001,2.0759001 0 0 0 2.07617,-2.07617 2.0759001,2.0759001 0 0 0 -2.07617,-2.07618 z m 7.88477,0 a 2.0759001,2.0759001 0 0 0 -2.07617,2.07618 2.0759001,2.0759001 0 0 0 2.07617,2.07617 2.0759001,2.0759001 0 0 0 2.07617,-2.07617 2.0759001,2.0759001 0 0 0 -2.07617,-2.07618 z m 7.88476,0 a 2.0759001,2.0759001 0 0 0 -2.07617,2.07618 2.0759001,2.0759001 0 0 0 2.07617,2.07617 2.0759001,2.0759001 0 0 0 2.07617,-2.07617 2.0759001,2.0759001 0 0 0 -2.07617,-2.07618 z m 7.88477,0 a 2.0759001,2.0759001 0 0 0 -2.07617,2.07618 2.0759001,2.0759001 0 0 0 2.07617,2.07617 2.0759001,2.0759001 0 0 0 2.07617,-2.07617 2.0759001,2.0759001 0 0 0 -2.07617,-2.07618 z m 7.88476,0 a 2.0759001,2.0759001 0 0 0 -2.07422,2.07618 2.0759001,2.0759001 0 0 0 2.07422,2.07617 2.0759001,2.0759001 0 0 0 2.07618,-2.07617 2.0759001,2.0759001 0 0 0 -2.07618,-2.07618 z m 7.88672,0 a 2.0759001,2.0759001 0 0 0 -2.07617,2.07618 2.0759001,2.0759001 0 0 0 2.07617,2.07617 2.0759001,2.0759001 0 0 0 2.07422,-2.07617 2.0759001,2.0759001 0 0 0 -2.07422,-2.07618 z m 7.88477,0 a 2.0759001,2.0759001 0 0 0 -2.07617,2.07618 2.0759001,2.0759001 0 0 0 2.07617,2.07617 2.0759001,2.0759001 0 0 0 2.07617,-2.07617 2.0759001,2.0759001 0 0 0 -2.07617,-2.07618 z m 7.88476,0 a 2.0759001,2.0759001 0 0 0 -2.07617,2.07618 2.0759001,2.0759001 0 0 0 2.07617,2.07617 2.0759001,2.0759001 0 0 0 2.07618,-2.07617 2.0759001,2.0759001 0 0 0 -2.07618,-2.07618 z m 7.88477,0 a 2.0759001,2.0759001 0 0 0 -2.07617,2.07618 2.0759001,2.0759001 0 0 0 2.07617,2.07617 2.0759001,2.0759001 0 0 0 2.07617,-2.07617 2.0759001,2.0759001 0 0 0 -2.07617,-2.07618 z M 134.1543,841.125 a 2.0759001,2.0759001 0 0 0 -2.07618,2.07617 2.0759001,2.0759001 0 0 0 2.07618,2.07617 2.0759001,2.0759001 0 0 0 2.07422,-2.07617 2.0759001,2.0759001 0 0 0 -2.07422,-2.07617 z m 7.88476,0 a 2.0759001,2.0759001 0 0 0 -2.07617,2.07617 2.0759001,2.0759001 0 0 0 2.07617,2.07617 2.0759001,2.0759001 0 0 0 2.07422,-2.07617 2.0759001,2.0759001 0 0 0 -2.07422,-2.07617 z m 7.88477,0 a 2.0759001,2.0759001 0 0 0 -2.07617,2.07617 2.0759001,2.0759001 0 0 0 2.07617,2.07617 A 2.0759001,2.0759001 0 0 0 152,843.20117 2.0759001,2.0759001 0 0 0 149.92383,841.125 Z m 7.88476,0 a 2.0759001,2.0759001 0 0 0 -2.07617,2.07617 2.0759001,2.0759001 0 0 0 2.07617,2.07617 2.0759001,2.0759001 0 0 0 2.07618,-2.07617 2.0759001,2.0759001 0 0 0 -2.07618,-2.07617 z m 7.88477,0 a 2.0759001,2.0759001 0 0 0 -2.07617,2.07617 2.0759001,2.0759001 0 0 0 2.07617,2.07617 2.0759001,2.0759001 0 0 0 2.07617,-2.07617 2.0759001,2.0759001 0 0 0 -2.07617,-2.07617 z m 7.88476,0 a 2.0759001,2.0759001 0 0 0 -2.07617,2.07617 2.0759001,2.0759001 0 0 0 2.07617,2.07617 2.0759001,2.0759001 0 0 0 2.07618,-2.07617 2.0759001,2.0759001 0 0 0 -2.07618,-2.07617 z m 7.88477,0 a 2.0759001,2.0759001 0 0 0 -2.07617,2.07617 2.0759001,2.0759001 0 0 0 2.07617,2.07617 2.0759001,2.0759001 0 0 0 2.07617,-2.07617 2.0759001,2.0759001 0 0 0 -2.07617,-2.07617 z m 7.88477,0 a 2.0759001,2.0759001 0 0 0 -2.07618,2.07617 2.0759001,2.0759001 0 0 0 2.07618,2.07617 2.0759001,2.0759001 0 0 0 2.07617,-2.07617 2.0759001,2.0759001 0 0 0 -2.07617,-2.07617 z m 7.88476,0 a 2.0759001,2.0759001 0 0 0 -2.07617,2.07617 2.0759001,2.0759001 0 0 0 2.07617,2.07617 2.0759001,2.0759001 0 0 0 2.07617,-2.07617 2.0759001,2.0759001 0 0 0 -2.07617,-2.07617 z m 7.88477,0 a 2.0759001,2.0759001 0 0 0 -2.07422,2.07617 2.0759001,2.0759001 0 0 0 2.07422,2.07617 2.0759001,2.0759001 0 0 0 2.07617,-2.07617 2.0759001,2.0759001 0 0 0 -2.07617,-2.07617 z m 7.88672,0 a 2.0759001,2.0759001 0 0 0 -2.07618,2.07617 2.0759001,2.0759001 0 0 0 2.07618,2.07617 2.0759001,2.0759001 0 0 0 2.07421,-2.07617 2.0759001,2.0759001 0 0 0 -2.07421,-2.07617 z m 7.88476,0 a 2.0759001,2.0759001 0 0 0 -2.07617,2.07617 2.0759001,2.0759001 0 0 0 2.07617,2.07617 2.0759001,2.0759001 0 0 0 2.07422,-2.07617 2.0759001,2.0759001 0 0 0 -2.07422,-2.07617 z m 7.88477,0 a 2.0759001,2.0759001 0 0 0 -2.07617,2.07617 2.0759001,2.0759001 0 0 0 2.07617,2.07617 2.0759001,2.0759001 0 0 0 2.07617,-2.07617 2.0759001,2.0759001 0 0 0 -2.07617,-2.07617 z m 7.88476,0 a 2.0759001,2.0759001 0 0 0 -2.07617,2.07617 2.0759001,2.0759001 0 0 0 2.07617,2.07617 2.0759001,2.0759001 0 0 0 2.07618,-2.07617 2.0759001,2.0759001 0 0 0 -2.07618,-2.07617 z m 7.88477,0 a 2.0759001,2.0759001 0 0 0 -2.07617,2.07617 2.0759001,2.0759001 0 0 0 2.07617,2.07617 2.0759001,2.0759001 0 0 0 2.07617,-2.07617 2.0759001,2.0759001 0 0 0 -2.07617,-2.07617 z m 7.88476,0 a 2.0759001,2.0759001 0 0 0 -2.07617,2.07617 2.0759001,2.0759001 0 0 0 2.07617,2.07617 2.0759001,2.0759001 0 0 0 2.07618,-2.07617 2.0759001,2.0759001 0 0 0 -2.07618,-2.07617 z m 7.88477,0 a 2.0759001,2.0759001 0 0 0 -2.07617,2.07617 2.0759001,2.0759001 0 0 0 2.07617,2.07617 2.0759001,2.0759001 0 0 0 2.07617,-2.07617 2.0759001,2.0759001 0 0 0 -2.07617,-2.07617 z m 7.88477,0 a 2.0759001,2.0759001 0 0 0 -2.07422,2.07617 2.0759001,2.0759001 0 0 0 2.07422,2.07617 2.0759001,2.0759001 0 0 0 2.07617,-2.07617 2.0759001,2.0759001 0 0 0 -2.07617,-2.07617 z m 7.88671,0 a 2.0759001,2.0759001 0 0 0 -2.07617,2.07617 2.0759001,2.0759001 0 0 0 2.07617,2.07617 2.0759001,2.0759001 0 0 0 2.07422,-2.07617 2.0759001,2.0759001 0 0 0 -2.07422,-2.07617 z m 7.88477,0 a 2.0759001,2.0759001 0 0 0 -2.07617,2.07617 2.0759001,2.0759001 0 0 0 2.07617,2.07617 2.0759001,2.0759001 0 0 0 2.07422,-2.07617 2.0759001,2.0759001 0 0 0 -2.07422,-2.07617 z m 7.88477,0 a 2.0759001,2.0759001 0 0 0 -2.07618,2.07617 2.0759001,2.0759001 0 0 0 2.07618,2.07617 2.0759001,2.0759001 0 0 0 2.07617,-2.07617 2.0759001,2.0759001 0 0 0 -2.07617,-2.07617 z m 7.88476,0 a 2.0759001,2.0759001 0 0 0 -2.07617,2.07617 2.0759001,2.0759001 0 0 0 2.07617,2.07617 2.0759001,2.0759001 0 0 0 2.07617,-2.07617 2.0759001,2.0759001 0 0 0 -2.07617,-2.07617 z m 7.88477,0 a 2.0759001,2.0759001 0 0 0 -2.07617,2.07617 2.0759001,2.0759001 0 0 0 2.07617,2.07617 2.0759001,2.0759001 0 0 0 2.07617,-2.07617 2.0759001,2.0759001 0 0 0 -2.07617,-2.07617 z m 7.88476,0 a 2.0759001,2.0759001 0 0 0 -2.07617,2.07617 2.0759001,2.0759001 0 0 0 2.07617,2.07617 2.0759001,2.0759001 0 0 0 2.07617,-2.07617 2.0759001,2.0759001 0 0 0 -2.07617,-2.07617 z m 7.88477,0 a 2.0759001,2.0759001 0 0 0 -2.07617,2.07617 2.0759001,2.0759001 0 0 0 2.07617,2.07617 2.0759001,2.0759001 0 0 0 2.07617,-2.07617 2.0759001,2.0759001 0 0 0 -2.07617,-2.07617 z m 7.88476,0 a 2.0759001,2.0759001 0 0 0 -2.07422,2.07617 2.0759001,2.0759001 0 0 0 2.07422,2.07617 2.0759001,2.0759001 0 0 0 2.07618,-2.07617 2.0759001,2.0759001 0 0 0 -2.07618,-2.07617 z m 7.88672,0 a 2.0759001,2.0759001 0 0 0 -2.07617,2.07617 2.0759001,2.0759001 0 0 0 2.07617,2.07617 2.0759001,2.0759001 0 0 0 2.07422,-2.07617 2.0759001,2.0759001 0 0 0 -2.07422,-2.07617 z m 7.88477,0 a 2.0759001,2.0759001 0 0 0 -2.07617,2.07617 2.0759001,2.0759001 0 0 0 2.07617,2.07617 2.0759001,2.0759001 0 0 0 2.07617,-2.07617 2.0759001,2.0759001 0 0 0 -2.07617,-2.07617 z m 7.88476,0 a 2.0759001,2.0759001 0 0 0 -2.07617,2.07617 2.0759001,2.0759001 0 0 0 2.07617,2.07617 2.0759001,2.0759001 0 0 0 2.07618,-2.07617 2.0759001,2.0759001 0 0 0 -2.07618,-2.07617 z m 7.88477,0 a 2.0759001,2.0759001 0 0 0 -2.07617,2.07617 2.0759001,2.0759001 0 0 0 2.07617,2.07617 2.0759001,2.0759001 0 0 0 2.07617,-2.07617 2.0759001,2.0759001 0 0 0 -2.07617,-2.07617 z m -849.43945,3.19336 -1.47657,0.70898 c -14.13649,6.77734 -28.60524,14.66025 -43.00781,23.74805 l -1.66797,1.05469 1.12891,1.625 c 11.85709,17.03187 12.61424,34.6608 8.15039,53.41406 -4.46385,18.75326 -14.26971,38.45997 -23.41602,58.85547 -3.51768,7.84412 -6.93351,15.79484 -9.90234,23.84569 h 4.04102 c 2.80609,-7.4817 5.99993,-14.91687 9.30859,-22.29491 9.10424,-20.30162 19.03128,-40.14634 23.64453,-59.52734 4.45897,-18.73278 3.60261,-37.16491 -7.75,-54.61914 13.26573,-8.28911 26.56905,-15.55093 39.61133,-21.86524 26.6137,40.36644 44.50902,90.65355 48.94726,158.30663 h 3.77735 c -4.49958,-69.16773 -22.93705,-120.67078 -50.48047,-161.88671 z m 620.77539,5.50391 a 2.0759001,2.0759001 0 0 0 -2.07618,2.07617 2.0759001,2.0759001 0 0 0 2.07618,2.07617 2.0759001,2.0759001 0 0 0 2.07422,-2.07617 2.0759001,2.0759001 0 0 0 -2.07422,-2.07617 z m 7.88476,0 a 2.0759001,2.0759001 0 0 0 -2.07617,2.07617 2.0759001,2.0759001 0 0 0 2.07617,2.07617 2.0759001,2.0759001 0 0 0 2.07422,-2.07617 2.0759001,2.0759001 0 0 0 -2.07422,-2.07617 z m 7.88477,0 a 2.0759001,2.0759001 0 0 0 -2.07617,2.07617 2.0759001,2.0759001 0 0 0 2.07617,2.07617 2.0759001,2.0759001 0 0 0 2.07617,-2.07617 2.0759001,2.0759001 0 0 0 -2.07617,-2.07617 z m 7.88476,0 a 2.0759001,2.0759001 0 0 0 -2.07617,2.07617 2.0759001,2.0759001 0 0 0 2.07617,2.07617 2.0759001,2.0759001 0 0 0 2.07618,-2.07617 2.0759001,2.0759001 0 0 0 -2.07618,-2.07617 z m 7.88477,0 a 2.0759001,2.0759001 0 0 0 -2.07617,2.07617 2.0759001,2.0759001 0 0 0 2.07617,2.07617 2.0759001,2.0759001 0 0 0 2.07617,-2.07617 2.0759001,2.0759001 0 0 0 -2.07617,-2.07617 z m 7.88476,0 a 2.0759001,2.0759001 0 0 0 -2.07617,2.07617 2.0759001,2.0759001 0 0 0 2.07617,2.07617 2.0759001,2.0759001 0 0 0 2.07618,-2.07617 2.0759001,2.0759001 0 0 0 -2.07618,-2.07617 z m 7.88477,0 a 2.0759001,2.0759001 0 0 0 -2.07617,2.07617 2.0759001,2.0759001 0 0 0 2.07617,2.07617 2.0759001,2.0759001 0 0 0 2.07617,-2.07617 2.0759001,2.0759001 0 0 0 -2.07617,-2.07617 z m 7.88477,0 a 2.0759001,2.0759001 0 0 0 -2.07618,2.07617 2.0759001,2.0759001 0 0 0 2.07618,2.07617 2.0759001,2.0759001 0 0 0 2.07617,-2.07617 2.0759001,2.0759001 0 0 0 -2.07617,-2.07617 z m 7.88476,0 a 2.0759001,2.0759001 0 0 0 -2.07617,2.07617 2.0759001,2.0759001 0 0 0 2.07617,2.07617 2.0759001,2.0759001 0 0 0 2.07617,-2.07617 2.0759001,2.0759001 0 0 0 -2.07617,-2.07617 z m 7.88477,0 a 2.0759001,2.0759001 0 0 0 -2.07422,2.07617 2.0759001,2.0759001 0 0 0 2.07422,2.07617 2.0759001,2.0759001 0 0 0 2.07617,-2.07617 2.0759001,2.0759001 0 0 0 -2.07617,-2.07617 z m 7.88672,0 a 2.0759001,2.0759001 0 0 0 -2.07618,2.07617 2.0759001,2.0759001 0 0 0 2.07618,2.07617 2.0759001,2.0759001 0 0 0 2.07421,-2.07617 2.0759001,2.0759001 0 0 0 -2.07421,-2.07617 z m 7.88476,0 a 2.0759001,2.0759001 0 0 0 -2.07617,2.07617 2.0759001,2.0759001 0 0 0 2.07617,2.07617 2.0759001,2.0759001 0 0 0 2.07422,-2.07617 2.0759001,2.0759001 0 0 0 -2.07422,-2.07617 z m 7.88477,0 a 2.0759001,2.0759001 0 0 0 -2.07617,2.07617 2.0759001,2.0759001 0 0 0 2.07617,2.07617 2.0759001,2.0759001 0 0 0 2.07617,-2.07617 2.0759001,2.0759001 0 0 0 -2.07617,-2.07617 z m 7.88476,0 a 2.0759001,2.0759001 0 0 0 -2.07617,2.07617 2.0759001,2.0759001 0 0 0 2.07617,2.07617 2.0759001,2.0759001 0 0 0 2.07618,-2.07617 2.0759001,2.0759001 0 0 0 -2.07618,-2.07617 z m 7.88477,0 a 2.0759001,2.0759001 0 0 0 -2.07617,2.07617 2.0759001,2.0759001 0 0 0 2.07617,2.07617 2.0759001,2.0759001 0 0 0 2.07617,-2.07617 2.0759001,2.0759001 0 0 0 -2.07617,-2.07617 z m 7.88476,0 a 2.0759001,2.0759001 0 0 0 -2.07617,2.07617 2.0759001,2.0759001 0 0 0 2.07617,2.07617 2.0759001,2.0759001 0 0 0 2.07618,-2.07617 2.0759001,2.0759001 0 0 0 -2.07618,-2.07617 z m 7.88477,0 a 2.0759001,2.0759001 0 0 0 -2.07617,2.07617 2.0759001,2.0759001 0 0 0 2.07617,2.07617 2.0759001,2.0759001 0 0 0 2.07617,-2.07617 2.0759001,2.0759001 0 0 0 -2.07617,-2.07617 z m 7.88477,0 a 2.0759001,2.0759001 0 0 0 -2.07422,2.07617 2.0759001,2.0759001 0 0 0 2.07422,2.07617 2.0759001,2.0759001 0 0 0 2.07617,-2.07617 2.0759001,2.0759001 0 0 0 -2.07617,-2.07617 z m 7.88671,0 a 2.0759001,2.0759001 0 0 0 -2.07617,2.07617 2.0759001,2.0759001 0 0 0 2.07617,2.07617 2.0759001,2.0759001 0 0 0 2.07422,-2.07617 2.0759001,2.0759001 0 0 0 -2.07422,-2.07617 z m 7.88477,0 a 2.0759001,2.0759001 0 0 0 -2.07617,2.07617 2.0759001,2.0759001 0 0 0 2.07617,2.07617 2.0759001,2.0759001 0 0 0 2.07422,-2.07617 2.0759001,2.0759001 0 0 0 -2.07422,-2.07617 z m 7.88477,0 a 2.0759001,2.0759001 0 0 0 -2.07618,2.07617 2.0759001,2.0759001 0 0 0 2.07618,2.07617 2.0759001,2.0759001 0 0 0 2.07617,-2.07617 2.0759001,2.0759001 0 0 0 -2.07617,-2.07617 z m 7.88476,0 a 2.0759001,2.0759001 0 0 0 -2.07617,2.07617 2.0759001,2.0759001 0 0 0 2.07617,2.07617 2.0759001,2.0759001 0 0 0 2.07617,-2.07617 2.0759001,2.0759001 0 0 0 -2.07617,-2.07617 z m 7.88477,0 a 2.0759001,2.0759001 0 0 0 -2.07617,2.07617 2.0759001,2.0759001 0 0 0 2.07617,2.07617 2.0759001,2.0759001 0 0 0 2.07617,-2.07617 2.0759001,2.0759001 0 0 0 -2.07617,-2.07617 z m 7.88476,0 a 2.0759001,2.0759001 0 0 0 -2.07617,2.07617 2.0759001,2.0759001 0 0 0 2.07617,2.07617 2.0759001,2.0759001 0 0 0 2.07617,-2.07617 2.0759001,2.0759001 0 0 0 -2.07617,-2.07617 z m 7.88477,0 a 2.0759001,2.0759001 0 0 0 -2.07617,2.07617 2.0759001,2.0759001 0 0 0 2.07617,2.07617 2.0759001,2.0759001 0 0 0 2.07617,-2.07617 2.0759001,2.0759001 0 0 0 -2.07617,-2.07617 z m 7.88476,0 a 2.0759001,2.0759001 0 0 0 -2.07422,2.07617 2.0759001,2.0759001 0 0 0 2.07422,2.07617 2.0759001,2.0759001 0 0 0 2.07618,-2.07617 2.0759001,2.0759001 0 0 0 -2.07618,-2.07617 z m 7.88672,0 a 2.0759001,2.0759001 0 0 0 -2.07617,2.07617 2.0759001,2.0759001 0 0 0 2.07617,2.07617 2.0759001,2.0759001 0 0 0 2.07422,-2.07617 2.0759001,2.0759001 0 0 0 -2.07422,-2.07617 z m 7.88477,0 a 2.0759001,2.0759001 0 0 0 -2.07617,2.07617 2.0759001,2.0759001 0 0 0 2.07617,2.07617 2.0759001,2.0759001 0 0 0 2.07617,-2.07617 2.0759001,2.0759001 0 0 0 -2.07617,-2.07617 z m 7.88476,0 a 2.0759001,2.0759001 0 0 0 -2.07617,2.07617 2.0759001,2.0759001 0 0 0 2.07617,2.07617 2.0759001,2.0759001 0 0 0 2.07618,-2.07617 2.0759001,2.0759001 0 0 0 -2.07618,-2.07617 z m 7.88477,0 a 2.0759001,2.0759001 0 0 0 -2.07617,2.07617 2.0759001,2.0759001 0 0 0 2.07617,2.07617 2.0759001,2.0759001 0 0 0 2.07617,-2.07617 2.0759001,2.0759001 0 0 0 -2.07617,-2.07617 z m 173.86719,7.64257 16.22461,12.41797 9.35546,7.16407 c -0.6099,3.23333 -1.23317,6.45443 -1.85156,9.6875 l -10.26367,4.25976 -18.86914,7.83984 6.5332,-19.82812 a 1.8899528,1.8899528 0 0 0 0.0957,-0.70117 z m -402.53125,1.05469 a 2.0759001,2.0759001 0 0 0 -2.07618,2.07617 2.0759001,2.0759001 0 0 0 2.07618,2.07422 2.0759001,2.0759001 0 0 0 2.07422,-2.07422 2.0759001,2.0759001 0 0 0 -2.07422,-2.07617 z m 7.88476,0 a 2.0759001,2.0759001 0 0 0 -2.07617,2.07617 2.0759001,2.0759001 0 0 0 2.07617,2.07422 2.0759001,2.0759001 0 0 0 2.07422,-2.07422 2.0759001,2.0759001 0 0 0 -2.07422,-2.07617 z m 7.88477,0 a 2.0759001,2.0759001 0 0 0 -2.07617,2.07617 2.0759001,2.0759001 0 0 0 2.07617,2.07422 2.0759001,2.0759001 0 0 0 2.07617,-2.07422 2.0759001,2.0759001 0 0 0 -2.07617,-2.07617 z m 7.88476,0 a 2.0759001,2.0759001 0 0 0 -2.07617,2.07617 2.0759001,2.0759001 0 0 0 2.07617,2.07422 2.0759001,2.0759001 0 0 0 2.07618,-2.07422 2.0759001,2.0759001 0 0 0 -2.07618,-2.07617 z m 7.88477,0 a 2.0759001,2.0759001 0 0 0 -2.07617,2.07617 2.0759001,2.0759001 0 0 0 2.07617,2.07422 2.0759001,2.0759001 0 0 0 2.07617,-2.07422 2.0759001,2.0759001 0 0 0 -2.07617,-2.07617 z m 7.88476,0 a 2.0759001,2.0759001 0 0 0 -2.07617,2.07617 2.0759001,2.0759001 0 0 0 2.07617,2.07422 2.0759001,2.0759001 0 0 0 2.07618,-2.07422 2.0759001,2.0759001 0 0 0 -2.07618,-2.07617 z m 7.88477,0 a 2.0759001,2.0759001 0 0 0 -2.07617,2.07617 2.0759001,2.0759001 0 0 0 2.07617,2.07422 2.0759001,2.0759001 0 0 0 2.07617,-2.07422 2.0759001,2.0759001 0 0 0 -2.07617,-2.07617 z m 7.88477,0 a 2.0759001,2.0759001 0 0 0 -2.07618,2.07617 2.0759001,2.0759001 0 0 0 2.07618,2.07422 2.0759001,2.0759001 0 0 0 2.07617,-2.07422 2.0759001,2.0759001 0 0 0 -2.07617,-2.07617 z m 7.88476,0 a 2.0759001,2.0759001 0 0 0 -2.07617,2.07617 2.0759001,2.0759001 0 0 0 2.07617,2.07422 2.0759001,2.0759001 0 0 0 2.07617,-2.07422 2.0759001,2.0759001 0 0 0 -2.07617,-2.07617 z m 7.88477,0 a 2.0759001,2.0759001 0 0 0 -2.07422,2.07617 2.0759001,2.0759001 0 0 0 2.07422,2.07422 2.0759001,2.0759001 0 0 0 2.07617,-2.07422 2.0759001,2.0759001 0 0 0 -2.07617,-2.07617 z m 7.88672,0 a 2.0759001,2.0759001 0 0 0 -2.07618,2.07617 2.0759001,2.0759001 0 0 0 2.07618,2.07422 2.0759001,2.0759001 0 0 0 2.07421,-2.07422 2.0759001,2.0759001 0 0 0 -2.07421,-2.07617 z m 7.88476,0 a 2.0759001,2.0759001 0 0 0 -2.07617,2.07617 2.0759001,2.0759001 0 0 0 2.07617,2.07422 2.0759001,2.0759001 0 0 0 2.07422,-2.07422 2.0759001,2.0759001 0 0 0 -2.07422,-2.07617 z m 7.88477,0 a 2.0759001,2.0759001 0 0 0 -2.07617,2.07617 2.0759001,2.0759001 0 0 0 2.07617,2.07422 2.0759001,2.0759001 0 0 0 2.07617,-2.07422 2.0759001,2.0759001 0 0 0 -2.07617,-2.07617 z m 7.88476,0 a 2.0759001,2.0759001 0 0 0 -2.07617,2.07617 2.0759001,2.0759001 0 0 0 2.07617,2.07422 2.0759001,2.0759001 0 0 0 2.07618,-2.07422 2.0759001,2.0759001 0 0 0 -2.07618,-2.07617 z m 7.88477,0 a 2.0759001,2.0759001 0 0 0 -2.07617,2.07617 2.0759001,2.0759001 0 0 0 2.07617,2.07422 2.0759001,2.0759001 0 0 0 2.07617,-2.07422 2.0759001,2.0759001 0 0 0 -2.07617,-2.07617 z m 7.88476,0 a 2.0759001,2.0759001 0 0 0 -2.07617,2.07617 2.0759001,2.0759001 0 0 0 2.07617,2.07422 2.0759001,2.0759001 0 0 0 2.07618,-2.07422 2.0759001,2.0759001 0 0 0 -2.07618,-2.07617 z m 7.88477,0 a 2.0759001,2.0759001 0 0 0 -2.07617,2.07617 2.0759001,2.0759001 0 0 0 2.07617,2.07422 2.0759001,2.0759001 0 0 0 2.07617,-2.07422 2.0759001,2.0759001 0 0 0 -2.07617,-2.07617 z m 7.88477,0 a 2.0759001,2.0759001 0 0 0 -2.07422,2.07617 2.0759001,2.0759001 0 0 0 2.07422,2.07422 2.0759001,2.0759001 0 0 0 2.07617,-2.07422 2.0759001,2.0759001 0 0 0 -2.07617,-2.07617 z m 7.88671,0 a 2.0759001,2.0759001 0 0 0 -2.07617,2.07617 2.0759001,2.0759001 0 0 0 2.07617,2.07422 2.0759001,2.0759001 0 0 0 2.07422,-2.07422 2.0759001,2.0759001 0 0 0 -2.07422,-2.07617 z m 7.88477,0 a 2.0759001,2.0759001 0 0 0 -2.07617,2.07617 2.0759001,2.0759001 0 0 0 2.07617,2.07422 2.0759001,2.0759001 0 0 0 2.07422,-2.07422 2.0759001,2.0759001 0 0 0 -2.07422,-2.07617 z m 7.88477,0 a 2.0759001,2.0759001 0 0 0 -2.07618,2.07617 2.0759001,2.0759001 0 0 0 2.07618,2.07422 2.0759001,2.0759001 0 0 0 2.07617,-2.07422 2.0759001,2.0759001 0 0 0 -2.07617,-2.07617 z m 7.88476,0 a 2.0759001,2.0759001 0 0 0 -2.07617,2.07617 2.0759001,2.0759001 0 0 0 2.07617,2.07422 2.0759001,2.0759001 0 0 0 2.07617,-2.07422 2.0759001,2.0759001 0 0 0 -2.07617,-2.07617 z m 7.88477,0 a 2.0759001,2.0759001 0 0 0 -2.07617,2.07617 2.0759001,2.0759001 0 0 0 2.07617,2.07422 2.0759001,2.0759001 0 0 0 2.07617,-2.07422 2.0759001,2.0759001 0 0 0 -2.07617,-2.07617 z m 7.88476,0 a 2.0759001,2.0759001 0 0 0 -2.07617,2.07617 2.0759001,2.0759001 0 0 0 2.07617,2.07422 2.0759001,2.0759001 0 0 0 2.07617,-2.07422 2.0759001,2.0759001 0 0 0 -2.07617,-2.07617 z m 7.88477,0 a 2.0759001,2.0759001 0 0 0 -2.07617,2.07617 2.0759001,2.0759001 0 0 0 2.07617,2.07422 2.0759001,2.0759001 0 0 0 2.07617,-2.07422 2.0759001,2.0759001 0 0 0 -2.07617,-2.07617 z m 7.88476,0 a 2.0759001,2.0759001 0 0 0 -2.07422,2.07617 2.0759001,2.0759001 0 0 0 2.07422,2.07422 2.0759001,2.0759001 0 0 0 2.07618,-2.07422 2.0759001,2.0759001 0 0 0 -2.07618,-2.07617 z m 7.88672,0 a 2.0759001,2.0759001 0 0 0 -2.07617,2.07617 2.0759001,2.0759001 0 0 0 2.07617,2.07422 2.0759001,2.0759001 0 0 0 2.07422,-2.07422 2.0759001,2.0759001 0 0 0 -2.07422,-2.07617 z m 7.88477,0 a 2.0759001,2.0759001 0 0 0 -2.07617,2.07617 2.0759001,2.0759001 0 0 0 2.07617,2.07422 2.0759001,2.0759001 0 0 0 2.07617,-2.07422 2.0759001,2.0759001 0 0 0 -2.07617,-2.07617 z m 7.88476,0 a 2.0759001,2.0759001 0 0 0 -2.07617,2.07617 2.0759001,2.0759001 0 0 0 2.07617,2.07422 2.0759001,2.0759001 0 0 0 2.07618,-2.07422 2.0759001,2.0759001 0 0 0 -2.07618,-2.07617 z m 7.88477,0 a 2.0759001,2.0759001 0 0 0 -2.07617,2.07617 2.0759001,2.0759001 0 0 0 2.07617,2.07422 2.0759001,2.0759001 0 0 0 2.07617,-2.07422 2.0759001,2.0759001 0 0 0 -2.07617,-2.07617 z m 232.02148,6.49024 -6.14843,19.96093 a 1.8899528,1.8899528 0 0 0 -0.082,0.63477 l 0.82031,20.875 -16.31446,-12.48828 -8.89062,-6.8125 c 0.6606,-3.4288 1.31947,-6.83983 1.9707,-10.27149 l 9.68164,-4.02148 z m -460.68554,2.20507 a 2.0759001,2.0759001 0 0 0 -2.07618,2.07618 2.0759001,2.0759001 0 0 0 2.07618,2.07617 2.0759001,2.0759001 0 0 0 2.07422,-2.07617 2.0759001,2.0759001 0 0 0 -2.07422,-2.07618 z m 7.88476,0 a 2.0759001,2.0759001 0 0 0 -2.07617,2.07618 2.0759001,2.0759001 0 0 0 2.07617,2.07617 2.0759001,2.0759001 0 0 0 2.07422,-2.07617 2.0759001,2.0759001 0 0 0 -2.07422,-2.07618 z m 7.88477,0 a 2.0759001,2.0759001 0 0 0 -2.07617,2.07618 2.0759001,2.0759001 0 0 0 2.07617,2.07617 2.0759001,2.0759001 0 0 0 2.07617,-2.07617 2.0759001,2.0759001 0 0 0 -2.07617,-2.07618 z m 7.88476,0 a 2.0759001,2.0759001 0 0 0 -2.07617,2.07618 2.0759001,2.0759001 0 0 0 2.07617,2.07617 2.0759001,2.0759001 0 0 0 2.07618,-2.07617 2.0759001,2.0759001 0 0 0 -2.07618,-2.07618 z m 7.88477,0 a 2.0759001,2.0759001 0 0 0 -2.07617,2.07618 2.0759001,2.0759001 0 0 0 2.07617,2.07617 2.0759001,2.0759001 0 0 0 2.07617,-2.07617 2.0759001,2.0759001 0 0 0 -2.07617,-2.07618 z m 7.88476,0 a 2.0759001,2.0759001 0 0 0 -2.07617,2.07618 2.0759001,2.0759001 0 0 0 2.07617,2.07617 2.0759001,2.0759001 0 0 0 2.07618,-2.07617 2.0759001,2.0759001 0 0 0 -2.07618,-2.07618 z m 7.88477,0 a 2.0759001,2.0759001 0 0 0 -2.07617,2.07618 2.0759001,2.0759001 0 0 0 2.07617,2.07617 2.0759001,2.0759001 0 0 0 2.07617,-2.07617 2.0759001,2.0759001 0 0 0 -2.07617,-2.07618 z m 7.88477,0 a 2.0759001,2.0759001 0 0 0 -2.07618,2.07618 2.0759001,2.0759001 0 0 0 2.07618,2.07617 2.0759001,2.0759001 0 0 0 2.07617,-2.07617 2.0759001,2.0759001 0 0 0 -2.07617,-2.07618 z m 7.88476,0 a 2.0759001,2.0759001 0 0 0 -2.07617,2.07618 2.0759001,2.0759001 0 0 0 2.07617,2.07617 2.0759001,2.0759001 0 0 0 2.07617,-2.07617 2.0759001,2.0759001 0 0 0 -2.07617,-2.07618 z m 7.88477,0 a 2.0759001,2.0759001 0 0 0 -2.07422,2.07618 2.0759001,2.0759001 0 0 0 2.07422,2.07617 2.0759001,2.0759001 0 0 0 2.07617,-2.07617 2.0759001,2.0759001 0 0 0 -2.07617,-2.07618 z m 7.88672,0 a 2.0759001,2.0759001 0 0 0 -2.07618,2.07618 2.0759001,2.0759001 0 0 0 2.07618,2.07617 2.0759001,2.0759001 0 0 0 2.07421,-2.07617 2.0759001,2.0759001 0 0 0 -2.07421,-2.07618 z m 7.88476,0 a 2.0759001,2.0759001 0 0 0 -2.07617,2.07618 2.0759001,2.0759001 0 0 0 2.07617,2.07617 2.0759001,2.0759001 0 0 0 2.07422,-2.07617 2.0759001,2.0759001 0 0 0 -2.07422,-2.07618 z m 7.88477,0 a 2.0759001,2.0759001 0 0 0 -2.07617,2.07618 2.0759001,2.0759001 0 0 0 2.07617,2.07617 2.0759001,2.0759001 0 0 0 2.07617,-2.07617 2.0759001,2.0759001 0 0 0 -2.07617,-2.07618 z m 7.88476,0 a 2.0759001,2.0759001 0 0 0 -2.07617,2.07618 2.0759001,2.0759001 0 0 0 2.07617,2.07617 2.0759001,2.0759001 0 0 0 2.07618,-2.07617 2.0759001,2.0759001 0 0 0 -2.07618,-2.07618 z m 7.88477,0 a 2.0759001,2.0759001 0 0 0 -2.07617,2.07618 2.0759001,2.0759001 0 0 0 2.07617,2.07617 2.0759001,2.0759001 0 0 0 2.07617,-2.07617 2.0759001,2.0759001 0 0 0 -2.07617,-2.07618 z m 7.88476,0 a 2.0759001,2.0759001 0 0 0 -2.07617,2.07618 2.0759001,2.0759001 0 0 0 2.07617,2.07617 2.0759001,2.0759001 0 0 0 2.07618,-2.07617 2.0759001,2.0759001 0 0 0 -2.07618,-2.07618 z m 7.88477,0 a 2.0759001,2.0759001 0 0 0 -2.07617,2.07618 2.0759001,2.0759001 0 0 0 2.07617,2.07617 2.0759001,2.0759001 0 0 0 2.07617,-2.07617 2.0759001,2.0759001 0 0 0 -2.07617,-2.07618 z m 7.88477,0 a 2.0759001,2.0759001 0 0 0 -2.07422,2.07618 2.0759001,2.0759001 0 0 0 2.07422,2.07617 2.0759001,2.0759001 0 0 0 2.07617,-2.07617 2.0759001,2.0759001 0 0 0 -2.07617,-2.07618 z m 7.88671,0 a 2.0759001,2.0759001 0 0 0 -2.07617,2.07618 2.0759001,2.0759001 0 0 0 2.07617,2.07617 2.0759001,2.0759001 0 0 0 2.07422,-2.07617 2.0759001,2.0759001 0 0 0 -2.07422,-2.07618 z m 7.88477,0 a 2.0759001,2.0759001 0 0 0 -2.07617,2.07618 2.0759001,2.0759001 0 0 0 2.07617,2.07617 2.0759001,2.0759001 0 0 0 2.07422,-2.07617 2.0759001,2.0759001 0 0 0 -2.07422,-2.07618 z m 7.88477,0 a 2.0759001,2.0759001 0 0 0 -2.07618,2.07618 2.0759001,2.0759001 0 0 0 2.07618,2.07617 2.0759001,2.0759001 0 0 0 2.07617,-2.07617 2.0759001,2.0759001 0 0 0 -2.07617,-2.07618 z m 7.88476,0 a 2.0759001,2.0759001 0 0 0 -2.07617,2.07618 2.0759001,2.0759001 0 0 0 2.07617,2.07617 2.0759001,2.0759001 0 0 0 2.07617,-2.07617 2.0759001,2.0759001 0 0 0 -2.07617,-2.07618 z m 7.88477,0 a 2.0759001,2.0759001 0 0 0 -2.07617,2.07618 2.0759001,2.0759001 0 0 0 2.07617,2.07617 2.0759001,2.0759001 0 0 0 2.07617,-2.07617 2.0759001,2.0759001 0 0 0 -2.07617,-2.07618 z m 7.88476,0 a 2.0759001,2.0759001 0 0 0 -2.07617,2.07618 2.0759001,2.0759001 0 0 0 2.07617,2.07617 2.0759001,2.0759001 0 0 0 2.07617,-2.07617 2.0759001,2.0759001 0 0 0 -2.07617,-2.07618 z m 7.88477,0 a 2.0759001,2.0759001 0 0 0 -2.07617,2.07618 2.0759001,2.0759001 0 0 0 2.07617,2.07617 2.0759001,2.0759001 0 0 0 2.07617,-2.07617 2.0759001,2.0759001 0 0 0 -2.07617,-2.07618 z m 7.88476,0 a 2.0759001,2.0759001 0 0 0 -2.07422,2.07618 2.0759001,2.0759001 0 0 0 2.07422,2.07617 2.0759001,2.0759001 0 0 0 2.07618,-2.07617 2.0759001,2.0759001 0 0 0 -2.07618,-2.07618 z m 7.88672,0 a 2.0759001,2.0759001 0 0 0 -2.07617,2.07618 2.0759001,2.0759001 0 0 0 2.07617,2.07617 2.0759001,2.0759001 0 0 0 2.07422,-2.07617 2.0759001,2.0759001 0 0 0 -2.07422,-2.07618 z m 7.88477,0 a 2.0759001,2.0759001 0 0 0 -2.07617,2.07618 2.0759001,2.0759001 0 0 0 2.07617,2.07617 2.0759001,2.0759001 0 0 0 2.07617,-2.07617 2.0759001,2.0759001 0 0 0 -2.07617,-2.07618 z m 7.88476,0 a 2.0759001,2.0759001 0 0 0 -2.07617,2.07618 2.0759001,2.0759001 0 0 0 2.07617,2.07617 2.0759001,2.0759001 0 0 0 2.07618,-2.07617 2.0759001,2.0759001 0 0 0 -2.07618,-2.07618 z m 7.88477,0 a 2.0759001,2.0759001 0 0 0 -2.07617,2.07618 2.0759001,2.0759001 0 0 0 2.07617,2.07617 2.0759001,2.0759001 0 0 0 2.07617,-2.07617 2.0759001,2.0759001 0 0 0 -2.07617,-2.07618 z m -902.51563,7.00782 -1.60156,1.0625 c -45.86062,30.62674 -90.09786,73.69201 -119.23437,132.28514 h 4.24023 c 28.4202,-56.26609 70.96665,-97.8947 115.31055,-127.85546 7.93232,13.6314 7.31717,28.82172 2.24414,45.77539 -5.2955,17.69719 -15.22431,37.02236 -24.14649,57.36329 -3.54485,8.08163 -6.92237,16.33133 -9.78711,24.71678 h 3.99024 c 2.72273,-7.82634 5.90429,-15.57107 9.25195,-23.20311 8.86042,-20.20029 18.85905,-39.58105 24.3086,-57.79297 5.44951,-18.21192 6.31368,-35.49157 -3.53516,-50.74219 z m 673.85157,1.68945 a 2.0759001,2.0759001 0 0 0 -2.07618,2.07617 2.0759001,2.0759001 0 0 0 2.07618,2.07617 2.0759001,2.0759001 0 0 0 2.07422,-2.07617 2.0759001,2.0759001 0 0 0 -2.07422,-2.07617 z m 7.88476,0 a 2.0759001,2.0759001 0 0 0 -2.07617,2.07617 2.0759001,2.0759001 0 0 0 2.07617,2.07617 2.0759001,2.0759001 0 0 0 2.07422,-2.07617 2.0759001,2.0759001 0 0 0 -2.07422,-2.07617 z m 7.88477,0 a 2.0759001,2.0759001 0 0 0 -2.07617,2.07617 2.0759001,2.0759001 0 0 0 2.07617,2.07617 2.0759001,2.0759001 0 0 0 2.07617,-2.07617 2.0759001,2.0759001 0 0 0 -2.07617,-2.07617 z m 7.88476,0 a 2.0759001,2.0759001 0 0 0 -2.07617,2.07617 2.0759001,2.0759001 0 0 0 2.07617,2.07617 2.0759001,2.0759001 0 0 0 2.07618,-2.07617 2.0759001,2.0759001 0 0 0 -2.07618,-2.07617 z m 7.88477,0 a 2.0759001,2.0759001 0 0 0 -2.07617,2.07617 2.0759001,2.0759001 0 0 0 2.07617,2.07617 2.0759001,2.0759001 0 0 0 2.07617,-2.07617 2.0759001,2.0759001 0 0 0 -2.07617,-2.07617 z m 7.88476,0 a 2.0759001,2.0759001 0 0 0 -2.07617,2.07617 2.0759001,2.0759001 0 0 0 2.07617,2.07617 2.0759001,2.0759001 0 0 0 2.07618,-2.07617 2.0759001,2.0759001 0 0 0 -2.07618,-2.07617 z m 7.88477,0 a 2.0759001,2.0759001 0 0 0 -2.07617,2.07617 2.0759001,2.0759001 0 0 0 2.07617,2.07617 2.0759001,2.0759001 0 0 0 2.07617,-2.07617 2.0759001,2.0759001 0 0 0 -2.07617,-2.07617 z m 7.88477,0 a 2.0759001,2.0759001 0 0 0 -2.07618,2.07617 2.0759001,2.0759001 0 0 0 2.07618,2.07617 2.0759001,2.0759001 0 0 0 2.07617,-2.07617 2.0759001,2.0759001 0 0 0 -2.07617,-2.07617 z m 7.88476,0 a 2.0759001,2.0759001 0 0 0 -2.07617,2.07617 2.0759001,2.0759001 0 0 0 2.07617,2.07617 2.0759001,2.0759001 0 0 0 2.07617,-2.07617 2.0759001,2.0759001 0 0 0 -2.07617,-2.07617 z m 7.88477,0 a 2.0759001,2.0759001 0 0 0 -2.07422,2.07617 2.0759001,2.0759001 0 0 0 2.07422,2.07617 2.0759001,2.0759001 0 0 0 2.07617,-2.07617 2.0759001,2.0759001 0 0 0 -2.07617,-2.07617 z m 7.88672,0 a 2.0759001,2.0759001 0 0 0 -2.07618,2.07617 2.0759001,2.0759001 0 0 0 2.07618,2.07617 2.0759001,2.0759001 0 0 0 2.07421,-2.07617 2.0759001,2.0759001 0 0 0 -2.07421,-2.07617 z m 7.88476,0 a 2.0759001,2.0759001 0 0 0 -2.07617,2.07617 2.0759001,2.0759001 0 0 0 2.07617,2.07617 2.0759001,2.0759001 0 0 0 2.07422,-2.07617 2.0759001,2.0759001 0 0 0 -2.07422,-2.07617 z m 7.88477,0 a 2.0759001,2.0759001 0 0 0 -2.07617,2.07617 2.0759001,2.0759001 0 0 0 2.07617,2.07617 2.0759001,2.0759001 0 0 0 2.07617,-2.07617 2.0759001,2.0759001 0 0 0 -2.07617,-2.07617 z m 7.88476,0 a 2.0759001,2.0759001 0 0 0 -2.07617,2.07617 2.0759001,2.0759001 0 0 0 2.07617,2.07617 2.0759001,2.0759001 0 0 0 2.07618,-2.07617 2.0759001,2.0759001 0 0 0 -2.07618,-2.07617 z m 7.88477,0 a 2.0759001,2.0759001 0 0 0 -2.07617,2.07617 2.0759001,2.0759001 0 0 0 2.07617,2.07617 2.0759001,2.0759001 0 0 0 2.07617,-2.07617 2.0759001,2.0759001 0 0 0 -2.07617,-2.07617 z m 7.88476,0 a 2.0759001,2.0759001 0 0 0 -2.07617,2.07617 2.0759001,2.0759001 0 0 0 2.07617,2.07617 2.0759001,2.0759001 0 0 0 2.07618,-2.07617 2.0759001,2.0759001 0 0 0 -2.07618,-2.07617 z m 7.88477,0 a 2.0759001,2.0759001 0 0 0 -2.07617,2.07617 2.0759001,2.0759001 0 0 0 2.07617,2.07617 2.0759001,2.0759001 0 0 0 2.07617,-2.07617 2.0759001,2.0759001 0 0 0 -2.07617,-2.07617 z m 7.88477,0 a 2.0759001,2.0759001 0 0 0 -2.07422,2.07617 2.0759001,2.0759001 0 0 0 2.07422,2.07617 2.0759001,2.0759001 0 0 0 2.07617,-2.07617 2.0759001,2.0759001 0 0 0 -2.07617,-2.07617 z m 7.88671,0 a 2.0759001,2.0759001 0 0 0 -2.07617,2.07617 2.0759001,2.0759001 0 0 0 2.07617,2.07617 2.0759001,2.0759001 0 0 0 2.07422,-2.07617 2.0759001,2.0759001 0 0 0 -2.07422,-2.07617 z m 7.88477,0 a 2.0759001,2.0759001 0 0 0 -2.07617,2.07617 2.0759001,2.0759001 0 0 0 2.07617,2.07617 2.0759001,2.0759001 0 0 0 2.07422,-2.07617 2.0759001,2.0759001 0 0 0 -2.07422,-2.07617 z m 7.88477,0 a 2.0759001,2.0759001 0 0 0 -2.07618,2.07617 2.0759001,2.0759001 0 0 0 2.07618,2.07617 2.0759001,2.0759001 0 0 0 2.07617,-2.07617 2.0759001,2.0759001 0 0 0 -2.07617,-2.07617 z m 7.88476,0 a 2.0759001,2.0759001 0 0 0 -2.07617,2.07617 2.0759001,2.0759001 0 0 0 2.07617,2.07617 2.0759001,2.0759001 0 0 0 2.07617,-2.07617 2.0759001,2.0759001 0 0 0 -2.07617,-2.07617 z m 7.88477,0 a 2.0759001,2.0759001 0 0 0 -2.07617,2.07617 2.0759001,2.0759001 0 0 0 2.07617,2.07617 2.0759001,2.0759001 0 0 0 2.07617,-2.07617 2.0759001,2.0759001 0 0 0 -2.07617,-2.07617 z m 7.88476,0 a 2.0759001,2.0759001 0 0 0 -2.07617,2.07617 2.0759001,2.0759001 0 0 0 2.07617,2.07617 2.0759001,2.0759001 0 0 0 2.07617,-2.07617 2.0759001,2.0759001 0 0 0 -2.07617,-2.07617 z m 7.88477,0 a 2.0759001,2.0759001 0 0 0 -2.07617,2.07617 2.0759001,2.0759001 0 0 0 2.07617,2.07617 2.0759001,2.0759001 0 0 0 2.07617,-2.07617 2.0759001,2.0759001 0 0 0 -2.07617,-2.07617 z m 7.88476,0 a 2.0759001,2.0759001 0 0 0 -2.07422,2.07617 2.0759001,2.0759001 0 0 0 2.07422,2.07617 2.0759001,2.0759001 0 0 0 2.07618,-2.07617 2.0759001,2.0759001 0 0 0 -2.07618,-2.07617 z m 7.88672,0 a 2.0759001,2.0759001 0 0 0 -2.07617,2.07617 2.0759001,2.0759001 0 0 0 2.07617,2.07617 2.0759001,2.0759001 0 0 0 2.07422,-2.07617 2.0759001,2.0759001 0 0 0 -2.07422,-2.07617 z m 7.88477,0 a 2.0759001,2.0759001 0 0 0 -2.07617,2.07617 2.0759001,2.0759001 0 0 0 2.07617,2.07617 2.0759001,2.0759001 0 0 0 2.07617,-2.07617 2.0759001,2.0759001 0 0 0 -2.07617,-2.07617 z m 7.88476,0 a 2.0759001,2.0759001 0 0 0 -2.07617,2.07617 2.0759001,2.0759001 0 0 0 2.07617,2.07617 2.0759001,2.0759001 0 0 0 2.07618,-2.07617 2.0759001,2.0759001 0 0 0 -2.07618,-2.07617 z m 7.88477,0 a 2.0759001,2.0759001 0 0 0 -2.07617,2.07617 2.0759001,2.0759001 0 0 0 2.07617,2.07617 2.0759001,2.0759001 0 0 0 2.07617,-2.07617 2.0759001,2.0759001 0 0 0 -2.07617,-2.07617 z m 479.12305,4.74805 25.55664,6.35546 -5.39649,21.73047 L 843.75,928 836.5625,902.31641 Z m -1119.86914,0.30273 h 267.142574 v 19.1543 H -277.92773 Z m 412.08203,3.64649 a 2.0759001,2.0759001 0 0 0 -2.07618,2.07617 2.0759001,2.0759001 0 0 0 2.07618,2.07617 2.0759001,2.0759001 0 0 0 2.07422,-2.07617 2.0759001,2.0759001 0 0 0 -2.07422,-2.07617 z m 7.88476,0 a 2.0759001,2.0759001 0 0 0 -2.07617,2.07617 2.0759001,2.0759001 0 0 0 2.07617,2.07617 2.0759001,2.0759001 0 0 0 2.07422,-2.07617 2.0759001,2.0759001 0 0 0 -2.07422,-2.07617 z m 7.88477,0 a 2.0759001,2.0759001 0 0 0 -2.07617,2.07617 2.0759001,2.0759001 0 0 0 2.07617,2.07617 2.0759001,2.0759001 0 0 0 2.07617,-2.07617 2.0759001,2.0759001 0 0 0 -2.07617,-2.07617 z m 7.88476,0 a 2.0759001,2.0759001 0 0 0 -2.07617,2.07617 2.0759001,2.0759001 0 0 0 2.07617,2.07617 2.0759001,2.0759001 0 0 0 2.07618,-2.07617 2.0759001,2.0759001 0 0 0 -2.07618,-2.07617 z m 7.88477,0 a 2.0759001,2.0759001 0 0 0 -2.07617,2.07617 2.0759001,2.0759001 0 0 0 2.07617,2.07617 2.0759001,2.0759001 0 0 0 2.07617,-2.07617 2.0759001,2.0759001 0 0 0 -2.07617,-2.07617 z m 7.88476,0 a 2.0759001,2.0759001 0 0 0 -2.07617,2.07617 2.0759001,2.0759001 0 0 0 2.07617,2.07617 2.0759001,2.0759001 0 0 0 2.07618,-2.07617 2.0759001,2.0759001 0 0 0 -2.07618,-2.07617 z m 7.88477,0 a 2.0759001,2.0759001 0 0 0 -2.07617,2.07617 2.0759001,2.0759001 0 0 0 2.07617,2.07617 2.0759001,2.0759001 0 0 0 2.07617,-2.07617 2.0759001,2.0759001 0 0 0 -2.07617,-2.07617 z m 7.88477,0 a 2.0759001,2.0759001 0 0 0 -2.07618,2.07617 2.0759001,2.0759001 0 0 0 2.07618,2.07617 2.0759001,2.0759001 0 0 0 2.07617,-2.07617 2.0759001,2.0759001 0 0 0 -2.07617,-2.07617 z m 7.88476,0 a 2.0759001,2.0759001 0 0 0 -2.07617,2.07617 2.0759001,2.0759001 0 0 0 2.07617,2.07617 2.0759001,2.0759001 0 0 0 2.07617,-2.07617 2.0759001,2.0759001 0 0 0 -2.07617,-2.07617 z m 7.88477,0 a 2.0759001,2.0759001 0 0 0 -2.07422,2.07617 2.0759001,2.0759001 0 0 0 2.07422,2.07617 2.0759001,2.0759001 0 0 0 2.07617,-2.07617 2.0759001,2.0759001 0 0 0 -2.07617,-2.07617 z m 7.88672,0 a 2.0759001,2.0759001 0 0 0 -2.07618,2.07617 2.0759001,2.0759001 0 0 0 2.07618,2.07617 2.0759001,2.0759001 0 0 0 2.07421,-2.07617 2.0759001,2.0759001 0 0 0 -2.07421,-2.07617 z m 7.88476,0 a 2.0759001,2.0759001 0 0 0 -2.07617,2.07617 2.0759001,2.0759001 0 0 0 2.07617,2.07617 2.0759001,2.0759001 0 0 0 2.07422,-2.07617 2.0759001,2.0759001 0 0 0 -2.07422,-2.07617 z m 7.88477,0 a 2.0759001,2.0759001 0 0 0 -2.07617,2.07617 2.0759001,2.0759001 0 0 0 2.07617,2.07617 2.0759001,2.0759001 0 0 0 2.07617,-2.07617 2.0759001,2.0759001 0 0 0 -2.07617,-2.07617 z m 7.88476,0 a 2.0759001,2.0759001 0 0 0 -2.07617,2.07617 2.0759001,2.0759001 0 0 0 2.07617,2.07617 2.0759001,2.0759001 0 0 0 2.07618,-2.07617 2.0759001,2.0759001 0 0 0 -2.07618,-2.07617 z m 7.88477,0 a 2.0759001,2.0759001 0 0 0 -2.07617,2.07617 2.0759001,2.0759001 0 0 0 2.07617,2.07617 2.0759001,2.0759001 0 0 0 2.07617,-2.07617 2.0759001,2.0759001 0 0 0 -2.07617,-2.07617 z m 7.88476,0 a 2.0759001,2.0759001 0 0 0 -2.07617,2.07617 2.0759001,2.0759001 0 0 0 2.07617,2.07617 2.0759001,2.0759001 0 0 0 2.07618,-2.07617 2.0759001,2.0759001 0 0 0 -2.07618,-2.07617 z m 7.88477,0 a 2.0759001,2.0759001 0 0 0 -2.07617,2.07617 2.0759001,2.0759001 0 0 0 2.07617,2.07617 2.0759001,2.0759001 0 0 0 2.07617,-2.07617 2.0759001,2.0759001 0 0 0 -2.07617,-2.07617 z m 7.88477,0 a 2.0759001,2.0759001 0 0 0 -2.07422,2.07617 2.0759001,2.0759001 0 0 0 2.07422,2.07617 2.0759001,2.0759001 0 0 0 2.07617,-2.07617 2.0759001,2.0759001 0 0 0 -2.07617,-2.07617 z m 7.88671,0 a 2.0759001,2.0759001 0 0 0 -2.07617,2.07617 2.0759001,2.0759001 0 0 0 2.07617,2.07617 2.0759001,2.0759001 0 0 0 2.07422,-2.07617 2.0759001,2.0759001 0 0 0 -2.07422,-2.07617 z m 7.88477,0 a 2.0759001,2.0759001 0 0 0 -2.07617,2.07617 2.0759001,2.0759001 0 0 0 2.07617,2.07617 2.0759001,2.0759001 0 0 0 2.07422,-2.07617 2.0759001,2.0759001 0 0 0 -2.07422,-2.07617 z m 7.88477,0 a 2.0759001,2.0759001 0 0 0 -2.07618,2.07617 2.0759001,2.0759001 0 0 0 2.07618,2.07617 2.0759001,2.0759001 0 0 0 2.07617,-2.07617 2.0759001,2.0759001 0 0 0 -2.07617,-2.07617 z m 7.88476,0 a 2.0759001,2.0759001 0 0 0 -2.07617,2.07617 2.0759001,2.0759001 0 0 0 2.07617,2.07617 2.0759001,2.0759001 0 0 0 2.07617,-2.07617 2.0759001,2.0759001 0 0 0 -2.07617,-2.07617 z m 7.88477,0 a 2.0759001,2.0759001 0 0 0 -2.07617,2.07617 2.0759001,2.0759001 0 0 0 2.07617,2.07617 2.0759001,2.0759001 0 0 0 2.07617,-2.07617 2.0759001,2.0759001 0 0 0 -2.07617,-2.07617 z m 7.88476,0 a 2.0759001,2.0759001 0 0 0 -2.07617,2.07617 2.0759001,2.0759001 0 0 0 2.07617,2.07617 2.0759001,2.0759001 0 0 0 2.07617,-2.07617 2.0759001,2.0759001 0 0 0 -2.07617,-2.07617 z m 7.88477,0 a 2.0759001,2.0759001 0 0 0 -2.07617,2.07617 2.0759001,2.0759001 0 0 0 2.07617,2.07617 2.0759001,2.0759001 0 0 0 2.07617,-2.07617 2.0759001,2.0759001 0 0 0 -2.07617,-2.07617 z m 7.88476,0 a 2.0759001,2.0759001 0 0 0 -2.07422,2.07617 2.0759001,2.0759001 0 0 0 2.07422,2.07617 2.0759001,2.0759001 0 0 0 2.07618,-2.07617 2.0759001,2.0759001 0 0 0 -2.07618,-2.07617 z m 7.88672,0 a 2.0759001,2.0759001 0 0 0 -2.07617,2.07617 2.0759001,2.0759001 0 0 0 2.07617,2.07617 2.0759001,2.0759001 0 0 0 2.07422,-2.07617 2.0759001,2.0759001 0 0 0 -2.07422,-2.07617 z m 7.88477,0 a 2.0759001,2.0759001 0 0 0 -2.07617,2.07617 2.0759001,2.0759001 0 0 0 2.07617,2.07617 2.0759001,2.0759001 0 0 0 2.07617,-2.07617 2.0759001,2.0759001 0 0 0 -2.07617,-2.07617 z m 7.88476,0 a 2.0759001,2.0759001 0 0 0 -2.07617,2.07617 2.0759001,2.0759001 0 0 0 2.07617,2.07617 2.0759001,2.0759001 0 0 0 2.07618,-2.07617 2.0759001,2.0759001 0 0 0 -2.07618,-2.07617 z m 7.88477,0 a 2.0759001,2.0759001 0 0 0 -2.07617,2.07617 2.0759001,2.0759001 0 0 0 2.07617,2.07617 2.0759001,2.0759001 0 0 0 2.07617,-2.07617 2.0759001,2.0759001 0 0 0 -2.07617,-2.07617 z m -228.66406,8.69726 a 2.0759001,2.0759001 0 0 0 -2.07618,2.07617 2.0759001,2.0759001 0 0 0 2.07618,2.07422 2.0759001,2.0759001 0 0 0 2.07422,-2.07422 2.0759001,2.0759001 0 0 0 -2.07422,-2.07617 z m 7.88476,0 a 2.0759001,2.0759001 0 0 0 -2.07617,2.07617 2.0759001,2.0759001 0 0 0 2.07617,2.07422 2.0759001,2.0759001 0 0 0 2.07422,-2.07422 2.0759001,2.0759001 0 0 0 -2.07422,-2.07617 z m 7.88477,0 a 2.0759001,2.0759001 0 0 0 -2.07617,2.07617 2.0759001,2.0759001 0 0 0 2.07617,2.07422 2.0759001,2.0759001 0 0 0 2.07617,-2.07422 2.0759001,2.0759001 0 0 0 -2.07617,-2.07617 z m 7.88476,0 a 2.0759001,2.0759001 0 0 0 -2.07617,2.07617 2.0759001,2.0759001 0 0 0 2.07617,2.07422 2.0759001,2.0759001 0 0 0 2.07618,-2.07422 2.0759001,2.0759001 0 0 0 -2.07618,-2.07617 z m 7.88477,0 a 2.0759001,2.0759001 0 0 0 -2.07617,2.07617 2.0759001,2.0759001 0 0 0 2.07617,2.07422 2.0759001,2.0759001 0 0 0 2.07617,-2.07422 2.0759001,2.0759001 0 0 0 -2.07617,-2.07617 z m 7.88476,0 a 2.0759001,2.0759001 0 0 0 -2.07617,2.07617 2.0759001,2.0759001 0 0 0 2.07617,2.07422 2.0759001,2.0759001 0 0 0 2.07618,-2.07422 2.0759001,2.0759001 0 0 0 -2.07618,-2.07617 z m 7.88477,0 a 2.0759001,2.0759001 0 0 0 -2.07617,2.07617 2.0759001,2.0759001 0 0 0 2.07617,2.07422 2.0759001,2.0759001 0 0 0 2.07617,-2.07422 2.0759001,2.0759001 0 0 0 -2.07617,-2.07617 z m 7.88477,0 a 2.0759001,2.0759001 0 0 0 -2.07618,2.07617 2.0759001,2.0759001 0 0 0 2.07618,2.07422 2.0759001,2.0759001 0 0 0 2.07617,-2.07422 2.0759001,2.0759001 0 0 0 -2.07617,-2.07617 z m 7.88476,0 a 2.0759001,2.0759001 0 0 0 -2.07617,2.07617 2.0759001,2.0759001 0 0 0 2.07617,2.07422 2.0759001,2.0759001 0 0 0 2.07617,-2.07422 2.0759001,2.0759001 0 0 0 -2.07617,-2.07617 z m 7.88477,0 a 2.0759001,2.0759001 0 0 0 -2.07422,2.07617 2.0759001,2.0759001 0 0 0 2.07422,2.07422 2.0759001,2.0759001 0 0 0 2.07617,-2.07422 2.0759001,2.0759001 0 0 0 -2.07617,-2.07617 z m 7.88672,0 a 2.0759001,2.0759001 0 0 0 -2.07618,2.07617 2.0759001,2.0759001 0 0 0 2.07618,2.07422 2.0759001,2.0759001 0 0 0 2.07421,-2.07422 2.0759001,2.0759001 0 0 0 -2.07421,-2.07617 z m 7.88476,0 a 2.0759001,2.0759001 0 0 0 -2.07617,2.07617 2.0759001,2.0759001 0 0 0 2.07617,2.07422 2.0759001,2.0759001 0 0 0 2.07422,-2.07422 2.0759001,2.0759001 0 0 0 -2.07422,-2.07617 z m 7.88477,0 a 2.0759001,2.0759001 0 0 0 -2.07617,2.07617 2.0759001,2.0759001 0 0 0 2.07617,2.07422 2.0759001,2.0759001 0 0 0 2.07617,-2.07422 2.0759001,2.0759001 0 0 0 -2.07617,-2.07617 z m 7.88476,0 a 2.0759001,2.0759001 0 0 0 -2.07617,2.07617 2.0759001,2.0759001 0 0 0 2.07617,2.07422 2.0759001,2.0759001 0 0 0 2.07618,-2.07422 2.0759001,2.0759001 0 0 0 -2.07618,-2.07617 z m 7.88477,0 a 2.0759001,2.0759001 0 0 0 -2.07617,2.07617 2.0759001,2.0759001 0 0 0 2.07617,2.07422 2.0759001,2.0759001 0 0 0 2.07617,-2.07422 2.0759001,2.0759001 0 0 0 -2.07617,-2.07617 z m 7.88476,0 a 2.0759001,2.0759001 0 0 0 -2.07617,2.07617 2.0759001,2.0759001 0 0 0 2.07617,2.07422 2.0759001,2.0759001 0 0 0 2.07618,-2.07422 2.0759001,2.0759001 0 0 0 -2.07618,-2.07617 z m 7.88477,0 a 2.0759001,2.0759001 0 0 0 -2.07617,2.07617 2.0759001,2.0759001 0 0 0 2.07617,2.07422 2.0759001,2.0759001 0 0 0 2.07617,-2.07422 2.0759001,2.0759001 0 0 0 -2.07617,-2.07617 z m 7.88477,0 a 2.0759001,2.0759001 0 0 0 -2.07422,2.07617 2.0759001,2.0759001 0 0 0 2.07422,2.07422 2.0759001,2.0759001 0 0 0 2.07617,-2.07422 2.0759001,2.0759001 0 0 0 -2.07617,-2.07617 z m 7.88671,0 a 2.0759001,2.0759001 0 0 0 -2.07617,2.07617 2.0759001,2.0759001 0 0 0 2.07617,2.07422 2.0759001,2.0759001 0 0 0 2.07422,-2.07422 2.0759001,2.0759001 0 0 0 -2.07422,-2.07617 z m 7.88477,0 a 2.0759001,2.0759001 0 0 0 -2.07617,2.07617 2.0759001,2.0759001 0 0 0 2.07617,2.07422 2.0759001,2.0759001 0 0 0 2.07422,-2.07422 2.0759001,2.0759001 0 0 0 -2.07422,-2.07617 z m 7.88477,0 a 2.0759001,2.0759001 0 0 0 -2.07618,2.07617 2.0759001,2.0759001 0 0 0 2.07618,2.07422 2.0759001,2.0759001 0 0 0 2.07617,-2.07422 2.0759001,2.0759001 0 0 0 -2.07617,-2.07617 z m 7.88476,0 a 2.0759001,2.0759001 0 0 0 -2.07617,2.07617 2.0759001,2.0759001 0 0 0 2.07617,2.07422 2.0759001,2.0759001 0 0 0 2.07617,-2.07422 2.0759001,2.0759001 0 0 0 -2.07617,-2.07617 z m 7.88477,0 a 2.0759001,2.0759001 0 0 0 -2.07617,2.07617 2.0759001,2.0759001 0 0 0 2.07617,2.07422 2.0759001,2.0759001 0 0 0 2.07617,-2.07422 2.0759001,2.0759001 0 0 0 -2.07617,-2.07617 z m 7.88476,0 a 2.0759001,2.0759001 0 0 0 -2.07617,2.07617 2.0759001,2.0759001 0 0 0 2.07617,2.07422 2.0759001,2.0759001 0 0 0 2.07617,-2.07422 2.0759001,2.0759001 0 0 0 -2.07617,-2.07617 z m 7.88477,0 a 2.0759001,2.0759001 0 0 0 -2.07617,2.07617 2.0759001,2.0759001 0 0 0 2.07617,2.07422 2.0759001,2.0759001 0 0 0 2.07617,-2.07422 2.0759001,2.0759001 0 0 0 -2.07617,-2.07617 z m 7.88476,0 a 2.0759001,2.0759001 0 0 0 -2.07422,2.07617 2.0759001,2.0759001 0 0 0 2.07422,2.07422 2.0759001,2.0759001 0 0 0 2.07618,-2.07422 2.0759001,2.0759001 0 0 0 -2.07618,-2.07617 z m 7.88672,0 a 2.0759001,2.0759001 0 0 0 -2.07617,2.07617 2.0759001,2.0759001 0 0 0 2.07617,2.07422 2.0759001,2.0759001 0 0 0 2.07422,-2.07422 2.0759001,2.0759001 0 0 0 -2.07422,-2.07617 z m 7.88477,0 a 2.0759001,2.0759001 0 0 0 -2.07617,2.07617 2.0759001,2.0759001 0 0 0 2.07617,2.07422 2.0759001,2.0759001 0 0 0 2.07617,-2.07422 2.0759001,2.0759001 0 0 0 -2.07617,-2.07617 z m 7.88476,0 a 2.0759001,2.0759001 0 0 0 -2.07617,2.07617 2.0759001,2.0759001 0 0 0 2.07617,2.07422 2.0759001,2.0759001 0 0 0 2.07618,-2.07422 2.0759001,2.0759001 0 0 0 -2.07618,-2.07617 z m 7.88477,0 a 2.0759001,2.0759001 0 0 0 -2.07617,2.07617 2.0759001,2.0759001 0 0 0 2.07617,2.07422 2.0759001,2.0759001 0 0 0 2.07617,-2.07422 2.0759001,2.0759001 0 0 0 -2.07617,-2.07617 z m -228.66406,8.69531 a 2.0759001,2.0759001 0 0 0 -2.07618,2.07617 2.0759001,2.0759001 0 0 0 2.07618,2.07618 2.0759001,2.0759001 0 0 0 2.07422,-2.07618 2.0759001,2.0759001 0 0 0 -2.07422,-2.07617 z m 7.88476,0 a 2.0759001,2.0759001 0 0 0 -2.07617,2.07617 2.0759001,2.0759001 0 0 0 2.07617,2.07618 2.0759001,2.0759001 0 0 0 2.07422,-2.07618 2.0759001,2.0759001 0 0 0 -2.07422,-2.07617 z m 7.88477,0 a 2.0759001,2.0759001 0 0 0 -2.07617,2.07617 2.0759001,2.0759001 0 0 0 2.07617,2.07618 2.0759001,2.0759001 0 0 0 2.07617,-2.07618 2.0759001,2.0759001 0 0 0 -2.07617,-2.07617 z m 7.88476,0 a 2.0759001,2.0759001 0 0 0 -2.07617,2.07617 2.0759001,2.0759001 0 0 0 2.07617,2.07618 2.0759001,2.0759001 0 0 0 2.07618,-2.07618 2.0759001,2.0759001 0 0 0 -2.07618,-2.07617 z m 7.88477,0 a 2.0759001,2.0759001 0 0 0 -2.07617,2.07617 2.0759001,2.0759001 0 0 0 2.07617,2.07618 2.0759001,2.0759001 0 0 0 2.07617,-2.07618 2.0759001,2.0759001 0 0 0 -2.07617,-2.07617 z m 7.88476,0 a 2.0759001,2.0759001 0 0 0 -2.07617,2.07617 2.0759001,2.0759001 0 0 0 2.07617,2.07618 2.0759001,2.0759001 0 0 0 2.07618,-2.07618 2.0759001,2.0759001 0 0 0 -2.07618,-2.07617 z m 7.88477,0 a 2.0759001,2.0759001 0 0 0 -2.07617,2.07617 2.0759001,2.0759001 0 0 0 2.07617,2.07618 2.0759001,2.0759001 0 0 0 2.07617,-2.07618 2.0759001,2.0759001 0 0 0 -2.07617,-2.07617 z m 7.88477,0 a 2.0759001,2.0759001 0 0 0 -2.07618,2.07617 2.0759001,2.0759001 0 0 0 2.07618,2.07618 2.0759001,2.0759001 0 0 0 2.07617,-2.07618 2.0759001,2.0759001 0 0 0 -2.07617,-2.07617 z m 7.88476,0 a 2.0759001,2.0759001 0 0 0 -2.07617,2.07617 2.0759001,2.0759001 0 0 0 2.07617,2.07618 2.0759001,2.0759001 0 0 0 2.07617,-2.07618 2.0759001,2.0759001 0 0 0 -2.07617,-2.07617 z m 7.88477,0 a 2.0759001,2.0759001 0 0 0 -2.07422,2.07617 2.0759001,2.0759001 0 0 0 2.07422,2.07618 2.0759001,2.0759001 0 0 0 2.07617,-2.07618 2.0759001,2.0759001 0 0 0 -2.07617,-2.07617 z m 7.88672,0 a 2.0759001,2.0759001 0 0 0 -2.07618,2.07617 2.0759001,2.0759001 0 0 0 2.07618,2.07618 2.0759001,2.0759001 0 0 0 2.07421,-2.07618 2.0759001,2.0759001 0 0 0 -2.07421,-2.07617 z m 7.88476,0 a 2.0759001,2.0759001 0 0 0 -2.07617,2.07617 2.0759001,2.0759001 0 0 0 2.07617,2.07618 2.0759001,2.0759001 0 0 0 2.07422,-2.07618 2.0759001,2.0759001 0 0 0 -2.07422,-2.07617 z m 7.88477,0 a 2.0759001,2.0759001 0 0 0 -2.07617,2.07617 2.0759001,2.0759001 0 0 0 2.07617,2.07618 2.0759001,2.0759001 0 0 0 2.07617,-2.07618 2.0759001,2.0759001 0 0 0 -2.07617,-2.07617 z m 7.88476,0 a 2.0759001,2.0759001 0 0 0 -2.07617,2.07617 2.0759001,2.0759001 0 0 0 2.07617,2.07618 2.0759001,2.0759001 0 0 0 2.07618,-2.07618 2.0759001,2.0759001 0 0 0 -2.07618,-2.07617 z m 7.88477,0 a 2.0759001,2.0759001 0 0 0 -2.07617,2.07617 2.0759001,2.0759001 0 0 0 2.07617,2.07618 2.0759001,2.0759001 0 0 0 2.07617,-2.07618 2.0759001,2.0759001 0 0 0 -2.07617,-2.07617 z m 7.88476,0 a 2.0759001,2.0759001 0 0 0 -2.07617,2.07617 2.0759001,2.0759001 0 0 0 2.07617,2.07618 2.0759001,2.0759001 0 0 0 2.07618,-2.07618 2.0759001,2.0759001 0 0 0 -2.07618,-2.07617 z m 7.88477,0 a 2.0759001,2.0759001 0 0 0 -2.07617,2.07617 2.0759001,2.0759001 0 0 0 2.07617,2.07618 2.0759001,2.0759001 0 0 0 2.07617,-2.07618 2.0759001,2.0759001 0 0 0 -2.07617,-2.07617 z m 7.88477,0 a 2.0759001,2.0759001 0 0 0 -2.07422,2.07617 2.0759001,2.0759001 0 0 0 2.07422,2.07618 2.0759001,2.0759001 0 0 0 2.07617,-2.07618 2.0759001,2.0759001 0 0 0 -2.07617,-2.07617 z m 7.88671,0 a 2.0759001,2.0759001 0 0 0 -2.07617,2.07617 2.0759001,2.0759001 0 0 0 2.07617,2.07618 2.0759001,2.0759001 0 0 0 2.07422,-2.07618 2.0759001,2.0759001 0 0 0 -2.07422,-2.07617 z m 7.88477,0 a 2.0759001,2.0759001 0 0 0 -2.07617,2.07617 2.0759001,2.0759001 0 0 0 2.07617,2.07618 2.0759001,2.0759001 0 0 0 2.07422,-2.07618 2.0759001,2.0759001 0 0 0 -2.07422,-2.07617 z m 7.88477,0 a 2.0759001,2.0759001 0 0 0 -2.07618,2.07617 2.0759001,2.0759001 0 0 0 2.07618,2.07618 2.0759001,2.0759001 0 0 0 2.07617,-2.07618 2.0759001,2.0759001 0 0 0 -2.07617,-2.07617 z m 7.88476,0 a 2.0759001,2.0759001 0 0 0 -2.07617,2.07617 2.0759001,2.0759001 0 0 0 2.07617,2.07618 2.0759001,2.0759001 0 0 0 2.07617,-2.07618 2.0759001,2.0759001 0 0 0 -2.07617,-2.07617 z m 7.88477,0 a 2.0759001,2.0759001 0 0 0 -2.07617,2.07617 2.0759001,2.0759001 0 0 0 2.07617,2.07618 2.0759001,2.0759001 0 0 0 2.07617,-2.07618 2.0759001,2.0759001 0 0 0 -2.07617,-2.07617 z m 7.88476,0 a 2.0759001,2.0759001 0 0 0 -2.07617,2.07617 2.0759001,2.0759001 0 0 0 2.07617,2.07618 2.0759001,2.0759001 0 0 0 2.07617,-2.07618 2.0759001,2.0759001 0 0 0 -2.07617,-2.07617 z m 7.88477,0 a 2.0759001,2.0759001 0 0 0 -2.07617,2.07617 2.0759001,2.0759001 0 0 0 2.07617,2.07618 2.0759001,2.0759001 0 0 0 2.07617,-2.07618 2.0759001,2.0759001 0 0 0 -2.07617,-2.07617 z m 7.88476,0 a 2.0759001,2.0759001 0 0 0 -2.07422,2.07617 2.0759001,2.0759001 0 0 0 2.07422,2.07618 2.0759001,2.0759001 0 0 0 2.07618,-2.07618 2.0759001,2.0759001 0 0 0 -2.07618,-2.07617 z m 7.88672,0 a 2.0759001,2.0759001 0 0 0 -2.07617,2.07617 2.0759001,2.0759001 0 0 0 2.07617,2.07618 2.0759001,2.0759001 0 0 0 2.07422,-2.07618 2.0759001,2.0759001 0 0 0 -2.07422,-2.07617 z m 7.88477,0 a 2.0759001,2.0759001 0 0 0 -2.07617,2.07617 2.0759001,2.0759001 0 0 0 2.07617,2.07618 2.0759001,2.0759001 0 0 0 2.07617,-2.07618 2.0759001,2.0759001 0 0 0 -2.07617,-2.07617 z m 7.88476,0 a 2.0759001,2.0759001 0 0 0 -2.07617,2.07617 2.0759001,2.0759001 0 0 0 2.07617,2.07618 2.0759001,2.0759001 0 0 0 2.07618,-2.07618 2.0759001,2.0759001 0 0 0 -2.07618,-2.07617 z m 7.88477,0 a 2.0759001,2.0759001 0 0 0 -2.07617,2.07617 2.0759001,2.0759001 0 0 0 2.07617,2.07618 2.0759001,2.0759001 0 0 0 2.07617,-2.07618 2.0759001,2.0759001 0 0 0 -2.07617,-2.07617 z m -633.45313,1.89649 h 252.556645 v 9.28515 H -270.63477 Z m 404.78907,6.80078 a 2.0759001,2.0759001 0 0 0 -2.07618,2.07617 2.0759001,2.0759001 0 0 0 2.07618,2.07617 2.0759001,2.0759001 0 0 0 2.07422,-2.07617 2.0759001,2.0759001 0 0 0 -2.07422,-2.07617 z m 7.88476,0 a 2.0759001,2.0759001 0 0 0 -2.07617,2.07617 2.0759001,2.0759001 0 0 0 2.07617,2.07617 2.0759001,2.0759001 0 0 0 2.07422,-2.07617 2.0759001,2.0759001 0 0 0 -2.07422,-2.07617 z m 7.88477,0 a 2.0759001,2.0759001 0 0 0 -2.07617,2.07617 2.0759001,2.0759001 0 0 0 2.07617,2.07617 2.0759001,2.0759001 0 0 0 2.07617,-2.07617 2.0759001,2.0759001 0 0 0 -2.07617,-2.07617 z m 7.88476,0 a 2.0759001,2.0759001 0 0 0 -2.07617,2.07617 2.0759001,2.0759001 0 0 0 2.07617,2.07617 2.0759001,2.0759001 0 0 0 2.07618,-2.07617 2.0759001,2.0759001 0 0 0 -2.07618,-2.07617 z m 7.88477,0 a 2.0759001,2.0759001 0 0 0 -2.07617,2.07617 2.0759001,2.0759001 0 0 0 2.07617,2.07617 2.0759001,2.0759001 0 0 0 2.07617,-2.07617 2.0759001,2.0759001 0 0 0 -2.07617,-2.07617 z m 7.88476,0 a 2.0759001,2.0759001 0 0 0 -2.07617,2.07617 2.0759001,2.0759001 0 0 0 2.07617,2.07617 2.0759001,2.0759001 0 0 0 2.07618,-2.07617 2.0759001,2.0759001 0 0 0 -2.07618,-2.07617 z m 7.88477,0 a 2.0759001,2.0759001 0 0 0 -2.07617,2.07617 2.0759001,2.0759001 0 0 0 2.07617,2.07617 2.0759001,2.0759001 0 0 0 2.07617,-2.07617 2.0759001,2.0759001 0 0 0 -2.07617,-2.07617 z m 7.88477,0 a 2.0759001,2.0759001 0 0 0 -2.07618,2.07617 2.0759001,2.0759001 0 0 0 2.07618,2.07617 2.0759001,2.0759001 0 0 0 2.07617,-2.07617 2.0759001,2.0759001 0 0 0 -2.07617,-2.07617 z m 7.88476,0 a 2.0759001,2.0759001 0 0 0 -2.07617,2.07617 2.0759001,2.0759001 0 0 0 2.07617,2.07617 2.0759001,2.0759001 0 0 0 2.07617,-2.07617 2.0759001,2.0759001 0 0 0 -2.07617,-2.07617 z m 7.88477,0 a 2.0759001,2.0759001 0 0 0 -2.07422,2.07617 2.0759001,2.0759001 0 0 0 2.07422,2.07617 2.0759001,2.0759001 0 0 0 2.07617,-2.07617 2.0759001,2.0759001 0 0 0 -2.07617,-2.07617 z m 7.88672,0 a 2.0759001,2.0759001 0 0 0 -2.07618,2.07617 2.0759001,2.0759001 0 0 0 2.07618,2.07617 2.0759001,2.0759001 0 0 0 2.07421,-2.07617 2.0759001,2.0759001 0 0 0 -2.07421,-2.07617 z m 7.88476,0 a 2.0759001,2.0759001 0 0 0 -2.07617,2.07617 2.0759001,2.0759001 0 0 0 2.07617,2.07617 2.0759001,2.0759001 0 0 0 2.07422,-2.07617 2.0759001,2.0759001 0 0 0 -2.07422,-2.07617 z m 7.88477,0 a 2.0759001,2.0759001 0 0 0 -2.07617,2.07617 2.0759001,2.0759001 0 0 0 2.07617,2.07617 2.0759001,2.0759001 0 0 0 2.07617,-2.07617 2.0759001,2.0759001 0 0 0 -2.07617,-2.07617 z m 7.88476,0 a 2.0759001,2.0759001 0 0 0 -2.07617,2.07617 2.0759001,2.0759001 0 0 0 2.07617,2.07617 2.0759001,2.0759001 0 0 0 2.07618,-2.07617 2.0759001,2.0759001 0 0 0 -2.07618,-2.07617 z m 7.88477,0 a 2.0759001,2.0759001 0 0 0 -2.07617,2.07617 2.0759001,2.0759001 0 0 0 2.07617,2.07617 2.0759001,2.0759001 0 0 0 2.07617,-2.07617 2.0759001,2.0759001 0 0 0 -2.07617,-2.07617 z m 7.88476,0 a 2.0759001,2.0759001 0 0 0 -2.07617,2.07617 2.0759001,2.0759001 0 0 0 2.07617,2.07617 2.0759001,2.0759001 0 0 0 2.07618,-2.07617 2.0759001,2.0759001 0 0 0 -2.07618,-2.07617 z m 7.88477,0 a 2.0759001,2.0759001 0 0 0 -2.07617,2.07617 2.0759001,2.0759001 0 0 0 2.07617,2.07617 2.0759001,2.0759001 0 0 0 2.07617,-2.07617 2.0759001,2.0759001 0 0 0 -2.07617,-2.07617 z m 7.88477,0 a 2.0759001,2.0759001 0 0 0 -2.07422,2.07617 2.0759001,2.0759001 0 0 0 2.07422,2.07617 2.0759001,2.0759001 0 0 0 2.07617,-2.07617 2.0759001,2.0759001 0 0 0 -2.07617,-2.07617 z m 7.88671,0 a 2.0759001,2.0759001 0 0 0 -2.07617,2.07617 2.0759001,2.0759001 0 0 0 2.07617,2.07617 2.0759001,2.0759001 0 0 0 2.07422,-2.07617 2.0759001,2.0759001 0 0 0 -2.07422,-2.07617 z m 7.88477,0 a 2.0759001,2.0759001 0 0 0 -2.07617,2.07617 2.0759001,2.0759001 0 0 0 2.07617,2.07617 2.0759001,2.0759001 0 0 0 2.07422,-2.07617 2.0759001,2.0759001 0 0 0 -2.07422,-2.07617 z m 7.88477,0 a 2.0759001,2.0759001 0 0 0 -2.07618,2.07617 2.0759001,2.0759001 0 0 0 2.07618,2.07617 2.0759001,2.0759001 0 0 0 2.07617,-2.07617 2.0759001,2.0759001 0 0 0 -2.07617,-2.07617 z m 7.88476,0 a 2.0759001,2.0759001 0 0 0 -2.07617,2.07617 2.0759001,2.0759001 0 0 0 2.07617,2.07617 2.0759001,2.0759001 0 0 0 2.07617,-2.07617 2.0759001,2.0759001 0 0 0 -2.07617,-2.07617 z m 7.88477,0 a 2.0759001,2.0759001 0 0 0 -2.07617,2.07617 2.0759001,2.0759001 0 0 0 2.07617,2.07617 2.0759001,2.0759001 0 0 0 2.07617,-2.07617 2.0759001,2.0759001 0 0 0 -2.07617,-2.07617 z m 7.88476,0 a 2.0759001,2.0759001 0 0 0 -2.07617,2.07617 2.0759001,2.0759001 0 0 0 2.07617,2.07617 2.0759001,2.0759001 0 0 0 2.07617,-2.07617 2.0759001,2.0759001 0 0 0 -2.07617,-2.07617 z m 7.88477,0 a 2.0759001,2.0759001 0 0 0 -2.07617,2.07617 2.0759001,2.0759001 0 0 0 2.07617,2.07617 2.0759001,2.0759001 0 0 0 2.07617,-2.07617 2.0759001,2.0759001 0 0 0 -2.07617,-2.07617 z m 7.88476,0 a 2.0759001,2.0759001 0 0 0 -2.07422,2.07617 2.0759001,2.0759001 0 0 0 2.07422,2.07617 2.0759001,2.0759001 0 0 0 2.07618,-2.07617 2.0759001,2.0759001 0 0 0 -2.07618,-2.07617 z m 7.88672,0 a 2.0759001,2.0759001 0 0 0 -2.07617,2.07617 2.0759001,2.0759001 0 0 0 2.07617,2.07617 2.0759001,2.0759001 0 0 0 2.07422,-2.07617 2.0759001,2.0759001 0 0 0 -2.07422,-2.07617 z m 7.88477,0 a 2.0759001,2.0759001 0 0 0 -2.07617,2.07617 2.0759001,2.0759001 0 0 0 2.07617,2.07617 2.0759001,2.0759001 0 0 0 2.07617,-2.07617 2.0759001,2.0759001 0 0 0 -2.07617,-2.07617 z m 7.88476,0 a 2.0759001,2.0759001 0 0 0 -2.07617,2.07617 2.0759001,2.0759001 0 0 0 2.07617,2.07617 2.0759001,2.0759001 0 0 0 2.07618,-2.07617 2.0759001,2.0759001 0 0 0 -2.07618,-2.07617 z m 7.88477,0 a 2.0759001,2.0759001 0 0 0 -2.07617,2.07617 2.0759001,2.0759001 0 0 0 2.07617,2.07617 2.0759001,2.0759001 0 0 0 2.07617,-2.07617 2.0759001,2.0759001 0 0 0 -2.07617,-2.07617 z m -228.66406,8.69726 a 2.0759001,2.0759001 0 0 0 -2.07618,2.07618 2.0759001,2.0759001 0 0 0 2.07618,2.07617 2.0759001,2.0759001 0 0 0 2.07422,-2.07617 2.0759001,2.0759001 0 0 0 -2.07422,-2.07618 z m 7.88476,0 a 2.0759001,2.0759001 0 0 0 -2.07617,2.07618 2.0759001,2.0759001 0 0 0 2.07617,2.07617 2.0759001,2.0759001 0 0 0 2.07422,-2.07617 2.0759001,2.0759001 0 0 0 -2.07422,-2.07618 z m 7.88477,0 a 2.0759001,2.0759001 0 0 0 -2.07617,2.07618 2.0759001,2.0759001 0 0 0 2.07617,2.07617 2.0759001,2.0759001 0 0 0 2.07617,-2.07617 2.0759001,2.0759001 0 0 0 -2.07617,-2.07618 z m 7.88476,0 a 2.0759001,2.0759001 0 0 0 -2.07617,2.07618 2.0759001,2.0759001 0 0 0 2.07617,2.07617 2.0759001,2.0759001 0 0 0 2.07618,-2.07617 2.0759001,2.0759001 0 0 0 -2.07618,-2.07618 z m 7.88477,0 a 2.0759001,2.0759001 0 0 0 -2.07617,2.07618 2.0759001,2.0759001 0 0 0 2.07617,2.07617 2.0759001,2.0759001 0 0 0 2.07617,-2.07617 2.0759001,2.0759001 0 0 0 -2.07617,-2.07618 z m 7.88476,0 a 2.0759001,2.0759001 0 0 0 -2.07617,2.07618 2.0759001,2.0759001 0 0 0 2.07617,2.07617 2.0759001,2.0759001 0 0 0 2.07618,-2.07617 2.0759001,2.0759001 0 0 0 -2.07618,-2.07618 z m 7.88477,0 a 2.0759001,2.0759001 0 0 0 -2.07617,2.07618 2.0759001,2.0759001 0 0 0 2.07617,2.07617 2.0759001,2.0759001 0 0 0 2.07617,-2.07617 2.0759001,2.0759001 0 0 0 -2.07617,-2.07618 z m 7.88477,0 a 2.0759001,2.0759001 0 0 0 -2.07618,2.07618 2.0759001,2.0759001 0 0 0 2.07618,2.07617 2.0759001,2.0759001 0 0 0 2.07617,-2.07617 2.0759001,2.0759001 0 0 0 -2.07617,-2.07618 z m 7.88476,0 a 2.0759001,2.0759001 0 0 0 -2.07617,2.07618 2.0759001,2.0759001 0 0 0 2.07617,2.07617 2.0759001,2.0759001 0 0 0 2.07617,-2.07617 2.0759001,2.0759001 0 0 0 -2.07617,-2.07618 z m 7.88477,0 a 2.0759001,2.0759001 0 0 0 -2.07422,2.07618 2.0759001,2.0759001 0 0 0 2.07422,2.07617 2.0759001,2.0759001 0 0 0 2.07617,-2.07617 2.0759001,2.0759001 0 0 0 -2.07617,-2.07618 z m 7.88672,0 a 2.0759001,2.0759001 0 0 0 -2.07618,2.07618 2.0759001,2.0759001 0 0 0 2.07618,2.07617 2.0759001,2.0759001 0 0 0 2.07421,-2.07617 2.0759001,2.0759001 0 0 0 -2.07421,-2.07618 z m 7.88476,0 a 2.0759001,2.0759001 0 0 0 -2.07617,2.07618 2.0759001,2.0759001 0 0 0 2.07617,2.07617 2.0759001,2.0759001 0 0 0 2.07422,-2.07617 2.0759001,2.0759001 0 0 0 -2.07422,-2.07618 z m 7.88477,0 a 2.0759001,2.0759001 0 0 0 -2.07617,2.07618 2.0759001,2.0759001 0 0 0 2.07617,2.07617 2.0759001,2.0759001 0 0 0 2.07617,-2.07617 2.0759001,2.0759001 0 0 0 -2.07617,-2.07618 z m 7.88476,0 a 2.0759001,2.0759001 0 0 0 -2.07617,2.07618 2.0759001,2.0759001 0 0 0 2.07617,2.07617 2.0759001,2.0759001 0 0 0 2.07618,-2.07617 2.0759001,2.0759001 0 0 0 -2.07618,-2.07618 z m 7.88477,0 a 2.0759001,2.0759001 0 0 0 -2.07617,2.07618 2.0759001,2.0759001 0 0 0 2.07617,2.07617 2.0759001,2.0759001 0 0 0 2.07617,-2.07617 2.0759001,2.0759001 0 0 0 -2.07617,-2.07618 z m 7.88476,0 a 2.0759001,2.0759001 0 0 0 -2.07617,2.07618 2.0759001,2.0759001 0 0 0 2.07617,2.07617 2.0759001,2.0759001 0 0 0 2.07618,-2.07617 2.0759001,2.0759001 0 0 0 -2.07618,-2.07618 z m 7.88477,0 a 2.0759001,2.0759001 0 0 0 -2.07617,2.07618 2.0759001,2.0759001 0 0 0 2.07617,2.07617 2.0759001,2.0759001 0 0 0 2.07617,-2.07617 2.0759001,2.0759001 0 0 0 -2.07617,-2.07618 z m 7.88477,0 a 2.0759001,2.0759001 0 0 0 -2.07422,2.07618 2.0759001,2.0759001 0 0 0 2.07422,2.07617 2.0759001,2.0759001 0 0 0 2.07617,-2.07617 2.0759001,2.0759001 0 0 0 -2.07617,-2.07618 z m 7.88671,0 a 2.0759001,2.0759001 0 0 0 -2.07617,2.07618 2.0759001,2.0759001 0 0 0 2.07617,2.07617 2.0759001,2.0759001 0 0 0 2.07422,-2.07617 2.0759001,2.0759001 0 0 0 -2.07422,-2.07618 z m 7.88477,0 a 2.0759001,2.0759001 0 0 0 -2.07617,2.07618 2.0759001,2.0759001 0 0 0 2.07617,2.07617 2.0759001,2.0759001 0 0 0 2.07422,-2.07617 2.0759001,2.0759001 0 0 0 -2.07422,-2.07618 z m 7.88477,0 a 2.0759001,2.0759001 0 0 0 -2.07618,2.07618 2.0759001,2.0759001 0 0 0 2.07618,2.07617 2.0759001,2.0759001 0 0 0 2.07617,-2.07617 2.0759001,2.0759001 0 0 0 -2.07617,-2.07618 z m 7.88476,0 a 2.0759001,2.0759001 0 0 0 -2.07617,2.07618 2.0759001,2.0759001 0 0 0 2.07617,2.07617 2.0759001,2.0759001 0 0 0 2.07617,-2.07617 2.0759001,2.0759001 0 0 0 -2.07617,-2.07618 z m 7.88477,0 a 2.0759001,2.0759001 0 0 0 -2.07617,2.07618 2.0759001,2.0759001 0 0 0 2.07617,2.07617 2.0759001,2.0759001 0 0 0 2.07617,-2.07617 2.0759001,2.0759001 0 0 0 -2.07617,-2.07618 z m 7.88476,0 a 2.0759001,2.0759001 0 0 0 -2.07617,2.07618 2.0759001,2.0759001 0 0 0 2.07617,2.07617 2.0759001,2.0759001 0 0 0 2.07617,-2.07617 2.0759001,2.0759001 0 0 0 -2.07617,-2.07618 z m 7.88477,0 a 2.0759001,2.0759001 0 0 0 -2.07617,2.07618 2.0759001,2.0759001 0 0 0 2.07617,2.07617 2.0759001,2.0759001 0 0 0 2.07617,-2.07617 2.0759001,2.0759001 0 0 0 -2.07617,-2.07618 z m 7.88476,0 a 2.0759001,2.0759001 0 0 0 -2.07422,2.07618 2.0759001,2.0759001 0 0 0 2.07422,2.07617 2.0759001,2.0759001 0 0 0 2.07618,-2.07617 2.0759001,2.0759001 0 0 0 -2.07618,-2.07618 z m 7.88672,0 a 2.0759001,2.0759001 0 0 0 -2.07617,2.07618 2.0759001,2.0759001 0 0 0 2.07617,2.07617 2.0759001,2.0759001 0 0 0 2.07422,-2.07617 2.0759001,2.0759001 0 0 0 -2.07422,-2.07618 z m 7.88477,0 a 2.0759001,2.0759001 0 0 0 -2.07617,2.07618 2.0759001,2.0759001 0 0 0 2.07617,2.07617 2.0759001,2.0759001 0 0 0 2.07617,-2.07617 2.0759001,2.0759001 0 0 0 -2.07617,-2.07618 z m 7.88476,0 a 2.0759001,2.0759001 0 0 0 -2.07617,2.07618 2.0759001,2.0759001 0 0 0 2.07617,2.07617 2.0759001,2.0759001 0 0 0 2.07618,-2.07617 2.0759001,2.0759001 0 0 0 -2.07618,-2.07618 z m 7.88477,0 a 2.0759001,2.0759001 0 0 0 -2.07617,2.07618 2.0759001,2.0759001 0 0 0 2.07617,2.07617 2.0759001,2.0759001 0 0 0 2.07617,-2.07617 2.0759001,2.0759001 0 0 0 -2.07617,-2.07618 z m -228.66406,8.69727 a 2.0759001,2.0759001 0 0 0 -2.07618,2.07617 2.0759001,2.0759001 0 0 0 2.07618,2.07422 2.0759001,2.0759001 0 0 0 2.07422,-2.07422 2.0759001,2.0759001 0 0 0 -2.07422,-2.07617 z m 7.88476,0 a 2.0759001,2.0759001 0 0 0 -2.07617,2.07617 2.0759001,2.0759001 0 0 0 2.07617,2.07422 2.0759001,2.0759001 0 0 0 2.07422,-2.07422 2.0759001,2.0759001 0 0 0 -2.07422,-2.07617 z m 7.88477,0 a 2.0759001,2.0759001 0 0 0 -2.07617,2.07617 2.0759001,2.0759001 0 0 0 2.07617,2.07422 2.0759001,2.0759001 0 0 0 2.07617,-2.07422 2.0759001,2.0759001 0 0 0 -2.07617,-2.07617 z m 7.88476,0 a 2.0759001,2.0759001 0 0 0 -2.07617,2.07617 2.0759001,2.0759001 0 0 0 2.07617,2.07422 2.0759001,2.0759001 0 0 0 2.07618,-2.07422 2.0759001,2.0759001 0 0 0 -2.07618,-2.07617 z m 7.88477,0 a 2.0759001,2.0759001 0 0 0 -2.07617,2.07617 2.0759001,2.0759001 0 0 0 2.07617,2.07422 2.0759001,2.0759001 0 0 0 2.07617,-2.07422 2.0759001,2.0759001 0 0 0 -2.07617,-2.07617 z m 7.88476,0 a 2.0759001,2.0759001 0 0 0 -2.07617,2.07617 2.0759001,2.0759001 0 0 0 2.07617,2.07422 2.0759001,2.0759001 0 0 0 2.07618,-2.07422 2.0759001,2.0759001 0 0 0 -2.07618,-2.07617 z m 7.88477,0 a 2.0759001,2.0759001 0 0 0 -2.07617,2.07617 2.0759001,2.0759001 0 0 0 2.07617,2.07422 2.0759001,2.0759001 0 0 0 2.07617,-2.07422 2.0759001,2.0759001 0 0 0 -2.07617,-2.07617 z m 7.88477,0 a 2.0759001,2.0759001 0 0 0 -2.07618,2.07617 2.0759001,2.0759001 0 0 0 2.07618,2.07422 2.0759001,2.0759001 0 0 0 2.07617,-2.07422 2.0759001,2.0759001 0 0 0 -2.07617,-2.07617 z m 7.88476,0 a 2.0759001,2.0759001 0 0 0 -2.07617,2.07617 2.0759001,2.0759001 0 0 0 2.07617,2.07422 2.0759001,2.0759001 0 0 0 2.07617,-2.07422 2.0759001,2.0759001 0 0 0 -2.07617,-2.07617 z m 7.88477,0 a 2.0759001,2.0759001 0 0 0 -2.07422,2.07617 2.0759001,2.0759001 0 0 0 2.07422,2.07422 2.0759001,2.0759001 0 0 0 2.07617,-2.07422 2.0759001,2.0759001 0 0 0 -2.07617,-2.07617 z m 7.88672,0 a 2.0759001,2.0759001 0 0 0 -2.07618,2.07617 2.0759001,2.0759001 0 0 0 2.07618,2.07422 2.0759001,2.0759001 0 0 0 2.07421,-2.07422 2.0759001,2.0759001 0 0 0 -2.07421,-2.07617 z m 7.88476,0 a 2.0759001,2.0759001 0 0 0 -2.07617,2.07617 2.0759001,2.0759001 0 0 0 2.07617,2.07422 2.0759001,2.0759001 0 0 0 2.07422,-2.07422 2.0759001,2.0759001 0 0 0 -2.07422,-2.07617 z m 7.88477,0 a 2.0759001,2.0759001 0 0 0 -2.07617,2.07617 2.0759001,2.0759001 0 0 0 2.07617,2.07422 2.0759001,2.0759001 0 0 0 2.07617,-2.07422 2.0759001,2.0759001 0 0 0 -2.07617,-2.07617 z m 7.88476,0 a 2.0759001,2.0759001 0 0 0 -2.07617,2.07617 2.0759001,2.0759001 0 0 0 2.07617,2.07422 2.0759001,2.0759001 0 0 0 2.07618,-2.07422 2.0759001,2.0759001 0 0 0 -2.07618,-2.07617 z m 7.88477,0 a 2.0759001,2.0759001 0 0 0 -2.07617,2.07617 2.0759001,2.0759001 0 0 0 2.07617,2.07422 2.0759001,2.0759001 0 0 0 2.07617,-2.07422 2.0759001,2.0759001 0 0 0 -2.07617,-2.07617 z m 7.88476,0 a 2.0759001,2.0759001 0 0 0 -2.07617,2.07617 2.0759001,2.0759001 0 0 0 2.07617,2.07422 2.0759001,2.0759001 0 0 0 2.07618,-2.07422 2.0759001,2.0759001 0 0 0 -2.07618,-2.07617 z m 7.88477,0 a 2.0759001,2.0759001 0 0 0 -2.07617,2.07617 2.0759001,2.0759001 0 0 0 2.07617,2.07422 2.0759001,2.0759001 0 0 0 2.07617,-2.07422 2.0759001,2.0759001 0 0 0 -2.07617,-2.07617 z m 7.88477,0 a 2.0759001,2.0759001 0 0 0 -2.07422,2.07617 2.0759001,2.0759001 0 0 0 2.07422,2.07422 2.0759001,2.0759001 0 0 0 2.07617,-2.07422 2.0759001,2.0759001 0 0 0 -2.07617,-2.07617 z m 7.88671,0 a 2.0759001,2.0759001 0 0 0 -2.07617,2.07617 2.0759001,2.0759001 0 0 0 2.07617,2.07422 2.0759001,2.0759001 0 0 0 2.07422,-2.07422 2.0759001,2.0759001 0 0 0 -2.07422,-2.07617 z m 7.88477,0 a 2.0759001,2.0759001 0 0 0 -2.07617,2.07617 2.0759001,2.0759001 0 0 0 2.07617,2.07422 2.0759001,2.0759001 0 0 0 2.07422,-2.07422 2.0759001,2.0759001 0 0 0 -2.07422,-2.07617 z m 7.88477,0 a 2.0759001,2.0759001 0 0 0 -2.07618,2.07617 2.0759001,2.0759001 0 0 0 2.07618,2.07422 2.0759001,2.0759001 0 0 0 2.07617,-2.07422 2.0759001,2.0759001 0 0 0 -2.07617,-2.07617 z m 7.88476,0 a 2.0759001,2.0759001 0 0 0 -2.07617,2.07617 2.0759001,2.0759001 0 0 0 2.07617,2.07422 2.0759001,2.0759001 0 0 0 2.07617,-2.07422 2.0759001,2.0759001 0 0 0 -2.07617,-2.07617 z m 7.88477,0 a 2.0759001,2.0759001 0 0 0 -2.07617,2.07617 2.0759001,2.0759001 0 0 0 2.07617,2.07422 2.0759001,2.0759001 0 0 0 2.07617,-2.07422 2.0759001,2.0759001 0 0 0 -2.07617,-2.07617 z m 7.88476,0 a 2.0759001,2.0759001 0 0 0 -2.07617,2.07617 2.0759001,2.0759001 0 0 0 2.07617,2.07422 2.0759001,2.0759001 0 0 0 2.07617,-2.07422 2.0759001,2.0759001 0 0 0 -2.07617,-2.07617 z m 7.88477,0 a 2.0759001,2.0759001 0 0 0 -2.07617,2.07617 2.0759001,2.0759001 0 0 0 2.07617,2.07422 2.0759001,2.0759001 0 0 0 2.07617,-2.07422 2.0759001,2.0759001 0 0 0 -2.07617,-2.07617 z m 7.88476,0 a 2.0759001,2.0759001 0 0 0 -2.07422,2.07617 2.0759001,2.0759001 0 0 0 2.07422,2.07422 2.0759001,2.0759001 0 0 0 2.07618,-2.07422 2.0759001,2.0759001 0 0 0 -2.07618,-2.07617 z m 7.88672,0 a 2.0759001,2.0759001 0 0 0 -2.07617,2.07617 2.0759001,2.0759001 0 0 0 2.07617,2.07422 2.0759001,2.0759001 0 0 0 2.07422,-2.07422 2.0759001,2.0759001 0 0 0 -2.07422,-2.07617 z m 7.88477,0 a 2.0759001,2.0759001 0 0 0 -2.07617,2.07617 2.0759001,2.0759001 0 0 0 2.07617,2.07422 2.0759001,2.0759001 0 0 0 2.07617,-2.07422 2.0759001,2.0759001 0 0 0 -2.07617,-2.07617 z m 7.88476,0 a 2.0759001,2.0759001 0 0 0 -2.07617,2.07617 2.0759001,2.0759001 0 0 0 2.07617,2.07422 2.0759001,2.0759001 0 0 0 2.07618,-2.07422 2.0759001,2.0759001 0 0 0 -2.07618,-2.07617 z m 7.88477,0 a 2.0759001,2.0759001 0 0 0 -2.07617,2.07617 2.0759001,2.0759001 0 0 0 2.07617,2.07422 2.0759001,2.0759001 0 0 0 2.07617,-2.07422 2.0759001,2.0759001 0 0 0 -2.07617,-2.07617 z m 440.88476,32.1582 8.59961,18.53516 3.95508,8.52734 c -1.9516,3.12091 -4.02877,6.37576 -6.24804,9.77344 l -9.94532,-0.88672 -20.35156,-1.8164 14.98438,-14.52735 a 1.8899528,1.8899528 0 0 0 0.41406,-0.58398 z"
       style="fill:#eaa81b;fill-opacity:1;fill-rule:nonzero;stroke:none;stroke-width:1.33333337" />
  </g>
</svg>
