<?xml version="1.0" encoding="UTF-8" standalone="no"?>
<svg
   xmlns:dc="http://purl.org/dc/elements/1.1/"
   xmlns:cc="http://creativecommons.org/ns#"
   xmlns:rdf="http://www.w3.org/1999/02/22-rdf-syntax-ns#"
   xmlns:svg="http://www.w3.org/2000/svg"
   xmlns="http://www.w3.org/2000/svg"
   id="svg1063"
   version="1.1"
   viewBox="0 0 340.12226 147.38306"
   height="557.03833"
   width="1285.5015">
  <defs
     id="defs1057" />
  <metadata
     id="metadata1060">
    <rdf:RDF>
      <cc:Work
         rdf:about="">
        <dc:format>image/svg+xml</dc:format>
        <dc:type
           rdf:resource="http://purl.org/dc/dcmitype/StillImage" />
        <dc:title></dc:title>
      </cc:Work>
    </rdf:RDF>
  </metadata>
  <g
     transform="translate(-50.064828,58.523253)"
     id="layer1">
    <path
       id="path136"
       transform="matrix(0.26458333,0,0,0.26458333,-33.873852,-127.70682)"
       d="m 1428.8945,261.48438 c -1.5745,-0.008 -3.1602,-4.4e-4 -4.7597,0.0234 l 0.014,-0.004 c -69.1012,1.03119 -160.816,31.64194 -211.7539,54.83007 0.9859,-7.18694 1.6382,-15.74392 2.1192,-22.73437 -4.5378,-4.85336 -15.6897,-8.61656 -22.4434,-8.15234 -1.1529,13.36122 -3.118,27.90578 -3.7265,41.54296 l -17.6915,10.22461 c -33.3995,18.62272 -45.7519,26.58287 -45.7519,29.48828 0,1.31191 8.056,5.57773 14.0566,7.44532 5.5482,1.72678 5.7303,1.72728 7.1075,0.0605 2.6306,-3.18939 8.7329,-7.30625 23.2968,-15.71484 7.9833,-4.60911 13.0055,-7.48785 14.0098,-8.02539 0.4647,-0.24873 2.6485,-1.48959 2.8984,-1.45313 -1.677,29.17256 -4.6219,55.1429 -7.9883,87.51368 -19.2634,24.99378 -33.9366,67.54821 -4.5371,85.37695 5.4899,3.29165 16.4075,7.60547 18.9571,7.60547 2.1229,-26.2399 7.3635,-77.94488 9.5293,-104.86719 6.9008,-15.54271 30.172,-53.05146 49.8164,-73.99023 -0.9552,39.8634 -22.249,110.96082 -14.7774,148.56445 2.8643,7.49857 22.062,15.6135 25.336,14.32617 4.7707,-1.86936 8.6627,-8.07319 11.7148,-13.16406 l 0.059,0.0293 0.543,-1.0293 c 0.1784,-0.29826 0.393,-0.64041 0.5644,-0.92578 -0.019,-0.008 -0.042,-0.01 -0.061,-0.0195 l 14.8554,-28.06641 c 2.1574,8.88083 6.3508,16.42976 13.1583,21.6543 7.158,4.14261 14.9272,8.77203 23.1699,8.05078 12.7224,-5.46423 20.3319,-15.81423 27.0781,-24.72656 5.4674,6.22957 17.0083,13.37298 24.8242,12.35546 -0.01,-0.006 -0.02,-0.01 -0.035,-0.0195 l 18.1425,-27.30273 c -6.6502,53.49424 -13.8627,114.88512 -16.8769,165.08789 5.5926,4.28955 12.323,7.89084 18.6992,8.94531 5.0845,-51.65843 9.9029,-136.26218 25.0449,-201.94922 6.7342,-22.92278 35.9494,-79.57736 43.7539,-84.31836 5.988,8.65838 -8.5072,81.02819 -6.8476,108.61329 -0.4627,3.78441 13.3618,9.97327 20.3398,11.29687 6.0626,0.96907 8.3243,0.0103 11.6328,-5.96484 0.099,-0.15558 0.1783,-0.49856 0.2871,-0.66602 0,-0.001 -0.01,-0.004 -0.012,-0.006 l 21.4844,-39.09375 c -0.9849,9.69186 -2.0102,19.88565 -2.9238,29.1543 4.3521,4.21405 12.4021,7.64827 19.5293,9.13476 2.2444,-20.37585 3.9446,-46.38145 7.6875,-69.86328 2.4276,-3.86913 23.1469,-13.83318 26.3086,-12.77929 3.2371,22.10898 -3.3062,42.04866 -0.2149,63.2832 3.8401,6.72718 20.4579,15.39102 25.0586,10.49219 -14.1431,-7.24134 -1.9199,-42.37596 -3.293,-69.45899 -15.3396,-10.35454 -26.5468,-11.48417 -40.8203,-3.83984 9.4945,-15.39993 21.1709,-31.18351 33.4727,-43.61719 -4.7986,9.34316 -6.2718,11.17879 -12.6777,19.10938 1.0673,1.64909 3.1033,2.1237 4.6738,2.58593 4.4791,0.23486 29.2768,-37.33845 31.8242,-46.46679 -2.199,-2.12947 -4.5232,-2.61021 -7.4453,-3.57422 -20.2805,20.48584 -38.1912,41.83951 -54.9473,64.29687 0.6788,-13.27521 3.432,-27.51045 2.2071,-40.85156 -3.7568,-4.71166 -12.7309,-7.72942 -19.3809,-9.32422 -1.9976,30.00123 -4.6905,58.16574 -7.4199,85.38867 l -29.4825,53.66211 c -1.7411,-0.4657 -3.4137,-0.96123 -4.8085,-1.61718 -5.2421,-15.02003 11.4427,-85.90993 6.3652,-104.50391 -2.8635,-4.08812 -19.0565,-12.20213 -23.3399,-12.25781 -7.1524,-0.54102 -24.5735,38.76486 -38.8125,62.88867 0.5173,-14.87428 3.3161,-31.72631 3.2676,-47.18945 -5.6978,-3.37529 -12.3675,-7.40621 -18.9199,-6.99024 -0.4092,0.24968 -0.3295,0.64487 -0.5176,1.01367 -1.2089,17.1601 -5.9008,53.53939 -11.1113,95.05664 l -24.2871,36.54883 c -10.681,-18.49014 -1.7916,-65.96312 5.2285,-90.49219 -5.4956,-4.09276 -12.7128,-7.46354 -19.1855,-7.97265 -8.7546,18.05971 -10.3423,58.51147 -10.4629,83.37109 -5.3721,9.14965 -13.8856,22.10952 -25.6426,27.78906 -18.6183,-5.2493 -18.9387,-38.5371 -13.2305,-53.80078 15.7969,-16.70312 51.245,-56.36367 41.3985,-75.1582 -5.5386,-3.95028 -11.5581,-5.86619 -19.8672,-6.47656 -19.946,6.66505 -46.3674,60.82094 -43.6778,99.75976 l -19.3242,36.48828 c -4.9916,-1.74134 -9.5111,-2.98762 -14.4492,-5.00195 1.5932,-42.32867 10.0403,-85.53995 19.0879,-139.67578 -5.9977,-4.35495 -14.1394,-8.04707 -21.6543,-9.67773 -8.6422,3.49409 -32.9708,39.37038 -47.916,62.02929 1.6344,-22.70627 3.9705,-48.36996 6.4355,-67.25586 6.9747,-4.18145 11.6629,-6.73792 19.3711,-10.60547 2.5788,1.00494 5.6738,1.72919 8.0391,2.06836 57.2787,-11.91327 195.6963,-40.98089 228.248,-52.54101 7.5526,-4.58345 -2.9117,-9.6759 -6.7226,-11.24414 -9.4877,-1.81387 -19.8769,-2.66887 -30.8985,-2.72656 z m 24.6407,9.64648 c 2.4165,0.0197 4.815,0.0692 7.1953,0.14844 -29.8338,10.7168 -161.875,38.15903 -220.2774,50.82031 46.7676,-23.91077 138.1682,-51.57159 213.0821,-50.96875 z m -431.9336,29.33398 c -26.41357,5.9987 -37.53085,104.09185 -38.16801,176.26172 l -17.97851,18.41211 c 0.0495,-18.88361 -3.53826,-35.16895 -9.19141,-42.23828 -7.08359,-4.95532 -12.6427,-7.17251 -20.16797,-9.99023 -16.25552,14.21188 -21.06948,81.05548 3.32227,82.92187 -0.24983,15.35901 -17.64844,42.9581 -36.19727,46.69336 -10.29535,-16.47095 -3.24493,-65.09233 1.78321,-94.01758 -0.83037,-2.34954 -17.54331,-9.45623 -19.45703,-8.27343 -3.39376,17.55426 -9.14028,54.66513 -6.10547,80.12304 l -24.86329,39.6543 c -1.64965,-0.44391 -3.23673,-0.91302 -4.58398,-1.54688 -5.24198,-15.02013 11.44269,-85.90992 6.36524,-104.5039 -2.86353,-4.08811 -19.05659,-12.20213 -23.33985,-12.25782 -7.15253,-0.54101 -24.57362,38.76477 -38.8125,62.88868 0.51715,-14.87438 3.31592,-31.72621 3.26758,-47.18946 -5.6979,-3.37528 -12.36758,-7.4061 -18.91992,-6.99023 -0.22299,0.13676 -0.30457,0.31847 -0.35938,0.51367 l -28.83789,46.02734 c -1.16039,-13.54898 -4.32346,-24.63491 -8.72461,-30.13867 -7.08374,-4.95521 -12.64473,-7.17261 -20.16992,-9.99023 -16.25552,14.21188 -21.06753,81.05323 3.32422,82.91992 -0.25021,15.35881 -17.64848,42.95829 -36.19727,46.69336 -10.29535,-16.47076 -3.24684,-65.09019 1.78125,-94.01562 -0.82696,-2.34102 -17.41284,-9.39838 -19.42578,-8.2793 l -0.0117,-0.01 -0.0117,0.0195 c -0.002,0.001 -0.008,-10e-4 -0.0117,0 -5e-4,0.003 5.6e-4,0.007 0,0.01 l -21.51563,25.64258 c -1.20102,-4.4691 -3.09487,-8.52781 -5.8418,-11.98633 -6.71508,-6.44231 -22.34156,-12.60158 -32.59179,-10.71289 -1.44049,0.26555 -5.10179,1.4529 -5.28906,1.26562 13.49011,-27.41328 48.76605,-90.3787 15.09374,-118.10351 -9.75923,-4.96562 -17.55515,-8.53833 -28.24804,-13.5957 -27.24594,6.18775 -38.21948,110.37447 -38.19922,183.00976 l -30.23047,39.10547 c 2.34607,-20.3822 4.96525,-42.84877 8.51563,-73.17578 -4.46091,-4.24131 -12.7647,-7.92607 -18.75782,-7.81836 -3.36366,31.45571 -8.11253,69.32032 -13.30664,104.26172 -10.74467,16.68515 -17.63274,26.60928 -27.83984,39.09961 -3.38707,-0.92741 -5.69198,-1.76718 -9.33203,-2.96485 4.74338,-39.42961 9.90891,-82.70961 9.72265,-124.7539 -3.0719,-2.56763 -12.5507,-8.89341 -20.22461,-9.09961 -1.32431,41.73931 -5.25765,84.09556 -10.36914,125.24023 l -50.62304,95.13867 c -98.43022,-71.66778 -35.36592,-321.63603 55.32617,-401.29882 8.40445,9.96602 14.62069,21.6702 20.00586,33.56445 -14.30802,33.322 -32.039,105.93479 -12.30078,130.34961 3.57079,1.16278 7.31659,1.97847 11.71679,2.84765 46.59354,-34.96288 36.81502,-170.7202 -34.67187,-178.50781 -77.91084,19.11092 -191.28014,362.61527 -36.98047,420.21875 l 49.10547,-90.63672 c 9.23321,5.82598 23.17467,15.0826 30.91797,8.61133 6.64432,-7.89599 15.47211,-20.07898 22.99609,-29.56445 -0.68441,7.45529 -2.28356,19.01454 -3.13867,24.03515 -25.51518,33.24085 -62.67039,100.19324 -29.39258,133.76563 9.62156,5.82104 26.83608,16.40233 37.94727,6.07812 9.17222,-99.57137 12.16931,-130.85731 19.26367,-193.01953 l 31.73633,-41.06054 c 0.42463,27.06192 2.47661,48.37644 5.87304,56.10351 4.94128,10.14615 19.39145,16.6268 30.19141,13.90235 31.58283,-14.46257 63.01858,-66.86051 60.32813,-101.98243 l 17.91601,-21.34179 c -4.43618,27.44925 -9.07414,72.15097 2.61133,88.11718 7.22884,8.70149 24.84499,15.36499 35.20312,12.63672 32.74292,-13.10705 44.36748,-55.48022 44.29688,-89.20312 l 26.93359,-42.97656 c -5.41077,52.16489 -23.29381,173.93181 -28.49414,260.54492 5.59257,4.28954 12.32301,7.89073 18.69922,8.94531 5.08449,-51.65854 9.90093,-136.26412 25.04297,-201.95117 6.73417,-22.92278 35.95121,-79.57737 43.75586,-84.31836 5.98779,8.65838 -8.50725,81.03014 -6.84766,108.61523 -0.46273,3.78441 13.36189,9.97133 20.33985,11.29493 6.06259,0.96906 7.67446,0.17509 11.39257,-5.63672 0.099,-0.1496 0.27794,-0.80107 0.38868,-0.99805 l 20.09765,-32.04883 c 1.14252,4.48436 2.71766,8.30368 4.82422,11.18164 7.22888,8.70158 24.84499,15.36692 35.20313,12.63867 29.48538,-11.80299 41.84333,-47.34002 43.96289,-78.92187 l 18.28515,-18.72656 c 0.11792,30.78975 2.2297,55.56059 5.95118,64.02734 4.94124,10.14607 19.38947,16.62673 30.18937,13.90234 38.6204,-17.68545 77.0542,-92.11298 53.0879,-122.28711 -6.7149,-6.4423 -22.3396,-12.60157 -32.5897,-10.71289 -1.4406,0.26555 -5.1039,1.4529 -5.291,1.26563 13.49,-27.41318 48.768,-90.37871 15.0957,-118.10352 -9.7593,-4.96552 -17.5571,-8.53637 -28.25,-13.59375 z m 15.7968,12.47852 c 50.9183,13.81861 -9.9792,125.95888 -28.2558,141.2832 1.3444,-22.64068 8.4778,-134.01342 28.2558,-141.2832 z m 310.6621,60.60547 c 1.957,6.41149 -17.438,40.47102 -33.0683,52.76172 6.7849,-27.51693 23.4123,-50.49938 33.0683,-52.76172 z m -740.74409,25.59765 c 50.91825,13.81861 -9.97717,125.95878 -28.25391,141.28321 1.34457,-22.64068 8.47583,-134.01342 28.25391,-141.28321 z m -137.82227,1.2129 c 9.33009,37.63653 2.65999,79.88526 -13.70703,109.44921 -8.11914,-33.60252 -0.59097,-65.66991 13.70703,-109.44921 z m 588.06836,42.01367 c 10.6993,39.47022 -20.3721,88.37504 -49.168,108.01172 -4.9629,-6.5416 -4.3596,-60.92279 0.6094,-89.47071 5.6917,2.86737 12.0599,5.01532 18.8945,5.86914 7.8429,-11.43656 16.1203,-20.07997 29.6641,-24.41015 z m -118.51758,10.17383 c 7.99669,1.30199 9.56349,66.40714 -3.27734,67.99609 -13.30061,-12.35312 -4.53551,-65.35821 3.27734,-67.99609 z m 237.32618,2.31054 c -1.5815,20.71454 -2.5722,39.51909 -5.2891,58.68946 -10.7557,-8.01155 -8.0065,-48.02913 5.2891,-58.68946 z m -452.95899,41.60352 c 7.99665,1.30199 9.56349,66.40529 -3.27734,67.99414 -13.30062,-12.35301 -4.53547,-65.35626 3.27734,-67.99414 z m -95.93164,32.11523 c 10.69935,39.47013 -20.37025,88.37309 -49.16602,108.00977 -4.96301,-6.54159 -4.35972,-60.92073 0.60938,-89.46875 5.69163,2.86756 12.0599,5.01346 18.89453,5.86719 7.84275,-11.43647 16.11825,-20.07813 29.66211,-24.40821 z M 1116.1172,589.625 a 114.44698,114.44698 0 0 0 -103.8496,66.64844 h 45.2168 v 18.48828 h -18.7637 v 77.38867 h -19.998 v -77.38867 h -13.0938 a 114.44698,114.44698 0 0 0 -3.959,29.31055 114.44698,114.44698 0 0 0 114.4473,114.44726 114.44698,114.44698 0 0 0 103.7187,-66.36914 h -8.9336 l -16.5703,-36.02539 -4.5195,7.26367 v 28.76172 h -18.9023 v -28.76172 l -4.5196,-7.26367 -16.5761,36.02539 h -21.3653 l 27.668,-52.86914 -25.0664,-43.00781 h 21.918 l 13.0097,26.02344 4.9317,11.09179 v -37.11523 h 18.9023 v 37.11523 l 4.9277,-11.09179 13.0137,-26.02344 h 12.1992 A 114.44698,114.44698 0 0 0 1116.1172,589.625 Z m -21.209,64.73047 c 19.1752,0 29.8561,10.95747 30.541,31.22851 H 1106 c -0.548,-8.76591 -3.8342,-12.33007 -11.2305,-12.33007 -5.8894,0 -9.3125,3.83814 -9.3125,12.33007 v 37.25196 c 0,8.21804 3.2861,12.05469 9.3125,12.05468 7.5333,0 10.9579,-3.56265 11.5059,-12.05468 h 19.4492 c -0.4112,20.13401 -11.5058,30.95508 -30.9551,30.95508 -18.6273,0 -29.584,-10.82107 -29.584,-30.95508 v -37.25196 c 0,-20.27104 10.9584,-31.22851 29.7227,-31.22851 z m 129.0371,11.73828 -19.3398,33.1875 20.58,39.33203 a 114.44698,114.44698 0 0 0 5.377,-34.54101 114.44698,114.44698 0 0 0 -6.6172,-37.97852 z m -732.61718,24.91211 c -3.62943,40.32575 -6.75002,81.83415 -9.55468,121.27734 -48.20375,-12.70973 -10.20523,-99.64618 9.55468,-121.27734 z"
       style="fill:#000000;stroke-width:0.92132789" />
  </g>
</svg>
