<?xml version="1.0" encoding="utf-8"?>
<!-- Generator: Adobe Illustrator 22.1.0, SVG Export Plug-In . SVG Version: 6.00 Build 0)  -->
<svg version="1.1" xmlns="http://www.w3.org/2000/svg" xmlns:xlink="http://www.w3.org/1999/xlink" x="0px" y="0px"
	 viewBox="0 0 725.6 291.5" style="enable-background:new 0 0 725.6 291.5;" xml:space="preserve">
<style type="text/css">
	.st0{fill:#EAA81B;}
</style>
<g id="svg293" xmlns:cc="http://creativecommons.org/ns#" xmlns:dc="http://purl.org/dc/elements/1.1/" xmlns:rdf="http://www.w3.org/1999/02/22-rdf-syntax-ns#" xmlns:svg="http://www.w3.org/2000/svg">
	<g id="layer1" transform="translate(60.714187,-108.47252)">
		<path id="path157" class="st0" d="M180.4,174.5c-39.3,0.2-75.2,26.5-85.9,66.3c-12.8,47.7,15.6,96.8,63.3,109.6
			c47.7,12.8,96.8-15.6,109.6-63.3c12.8-47.7-15.5-96.8-63.2-109.6c-6-1.6-12-2.6-17.9-2.9C184.2,174.5,182.3,174.4,180.4,174.5z
			 M180.4,177.3c1.9,0,3.8,0,5.6,0.2c5.7,0.3,11.5,1.3,17.3,2.8c46.2,12.4,73.6,59.9,61.2,106.1c-12.4,46.2-59.9,73.6-106.1,61.2
			c-46.2-12.4-73.6-59.9-61.2-106.1C107.6,203,142.3,177.5,180.4,177.3z M181.5,197.3c-1.7,0-3.4,0-5.2,0.2v0
			c-23.9,1.7-45.4,16.1-55.8,38.3c-0.3,0.7,0,1.6,0.7,1.9c0.1,0,0.1,0.1,0.2,0.1l40.5,10.8c0.5,0.1,1.1,0,1.4-0.4
			c3.3-3.7,7.8-6.3,12.7-7.3c0.5-0.1,0.9-0.5,1.1-1l10.8-40.5c0.2-0.8-0.2-1.5-1-1.7c-0.1,0-0.2,0-0.2,0
			C185,197.4,183.2,197.3,181.5,197.3z M180.6,200.2c1.4,0,2.7,0.1,4.1,0.2l-10.2,38c-4.8,1.2-9.1,3.7-12.6,7.3l-38-10.2
			c10.2-20.4,30.2-33.6,52.6-35.2C177.9,200.2,179.2,200.2,180.6,200.2z M49.9,339.1c-0.5,0-1,0.3-1.2,0.7l-11.9,20.7
			c-0.3,0.4-0.3,1,0,1.4l11.9,20.7c0.3,0.4,0.7,0.7,1.2,0.7h23.9c0.5,0,1-0.3,1.2-0.7l11.9-20.7c0.3-0.4,0.3-1,0-1.4l-11.9-20.7
			c-0.3-0.4-0.7-0.7-1.2-0.7H49.9z M208.5,203.5c-0.7,0-1.2,0.4-1.4,1.1L196.3,245c-0.1,0.5,0,1.1,0.4,1.4c3.7,3.3,6.3,7.8,7.3,12.7
			c0.1,0.5,0.5,0.9,1,1.1l40.5,10.8c0.8,0.2,1.5-0.2,1.7-1c0-0.1,0-0.2,0-0.2c2.4-27.9-12.9-54.3-38.2-66.1
			C208.9,203.5,208.7,203.5,208.5,203.5z M50.7,341.9h22.2L84,361.2l-11.1,19.2H50.7l-11.1-19.2L50.7,341.9z M209.4,207
			c22.8,11.4,36.6,35.3,35.1,60.8l-38-10.2c-1.2-4.8-3.7-9.1-7.3-12.5L209.4,207z M61.8,347.6c-7.5,0-13.6,6.1-13.6,13.6
			c0,7.5,6.1,13.6,13.6,13.6s13.6-6.1,13.6-13.6C75.4,353.7,69.3,347.6,61.8,347.6z M61.8,350.4c5.9,0,10.7,4.8,10.7,10.7
			s-4.8,10.7-10.7,10.7S51,367.1,51,361.2S55.8,350.4,61.8,350.4z M180.4,252.4c-0.4,0-0.8,0-1.1,0.1c-4.5,0.6-8.4,3.9-9.6,8.5
			c-1.7,6.2,2,12.5,8.2,14.2c6.2,1.6,12.5-2,14.2-8.2c1.7-6.2-2-12.5-8.2-14.2C182.7,252.4,181.6,252.3,180.4,252.4z M180.5,255.2
			c0.9,0,1.7,0.1,2.6,0.3c4.7,1.3,7.4,6,6.2,10.7c-1.3,4.7-6,7.4-10.7,6.2c-4.7-1.3-7.4-6-6.2-10.7
			C173.5,257.9,176.8,255.3,180.5,255.2z M115.9,256.8c-0.7,0-1.3,0.6-1.4,1.3c-2.4,27.9,12.9,54.3,38.2,66.1c0.7,0.3,1.6,0,1.9-0.7
			c0-0.1,0.1-0.2,0.1-0.2l10.8-40.5c0.1-0.5,0-1.1-0.4-1.4c-3.7-3.3-6.3-7.8-7.3-12.7c-0.1-0.5-0.5-0.9-1-1.1l-40.5-10.8
			C116.2,256.8,116,256.8,115.9,256.8z M117.3,260.1l38,10.2c1.2,4.8,3.7,9.1,7.3,12.5l-10.2,38
			C129.6,309.4,115.8,285.6,117.3,260.1z M364,155.9c-4.3,5.8-7.9,14-10.2,25.7c0,0,0,0,0,0c-0.4-0.1-0.8-0.3-1.2-0.4
			c-0.9-0.2-1.6-0.3-2.4-0.3s-1.6,0.3-2.2,1c-0.8,1.1-0.8,2.4-0.7,3.8c0.1,1.4,0.5,3,0.9,5c0.8,3.8,1.9,8.8,2.2,14.8
			c0.6,12-2,28.2-16.6,47.5C304,292.3,204.4,424.3,204.4,424.3c-7,9.2-5.2,22.3,4,29.3c9.2,7,22.3,5.2,29.3-4l120.2-158.1
			c16.2-21.4,30.7-25.1,44.6-27.8c13.9-2.7,27.5-4.2,40.1-20.8c12.7-16.7,13.4-38.6,11.1-56.3c-2.3-17.7-7.7-31.3-7.7-31.3
			c-0.3-0.7-1.1-1.1-1.8-0.8c-0.4,0.1-0.7,0.4-0.8,0.8c0,0-3.2,8.2-8.6,17.8c-5.4,9.5-13,20.3-21.4,25.2c-2.2,1.3-5,1.9-8.1,1.9
			c-0.6-0.6-3.7-4.1-7.6-8.9c-4.3-5.3-9.1-11.9-11-16.7c-1.8-4.2-0.1-12.2,2.4-18.9c2.5-6.7,5.5-12.2,5.5-12.2
			c0.4-0.7,0.1-1.5-0.6-1.9c-0.3-0.1-0.6-0.2-0.9-0.2c-7.9,1.1-16.1,2.6-23.1,8.3c-1.8,1.4-3.4,3.1-5,5
			C364.5,155.2,364.2,155.6,364,155.9z M365.9,158c1.8-2.4,3.7-4.4,5.7-6c5.7-4.5,12.3-6.1,19.1-7.1c-0.9,1.7-2.4,4.5-4.5,10
			c-2.6,6.9-4.8,15.1-2.4,21c2.2,5.3,7.1,11.9,11.4,17.3c2.2,2.8,4.3,5.2,5.8,6.9c-1.3-0.2-2.6-0.4-3.9-0.7
			c-6.5-1.4-13.6-4.2-20.4-7.2c-6.7-3-13.1-6.2-18-8.4c-0.9-0.4-1.7-0.7-2.5-1c0.1-0.1,0.1-0.3,0.2-0.4
			C358.8,171.1,362,163.4,365.9,158z M350.2,183.9c0,0,0,0,0.1,0c0.3,0,0.8,0,1.5,0.2c1.4,0.4,3.4,1.1,5.8,2.2
			c4.8,2.1,11.2,5.3,18,8.4c6.8,3,14.1,5.9,20.9,7.4c2.7,0.6,5.3,1,7.8,1c0.1,0,0.2,0,0.3,0c3.7,0.1,7.1-0.6,10-2.3
			c9.3-5.4,17-16.5,22.4-26.3c4.5-8,6.2-12.6,7.2-14.9c1.4,3.7,4.6,13.2,6.5,27.3c2.3,17.3,1.4,38.4-10.6,54.2
			c-12.1,15.9-24.3,17-38.4,19.7c-14,2.7-29.6,7-46.3,28.9L235.4,447.9c-6.1,8-17.4,9.5-25.3,3.5c-8-6.1-9.5-17.4-3.5-25.3
			c0,0,0,0,0,0c0,0,99.6-132,129.3-171.1c15-19.8,17.8-36.8,17.2-49.4c-0.3-6.3-1.4-11.4-2.3-15.3c-0.4-1.9-0.7-3.5-0.8-4.6
			C350,184.6,350.1,184.1,350.2,183.9z M360.2,222.9c-0.5,0.6-0.4,1.5,0.3,2c0,0,0,0,0,0l37,28.1c0.6,0.5,1.5,0.4,2-0.3c0,0,0,0,0,0
			l14.1-18.5c0.5-0.6,0.4-1.5-0.3-2c0,0,0,0,0,0l-37-28.1c-0.6-0.5-1.5-0.4-2,0.3c0,0,0,0,0,0L360.2,222.9z M363.3,223.5l3.9-5.1
			l1.2,9L363.3,223.5z M369.7,215.2l4.8-6.3l3.5,25.8l-6.3-4.8L369.7,215.2z M377.3,208.5l6.3,4.8l3.9,28.6l-6.3-4.8L377.3,208.5z
			 M212.2,430.7c-3.5,4.6-2.6,11.1,2,14.6c4.6,3.5,11.1,2.6,14.6-2c3.5-4.6,2.6-11.1-2-14.6C222.3,425.2,215.7,426.1,212.2,430.7z
			 M214.5,432.4c2.5-3.3,7.3-4,10.6-1.5c3.3,2.5,4,7.3,1.4,10.6c-2.5,3.3-7.3,4-10.6,1.4C212.6,440.5,212,435.8,214.5,432.4z
			 M386.8,215.7l6.3,4.8l3.9,28.6l-6.3-4.8L386.8,215.7z M232.1,419.4c-0.5,0.6-0.4,1.5,0.2,2s1.5,0.4,2-0.2c0,0,0,0,0,0
			l127.7-168.1c0.5-0.6,0.4-1.5-0.2-2c-0.6-0.5-1.5-0.4-2,0.2c0,0,0,0,0,0L232.1,419.4z M396.3,223l6.3,4.8l1.9,13.7l-4.8,6.3
			L396.3,223z M405.9,230.2l4.6,3.5l-3.5,4.6L405.9,230.2z M199.4,279.2c-0.4,0-0.7,0.2-1,0.5c-3.3,3.7-7.8,6.3-12.7,7.3
			c-0.5,0.1-0.9,0.5-1.1,1l-10.8,40.5c-0.2,0.8,0.2,1.5,1,1.7c0.1,0,0.2,0,0.2,0c27.9,2.4,54.3-12.9,66.1-38.2
			c0.3-0.7,0-1.6-0.7-1.9c-0.1,0-0.2-0.1-0.2-0.1l-40.5-10.8C199.7,279.2,199.6,279.2,199.4,279.2z M199.8,282.2l38,10.2
			c-11.4,22.8-35.3,36.6-60.8,35.1l10.2-38C192.1,288.3,196.4,285.8,199.8,282.2z M469.9,249c-0.5,0.2-0.8,0.7-0.8,1.2l-1.5,23.8
			c0,0.5,0.2,1,0.6,1.3l19.9,13.2c0.4,0.3,1,0.3,1.4,0.1l21.4-10.6c0.5-0.2,0.8-0.7,0.8-1.2l1.5-23.8c0-0.5-0.2-1-0.6-1.3
			l-19.9-13.2c-0.4-0.3-1-0.3-1.4-0.1L469.9,249z M471.9,251.2l19.9-9.9l18.5,12.3l-1.4,22.2l-19.9,9.9l-18.5-12.3L471.9,251.2z
			 M484.3,251.4c-6.7,3.3-9.4,11.5-6.1,18.2c3.3,6.7,11.5,9.4,18.2,6.1c6.7-3.3,9.4-11.5,6.1-18.2C499.2,250.8,491,248,484.3,251.4z
			 M485.6,253.9c5.3-2.6,11.7-0.5,14.4,4.8c2.6,5.3,0.5,11.7-4.8,14.4s-11.7,0.5-14.4-4.8C478.1,263,480.3,256.5,485.6,253.9z
			 M410.1,307.2c-29.8,14.8-42,51-27.2,80.8s51,42,80.8,27.2s42-51,27.2-80.8S439.9,292.4,410.1,307.2z M411.4,309.7
			c28.4-14.1,62.9-2.5,77,25.9c14.1,28.4,2.5,62.9-25.9,77c-28.4,14.1-62.9,2.5-77-25.9C371.3,358.3,382.9,323.8,411.4,309.7z
			 M416.3,319.6c-22.9,11.4-32.3,39.2-20.9,62.1c11.4,22.9,39.2,32.3,62.1,20.9s32.3-39.2,20.9-62.1S439.2,308.3,416.3,319.6z
			 M417.5,322.2c21.5-10.7,47.6-1.9,58.3,19.6s1.9,47.6-19.6,58.3s-47.6,1.9-58.3-19.6S396,332.9,417.5,322.2z M418.8,324.7
			c-20.1,10-28.4,34.5-18.4,54.6c10,20.1,34.5,28.4,54.6,18.4c20.1-10,28.4-34.5,18.4-54.6C463.4,322.9,438.9,314.7,418.8,324.7z
			 M420.1,327.2c18.8-9.3,41.5-1.7,50.8,17.1c9.3,18.8,1.7,41.5-17.1,50.8c-18.8,9.3-41.5,1.7-50.8-17.1
			C393.7,359.2,401.3,336.5,420.1,327.2z M548,430.7c0.1,0.8,0.8,1.3,1.6,1.2c0.3,0,0.6-0.2,0.8-0.4l6-5.9l7.2,4.3
			c0.6,0.3,1.3,0.2,1.7-0.2l6-5.9l7.2,4.3c0.6,0.3,1.3,0.2,1.7-0.2l6-5.9l7.2,4.3c0.6,0.3,1.3,0.2,1.7-0.2l6-5.9l7.2,4.3
			c0.7,0.4,1.5,0.2,1.9-0.5c0.2-0.3,0.2-0.6,0.2-0.9l-11.9-99.5c-0.1-0.4-0.3-0.8-0.7-1.1l-8.1-4.9c-0.6-0.3-1.3-0.2-1.7,0.2l-6,5.9
			l-7.2-4.3c-0.6-0.3-1.3-0.2-1.7,0.2l-6,5.9l-7.2-4.3c-0.6-0.3-1.3-0.2-1.7,0.2l-6,5.9l-7.2-4.3c-0.6-0.3-1.3-0.2-1.7,0.2l-6.7,6.7
			c-0.3,0.3-0.5,0.7-0.4,1.2L548,430.7z M550.5,427.5l-11.5-96l5.5-5.4l7.2,4.3c0.6,0.3,1.3,0.2,1.7-0.2l6-5.9l7.2,4.3
			c0.6,0.3,1.3,0.2,1.7-0.2l6-5.9l7.2,4.3c0.6,0.3,1.3,0.2,1.7-0.2l6-5.9l6.6,4l11.5,96l-5.6-3.4c-0.6-0.3-1.3-0.2-1.7,0.2l-6,5.9
			l-7.2-4.3c-0.6-0.3-1.3-0.2-1.7,0.2l-6,5.9l-7.2-4.3c-0.6-0.3-1.3-0.2-1.7,0.2l-6,5.9l-7.2-4.3c-0.6-0.3-1.3-0.2-1.7,0.2
			L550.5,427.5z M290.2,186.4c-0.5,0-1,0.3-1.2,0.7L277,207.8c-0.3,0.4-0.3,1,0,1.4l11.9,20.7c0.3,0.4,0.7,0.7,1.2,0.7H314
			c0.5,0,1-0.3,1.2-0.7l11.9-20.7c0.3-0.4,0.3-1,0-1.4l-11.9-20.7c-0.3-0.4-0.7-0.7-1.2-0.7H290.2z M291,189.2h22.2l11.1,19.2
			l-11.1,19.3H291l-11.1-19.3L291,189.2z M302.1,194.9c-7.5,0-13.6,6.1-13.6,13.6s6.1,13.6,13.6,13.6s13.6-6.1,13.6-13.6
			S309.6,194.9,302.1,194.9z M302.1,197.7c5.9,0,10.7,4.8,10.7,10.7s-4.8,10.7-10.7,10.7s-10.7-4.8-10.7-10.7
			S296.2,197.7,302.1,197.7z"/>
	</g>
</g>
<g id="Слой_2">
</g>
</svg>
