<svg id="svg293" xmlns="http://www.w3.org/2000/svg" viewBox="0 0 573.85 316.36"><defs><style>.cls-1{fill:#eaa81b;}</style></defs><title>services2</title><g id="layer1"><path id="path157" class="cls-1" d="M241.07,66a89.54,89.54,0,1,0,5.82.16Q244,66,241.07,66Zm0,2.83q2.81,0,5.64.15a86.58,86.58,0,1,1-5.64-.15Zm1.13,20c-1.73,0-3.44,0-5.15.16h0a66.68,66.68,0,0,0-55.78,38.31,1.43,1.43,0,0,0,.7,1.88,2,2,0,0,0,.22.09l40.46,10.84a1.42,1.42,0,0,0,1.42-.42,23.64,23.64,0,0,1,12.66-7.34,1.42,1.42,0,0,0,1.08-1l10.84-40.48a1.41,1.41,0,0,0-1-1.74,1,1,0,0,0-.24,0C245.66,88.92,243.93,88.84,242.2,88.82Zm-.87,2.89c1.37,0,2.74.08,4.12.16l-10.2,38a26.38,26.38,0,0,0-12.55,7.27l-38-10.19a63.74,63.74,0,0,1,52.55-35.18C238.59,91.71,240,91.69,241.33,91.71ZM110.57,230.61a1.42,1.42,0,0,0-1.23.7L97.41,252a1.37,1.37,0,0,0,0,1.41l11.93,20.67a1.41,1.41,0,0,0,1.23.71h23.86a1.42,1.42,0,0,0,1.23-.71l11.93-20.67a1.42,1.42,0,0,0,0-1.41l-11.93-20.67a1.44,1.44,0,0,0-1.23-.7ZM269.23,95a1.42,1.42,0,0,0-1.42,1L257,136.49a1.41,1.41,0,0,0,.42,1.42,23.62,23.62,0,0,1,7.33,12.66,1.42,1.42,0,0,0,1,1.08l40.48,10.84a1.41,1.41,0,0,0,1.73-1,1,1,0,0,0,.05-.24,66.68,66.68,0,0,0-38.23-66.14A1.43,1.43,0,0,0,269.23,95ZM111.39,233.44h22.22l11.12,19.25-11.12,19.24H111.39l-11.12-19.24ZM270.07,98.52a63.67,63.67,0,0,1,35.12,60.76l-38-10.19a26.4,26.4,0,0,0-7.26-12.55ZM122.5,239.12a13.57,13.57,0,1,0,13.57,13.57A13.59,13.59,0,0,0,122.5,239.12Zm0,2.83a10.74,10.74,0,1,1-10.74,10.74A10.71,10.71,0,0,1,122.5,242Zm118.65-98.06a10.59,10.59,0,0,0-1.12.1,11.58,11.58,0,1,0,4.58.29A11.4,11.4,0,0,0,241.15,143.89Zm.11,2.82a9,9,0,0,1,2.61.3,8.7,8.7,0,1,1-2.61-.3Zm-64.67,1.65a1.41,1.41,0,0,0-1.36,1.3,66.64,66.64,0,0,0,38.22,66.13,1.43,1.43,0,0,0,1.89-.68,2.25,2.25,0,0,0,.08-.24l10.84-40.45a1.42,1.42,0,0,0-.42-1.43,23.52,23.52,0,0,1-7.33-12.66,1.42,1.42,0,0,0-1-1.07L177,148.41A2,2,0,0,0,176.59,148.36Zm1.45,3.26,38,10.2a26.41,26.41,0,0,0,7.26,12.54l-10.19,38A63.67,63.67,0,0,1,178,151.62ZM424.67,47.47c-4.34,5.81-7.86,14-10.17,25.74h0c-.43-.13-.85-.26-1.24-.36a8,8,0,0,0-2.4-.3,2.92,2.92,0,0,0-2.17,1A5.18,5.18,0,0,0,408,77.4a45.06,45.06,0,0,0,.88,5,88,88,0,0,1,2.2,14.82c.59,12-2,28.19-16.63,47.5C364.7,183.8,265.09,315.83,265.09,315.83a20.92,20.92,0,1,0,33.31,25.31L418.57,183c16.23-21.36,30.65-25.14,44.55-27.81s27.52-4.2,40.11-20.76,13.42-38.6,11.11-56.28a143.33,143.33,0,0,0-7.73-31.26,1.42,1.42,0,0,0-1.84-.79,1.4,1.4,0,0,0-.8.8,152.1,152.1,0,0,1-8.55,17.79C490,74.24,482.43,85,474,89.92a16,16,0,0,1-8.13,1.89c-.56-.62-3.7-4.08-7.61-9-4.28-5.32-9.07-11.94-11-16.65-1.77-4.22-.05-12.16,2.42-18.87a102.6,102.6,0,0,1,5.47-12.21A1.43,1.43,0,0,0,453.68,33c-7.86,1.08-16.06,2.65-23.11,8.28a33.07,33.07,0,0,0-5,5C425.25,46.71,425,47.08,424.67,47.47Zm2,2.07a31.35,31.35,0,0,1,5.69-6c5.68-4.53,12.3-6.08,19.12-7.14a70.34,70.34,0,0,0-4.46,10c-2.56,6.93-4.82,15.14-2.38,21,2.23,5.31,7.11,11.92,11.45,17.33,2.23,2.78,4.27,5.16,5.78,6.88-1.27-.16-2.57-.37-3.92-.67-6.46-1.41-13.61-4.23-20.36-7.24s-13.07-6.22-18-8.4c-.86-.38-1.67-.72-2.45-1a1.31,1.31,0,0,0,.16-.43C419.48,62.59,422.74,54.91,426.65,49.54ZM410.91,75.39H411a5.64,5.64,0,0,1,1.55.22,40.4,40.4,0,0,1,5.84,2.2c4.82,2.13,11.17,5.35,18,8.4s14.11,5.94,20.92,7.43a42.53,42.53,0,0,0,7.76,1h.32a19,19,0,0,0,10-2.28c9.29-5.45,16.95-16.55,22.44-26.28a111.09,111.09,0,0,0,7.17-14.91,127.67,127.67,0,0,1,6.47,27.35c2.25,17.29,1.41,38.44-10.56,54.2s-24.33,17-38.38,19.68-29.64,7-46.28,28.89L296.14,339.42a18.08,18.08,0,1,1-28.79-21.88h0S367,185.5,396.68,146.4c15.05-19.8,17.83-36.81,17.22-49.36a91.86,91.86,0,0,0-2.26-15.27,43.44,43.44,0,0,1-.84-4.64A4.13,4.13,0,0,1,410.91,75.39Zm10,39.07a1.41,1.41,0,0,0,.27,2h0l37,28.13a1.41,1.41,0,0,0,2-.27h0L474.3,125.8a1.43,1.43,0,0,0-.27-2h0L437,95.68a1.4,1.4,0,0,0-2,.27h0Zm3.11.59,3.89-5.13,1.23,9Zm6.32-8.32,4.82-6.33,3.51,25.78-6.34-4.82ZM438,100l6.34,4.82,3.9,28.6-6.34-4.81ZM273,322.22a10.42,10.42,0,1,0,14.6-2A10.44,10.44,0,0,0,273,322.22Zm2.26,1.71a7.58,7.58,0,1,1,1.45,10.63A7.57,7.57,0,0,1,275.21,323.93ZM447.53,107.24l6.34,4.81,3.9,28.61-6.34-4.81ZM292.82,310.94a1.42,1.42,0,0,0,2.23,1.76l0,0L422.8,144.6a1.42,1.42,0,0,0-2.23-1.76l0,0ZM457.06,114.48l6.34,4.82,1.86,13.7-4.81,6.33Zm9.53,7.24,4.59,3.49-3.49,4.59Zm-206.43,49a1.4,1.4,0,0,0-1,.47,23.59,23.59,0,0,1-12.66,7.33,1.41,1.41,0,0,0-1.07,1l-10.85,40.48a1.41,1.41,0,0,0,1,1.73,1,1,0,0,0,.24.05A66.67,66.67,0,0,0,302,183.61a1.41,1.41,0,0,0-.69-1.88l-.23-.08-40.45-10.84A1.21,1.21,0,0,0,260.16,170.76Zm.36,3,38,10.18A63.66,63.66,0,0,1,237.78,219L248,181A26.37,26.37,0,0,0,260.52,173.73Zm270.06-33.16a1.39,1.39,0,0,0-.79,1.18l-1.5,23.81a1.42,1.42,0,0,0,.63,1.27L548.8,180a1.42,1.42,0,0,0,1.42.09l21.37-10.61a1.4,1.4,0,0,0,.78-1.18l1.5-23.81a1.42,1.42,0,0,0-.63-1.27L553.36,130A1.42,1.42,0,0,0,552,130Zm2,2.17,19.9-9.88L571,145.15l-1.4,22.19-19.9,9.88-18.51-12.3Zm12.48.14A13.58,13.58,0,1,0,563.24,149,13.6,13.6,0,0,0,545.05,142.88Zm1.26,2.54a10.74,10.74,0,1,1-4.84,14.39A10.72,10.72,0,0,1,546.31,145.42Zm-75.5,53.27a60.28,60.28,0,1,0,80.8,27.18A60.3,60.3,0,0,0,470.81,198.69Zm1.26,2.54a57.45,57.45,0,1,1-25.91,77A57.43,57.43,0,0,1,472.07,201.23Zm4.93,9.93a46.36,46.36,0,1,0,62.14,20.91A46.38,46.38,0,0,0,477,211.16Zm1.26,2.54A43.52,43.52,0,1,1,458.64,272,43.51,43.51,0,0,1,478.26,213.7Zm1.24,2.51a40.73,40.73,0,1,0,54.59,18.36A40.74,40.74,0,0,0,479.5,216.21Zm1.27,2.54a37.89,37.89,0,1,1-17.09,50.78A37.85,37.85,0,0,1,480.77,218.75Zm128,103.44a1.41,1.41,0,0,0,2.4.84l6-5.89,7.18,4.31a1.43,1.43,0,0,0,1.73-.2l6-5.89,7.19,4.31a1.42,1.42,0,0,0,1.73-.21l6-5.89,7.18,4.31a1.42,1.42,0,0,0,1.73-.2l6-5.89,7.19,4.31a1.41,1.41,0,0,0,1.94-.49,1.38,1.38,0,0,0,.2-.89L659.12,215.2a1.43,1.43,0,0,0-.68-1l-8.13-4.88a1.42,1.42,0,0,0-1.73.21l-6,5.89-7.19-4.32a1.42,1.42,0,0,0-1.72.21l-6,5.89-7.19-4.31a1.41,1.41,0,0,0-1.72.21l-6,5.89-7.19-4.32a1.42,1.42,0,0,0-1.72.21l-6.75,6.67a1.39,1.39,0,0,0-.41,1.18Zm2.47-3.2-11.52-96,5.48-5.41,7.18,4.32a1.43,1.43,0,0,0,1.73-.21l6-5.89,7.19,4.31A1.42,1.42,0,0,0,629,220l6-5.9,7.18,4.32a1.42,1.42,0,0,0,1.73-.21l6-5.89,6.59,4,11.52,96-5.65-3.39a1.43,1.43,0,0,0-1.73.21l-6,5.89-7.19-4.31a1.41,1.41,0,0,0-1.72.2l-6,5.89-7.19-4.31a1.42,1.42,0,0,0-1.72.21l-6,5.89-7.19-4.31a1.42,1.42,0,0,0-1.72.2ZM350.89,77.92a1.4,1.4,0,0,0-1.23.7L337.73,99.29a1.37,1.37,0,0,0,0,1.41l11.93,20.67a1.41,1.41,0,0,0,1.23.71h23.86a1.42,1.42,0,0,0,1.23-.71l11.93-20.67a1.42,1.42,0,0,0,0-1.41L376,78.62a1.41,1.41,0,0,0-1.23-.7Zm.82,2.83h22.22L385.05,100l-11.12,19.26H351.71L340.59,100Zm11.11,5.68A13.57,13.57,0,1,0,376.39,100,13.59,13.59,0,0,0,362.82,86.43Zm0,2.83A10.74,10.74,0,1,1,352.08,100,10.71,10.71,0,0,1,362.82,89.26Z" transform="translate(-97.22 -33.03)"/></g></svg>